<?xml version="1.0" encoding="UTF-8"?>
<svg id="Layer_2" data-name="Layer 2" xmlns="http://www.w3.org/2000/svg" viewBox="0 0 1198.41 713.41">
  <defs>
    <style>
      .cls-1 {
        opacity: .54;
      }

      .cls-2 {
        fill: none;
        stroke: #2f1c6a;
        stroke-miterlimit: 10;
        stroke-width: 2px;
      }
    </style>
  </defs>
  <g id="Layer_1-2" data-name="Layer 1">
    <g class="cls-1">
      <g>
        <line class="cls-2" x1=".21" y1="348.21" x2="1198.21" y2="348.21"/>
        <line class="cls-2" x1=".21" y1="206.21" x2="1198.21" y2="206.21"/>
        <line class="cls-2" x1=".21" y1="65.21" x2="1198.21" y2="65.21"/>
        <line class="cls-2" x1=".21" y1="490.21" x2="1198.21" y2="490.21"/>
        <line class="cls-2" x1=".21" y1="632.21" x2="1198.21" y2="632.21"/>
      </g>
      <g>
        <line class="cls-2" x1="61.71" y1="6.71" x2="61.71" y2="690.71"/>
        <line class="cls-2" x1="168.71" y1="6.71" x2="168.71" y2="690.71"/>
        <line class="cls-2" x1="359.71" y1="6.71" x2="359.71" y2="690.71"/>
        <line class="cls-2" x1="456.71" y1="6.71" x2="456.71" y2="690.71"/>
        <line class="cls-2" x1="643.71" y1="6.71" x2="643.71" y2="690.71"/>
        <line class="cls-2" x1="842.71" y1="6.71" x2="842.71" y2="690.71"/>
        <line class="cls-2" x1="948.71" y1="690.71" x2="948.71" y2="6.71"/>
        <line class="cls-2" x1="1136.71" y1="6.71" x2="1136.71" y2="690.71"/>
      </g>
      <line class="cls-2" x1=".71" y1="7.21" x2="687.71" y2="694.21"/>
      <line class="cls-2" x1=".71" y1="691.21" x2="691.21" y2=".71"/>
      <line class="cls-2" x1="1197.71" y1="7.21" x2="492.21" y2="712.71"/>
      <line class="cls-2" x1="1197.71" y1="691.21" x2="519.71" y2="13.21"/>
    </g>
  </g>
</svg>