<svg xmlns="http://www.w3.org/2000/svg" width="537.318" height="670.48" viewBox="0 0 537.318 670.48"><g transform="translate(-4052.836 157.987)"><g transform="translate(4321.496 -66.117)"><g transform="translate(0 0.13)"><path d="M72.327,151.413H36.241L18.205,120.162,36.241,88.91H72.327l18.036,31.252Zm-34.931-2H71.172l16.881-29.252L71.172,90.91H37.4L20.515,120.162Z" transform="translate(6.821 31.502)" fill="#f7931e" opacity="0.47"/><path d="M72.306,106.68H36.235L18.185,75.428,36.235,44.19H72.306l18.05,31.238Zm-34.917-2H71.152L88.046,75.428,71.152,46.19H37.389L20.495,75.428Z" transform="translate(6.814 15.746)" fill="#f7931e" opacity="0.47"/><path d="M59,73.527H32.5L19.255,50.578,32.5,27.63H59L72.25,50.578Zm-25.343-2H57.847L69.941,50.578,57.847,29.63H33.659L21.565,50.578Z" transform="translate(7.191 9.911)" fill="#f7931e" opacity="0.47"/><path d="M86.771,89.757h-26.5L47.025,66.808,60.274,43.86h26.5L100.02,66.808Zm-25.343-2H85.617L97.711,66.808,85.617,45.86H61.429L49.335,66.808Z" transform="translate(16.975 15.63)" fill="#f7931e" opacity="0.47"/><path d="M142.431,89.757h-26.5L102.685,66.808,115.934,43.86h26.5L155.68,66.808Zm-25.343-2h24.188l12.094-20.948L141.277,45.86H117.089L104.995,66.808Z" transform="translate(36.586 15.63)" fill="#f7931e" opacity="0.47"/><path d="M170.781,106.147h-26.5L131.035,83.2,144.284,60.25h26.5L184.03,83.2Zm-25.343-2h24.188L181.721,83.2,169.627,62.25H145.439L133.345,83.2Z" transform="translate(46.575 21.404)" fill="#f7931e" opacity="0.47"/><path d="M198.921,122.257h-26.5L159.175,99.308,172.424,76.36h26.5L212.17,99.308Zm-25.343-2h24.188l12.094-20.948L197.767,78.36H173.579L161.485,99.308Z" transform="translate(56.489 27.08)" fill="#f7931e" opacity="0.47"/><path d="M114.691,73.377h-26.5L74.945,50.428,88.194,27.48h26.5L127.94,50.428Zm-25.343-2h24.188l12.094-20.948L113.537,29.48H89.349L77.255,50.428Z" transform="translate(26.812 9.859)" fill="#f7931e" opacity="0.47"/><path d="M111.037,129.043H74.951L56.915,97.792,74.951,66.54h36.086l18.036,31.252Zm-34.931-2h33.776l16.881-29.252L109.882,68.54H76.106L59.225,97.792Z" transform="translate(20.46 23.621)" fill="#f7931e" opacity="0.47"/><path d="M149.73,151.413H113.645L95.6,120.162l18.05-31.252H149.73l18.036,31.252Zm-34.931-2h33.776l16.881-29.252L148.575,90.91H114.8L97.9,120.162Z" transform="translate(34.088 31.502)" fill="#f7931e" opacity="0.47"/><path d="M188.407,173.93H152.321l-18.036-31.238,18.036-31.252h36.086l18.036,31.252Zm-34.931-2h33.776l16.881-29.238L187.252,113.44H153.476l-16.881,29.251Z" transform="translate(47.72 39.44)" fill="#f7931e" opacity="0.32"/><path d="M188.407,129.2H152.321L134.285,97.962,152.321,66.71h36.086l18.036,31.252Zm-34.931-2h33.776l16.881-29.238L187.252,68.71H153.476L136.595,97.962Z" transform="translate(47.72 23.68)" fill="#f7931e" opacity="0.32"/><path d="M188.407,84.163H152.321L134.285,52.912,152.321,21.66h36.086l18.036,31.252Zm-34.931-2h33.776l16.881-29.252L187.252,23.66H153.476L136.595,52.912Z" transform="translate(47.72 7.808)" fill="#f7931e" opacity="0.29"/><path d="M149.73,106.51H113.645L95.6,75.272l18.05-31.252H149.73l18.036,31.252Zm-34.931-2h33.776l16.881-29.238L148.575,46.02H114.8L97.9,75.271Z" transform="translate(34.088 15.686)" fill="#f7931e" opacity="0.32"/><path d="M111.037,84.163H74.951L56.915,52.912,74.951,21.66h36.086l18.036,31.252Zm-34.931-2h33.776l16.881-29.252L109.882,23.66H76.106L59.225,52.912Z" transform="translate(20.46 7.808)" fill="#f7931e" opacity="0.29"/><path d="M149.73,61.62H113.645L95.6,30.368,113.645-.87H149.73l18.036,31.238Zm-34.931-2h33.776l16.881-29.252L148.575,1.13H114.8L97.9,30.368Z" transform="translate(34.088 -0.13)" fill="#f7931e" opacity="0.29"/><path d="M.068-1A1.069,1.069,0,0,1,1.135.068,1.069,1.069,0,0,1,.068,1.135,1.069,1.069,0,0,1-1,.068,1.069,1.069,0,0,1,.068-1Z" transform="translate(130.527 151.488)" fill="#f7931e"/><path d="M.068-1A1.069,1.069,0,0,1,1.135.068,1.069,1.069,0,0,1,.068,1.135,1.069,1.069,0,0,1-1,.068,1.069,1.069,0,0,1,.068-1Z" transform="translate(95.88 151.596)" fill="#f7931e"/><path d="M.068-1A1.069,1.069,0,0,1,1.135.068,1.069,1.069,0,0,1,.068,1.135,1.069,1.069,0,0,1-1,.068,1.069,1.069,0,0,1,.068-1Z" transform="translate(78.516 181.591)" fill="#f7931e"/><path d="M.068-1A1.069,1.069,0,0,1,1.135.068,1.069,1.069,0,0,1,.068,1.135,1.069,1.069,0,0,1-1,.068,1.069,1.069,0,0,1,.068-1Z" transform="translate(43.978 182.064)" fill="#f7931e"/><path d="M.068-1A1.069,1.069,0,0,1,1.135.068,1.069,1.069,0,0,1,.068,1.135,1.069,1.069,0,0,1-1,.068,1.069,1.069,0,0,1,.068-1Z" transform="translate(26.113 151.596)" fill="#f7931e"/><path d="M.068-1A1.069,1.069,0,0,1,1.135.068,1.069,1.069,0,0,1,.068,1.135,1.069,1.069,0,0,1-1,.068,1.069,1.069,0,0,1,.068-1Z" transform="translate(43.626 121.574)" fill="#f7931e"/><path d="M.068-1A1.069,1.069,0,0,1,1.135.068,1.069,1.069,0,0,1,.068,1.135,1.069,1.069,0,0,1-1,.068,1.069,1.069,0,0,1,.068-1Z" transform="translate(26.086 91.106)" fill="#f7931e"/><path d="M.068-1A1.069,1.069,0,0,1,1.135.068,1.069,1.069,0,0,1,.068,1.135,1.069,1.069,0,0,1-1,.068,1.069,1.069,0,0,1,.068-1Z" transform="translate(78.516 121.345)" fill="#f7931e"/><path d="M.068-1A1.069,1.069,0,0,1,1.135.068,1.069,1.069,0,0,1,.068,1.135,1.069,1.069,0,0,1-1,.068,1.069,1.069,0,0,1,.068-1Z" transform="translate(78.151 104.319)" fill="#f7931e"/><path d="M.068-1A1.069,1.069,0,0,1,1.135.068,1.069,1.069,0,0,1,.068,1.135,1.069,1.069,0,0,1-1,.068,1.069,1.069,0,0,1,.068-1Z" transform="translate(95.894 90.89)" fill="#f7931e"/><path d="M.068-1A1.069,1.069,0,0,1,1.135.068,1.069,1.069,0,0,1,.068,1.135,1.069,1.069,0,0,1-1,.068,1.069,1.069,0,0,1,.068-1Z" transform="translate(103.507 104.035)" fill="#f7931e"/><path d="M.068-1A1.069,1.069,0,0,1,1.135.068,1.069,1.069,0,0,1,.068,1.135,1.069,1.069,0,0,1-1,.068,1.069,1.069,0,0,1,.068-1Z" transform="translate(115.841 82.019)" fill="#f7931e"/><path d="M.068-1A1.069,1.069,0,0,1,1.135.068,1.069,1.069,0,0,1,.068,1.135,1.069,1.069,0,0,1-1,.068,1.069,1.069,0,0,1,.068-1Z" transform="translate(140.358 82.37)" fill="#f7931e"/><path d="M.068-1A1.069,1.069,0,0,1,1.135.068,1.069,1.069,0,0,1,.068,1.135,1.069,1.069,0,0,1-1,.068,1.069,1.069,0,0,1,.068-1Z" transform="translate(153.246 104.102)" fill="#f7931e"/><path d="M.068-1A1.069,1.069,0,0,1,1.135.068,1.069,1.069,0,0,1,.068,1.135,1.069,1.069,0,0,1-1,.068,1.069,1.069,0,0,1,.068-1Z" transform="translate(130.527 90.89)" fill="#f7931e"/><path d="M.068-1A1.069,1.069,0,0,1,1.135.068,1.069,1.069,0,0,1,.068,1.135,1.069,1.069,0,0,1-1,.068,1.069,1.069,0,0,1,.068-1Z" transform="translate(147.972 60.422)" fill="#f7931e"/><path d="M.068-1A1.069,1.069,0,0,1,1.135.068,1.069,1.069,0,0,1,.068,1.135,1.069,1.069,0,0,1-1,.068,1.069,1.069,0,0,1,.068-1Z" transform="translate(153.3 60.49)" fill="#f7931e"/><path d="M.068-1A1.069,1.069,0,0,1,1.135.068,1.069,1.069,0,0,1,.068,1.135,1.069,1.069,0,0,1-1,.068,1.069,1.069,0,0,1,.068-1Z" transform="translate(178.034 60.422)" fill="#f7931e"/><path d="M.068-1A1.069,1.069,0,0,1,1.135.068,1.069,1.069,0,0,1,.068,1.135,1.069,1.069,0,0,1-1,.068,1.069,1.069,0,0,1,.068-1Z" transform="translate(183.227 60.422)" fill="#f7931e"/><path d="M.068-1A1.069,1.069,0,0,1,1.135.068,1.069,1.069,0,0,1,.068,1.135,1.069,1.069,0,0,1-1,.068,1.069,1.069,0,0,1,.068-1Z" transform="translate(190.881 82.749)" fill="#f7931e"/><path d="M.068-1A1.069,1.069,0,0,1,1.135.068,1.069,1.069,0,0,1,.068,1.135,1.069,1.069,0,0,1-1,.068,1.069,1.069,0,0,1,.068-1Z" transform="translate(141.21 38.271)" fill="#f7931e"/><path d="M.068-1A1.069,1.069,0,0,1,1.135.068,1.069,1.069,0,0,1,.068,1.135,1.069,1.069,0,0,1-1,.068,1.069,1.069,0,0,1,.068-1Z" transform="translate(130.987 30.198)" fill="#f7931e"/><path d="M.068-1A1.069,1.069,0,0,1,1.135.068,1.069,1.069,0,0,1,.068,1.135,1.069,1.069,0,0,1-1,.068,1.069,1.069,0,0,1,.068-1Z" transform="translate(103.129 60.219)" fill="#f7931e"/><path d="M.068-1A1.069,1.069,0,0,1,1.135.068,1.069,1.069,0,0,1,.068,1.135,1.069,1.069,0,0,1-1,.068,1.069,1.069,0,0,1,.068-1Z" transform="translate(115.705 38.46)" fill="#f7931e"/><path d="M.068-1A1.069,1.069,0,0,1,1.135.068,1.069,1.069,0,0,1,.068,1.135,1.069,1.069,0,0,1-1,.068,1.069,1.069,0,0,1,.068-1Z" transform="translate(96.191 30.252)" fill="#f7931e"/><path d="M.068-1A1.069,1.069,0,0,1,1.135.068,1.069,1.069,0,0,1,.068,1.135,1.069,1.069,0,0,1-1,.068,1.069,1.069,0,0,1,.068-1Z" transform="translate(65.547 38.406)" fill="#f7931e"/><path d="M.068-1A1.069,1.069,0,0,1,1.135.068,1.069,1.069,0,0,1,.068,1.135,1.069,1.069,0,0,1-1,.068,1.069,1.069,0,0,1,.068-1Z" transform="translate(43.45 61.125)" fill="#f7931e"/><path d="M.068-1A1.069,1.069,0,0,1,1.135.068,1.069,1.069,0,0,1,.068,1.135,1.069,1.069,0,0,1-1,.068,1.069,1.069,0,0,1,.068-1Z" transform="translate(40.286 82.37)" fill="#f7931e"/><path d="M.068-1A1.069,1.069,0,0,1,1.135.068,1.069,1.069,0,0,1,.068,1.135,1.069,1.069,0,0,1-1,.068,1.069,1.069,0,0,1,.068-1Z" transform="translate(40.218 38.406)" fill="#f7931e"/><path d="M.068-1A1.069,1.069,0,0,1,1.135.068,1.069,1.069,0,0,1,.068,1.135,1.069,1.069,0,0,1-1,.068,1.069,1.069,0,0,1,.068-1Z" transform="translate(27.533 60.422)" fill="#f7931e"/><path d="M.068-1A1.069,1.069,0,0,1,1.135.068,1.069,1.069,0,0,1,.068,1.135,1.069,1.069,0,0,1-1,.068,1.069,1.069,0,0,1,.068-1Z" transform="translate(65.75 82.37)" fill="#f7931e"/><path d="M.068-1A1.069,1.069,0,0,1,1.135.068,1.069,1.069,0,0,1,.068,1.135,1.069,1.069,0,0,1-1,.068,1.069,1.069,0,0,1,.068-1Z" transform="translate(78.084 60.652)" fill="#f7931e"/><path d="M.068-1A1.069,1.069,0,0,1,1.135.068,1.069,1.069,0,0,1,.068,1.135,1.069,1.069,0,0,1-1,.068,1.069,1.069,0,0,1,.068-1Z" transform="translate(148.121 182.064)" fill="#f7931e"/><path d="M.068-1A1.069,1.069,0,0,1,1.135.068,1.069,1.069,0,0,1,.068,1.135,1.069,1.069,0,0,1-1,.068,1.069,1.069,0,0,1,.068-1Z" transform="translate(130.527 213.871)" fill="#f7931e"/><path d="M.068-1A1.069,1.069,0,0,1,1.135.068,1.069,1.069,0,0,1,.068,1.135,1.069,1.069,0,0,1-1,.068,1.069,1.069,0,0,1,.068-1Z" transform="translate(182.849 181.997)" fill="#f7931e"/><path d="M.081-1A1.082,1.082,0,0,1,1.162.081,1.082,1.082,0,0,1,.081,1.162,1.082,1.082,0,0,1-1,.081,1.082,1.082,0,0,1,.081-1Z" transform="translate(181.929 242.608)" fill="#f7931e"/><path d="M.068-1A1.069,1.069,0,0,1,1.135.068,1.069,1.069,0,0,1,.068,1.135,1.069,1.069,0,0,1-1,.068,1.069,1.069,0,0,1,.068-1Z" transform="translate(200.429 212.519)" fill="#f7931e"/><path d="M.081-1A1.082,1.082,0,0,1,1.162.081,1.082,1.082,0,0,1,.081,1.162,1.082,1.082,0,0,1-1,.081,1.082,1.082,0,0,1,.081-1Z" transform="translate(255.388 242.202)" fill="#f7931e"/><path d="M.068-1A1.069,1.069,0,0,1,1.135.068,1.069,1.069,0,0,1,.068,1.135,1.069,1.069,0,0,1-1,.068,1.069,1.069,0,0,1,.068-1Z" transform="translate(148.188 121.345)" fill="#f7931e"/><path d="M.068-1A1.069,1.069,0,0,1,1.135.068,1.069,1.069,0,0,1,.068,1.135,1.069,1.069,0,0,1-1,.068,1.069,1.069,0,0,1,.068-1Z" transform="translate(182.916 121.142)" fill="#f7931e"/><path d="M.068-1A1.069,1.069,0,0,1,1.135.068,1.069,1.069,0,0,1,.068,1.135,1.069,1.069,0,0,1-1,.068,1.069,1.069,0,0,1,.068-1Z" transform="translate(178.453 104.535)" fill="#f7931e"/><path d="M.068-1A1.069,1.069,0,0,1,1.135.068,1.069,1.069,0,0,1,.068,1.135,1.069,1.069,0,0,1-1,.068,1.069,1.069,0,0,1,.068-1Z" transform="translate(200.469 91.106)" fill="#f7931e"/><path d="M.068-1A1.069,1.069,0,0,1,1.135.068,1.069,1.069,0,0,1,.068,1.135,1.069,1.069,0,0,1-1,.068,1.069,1.069,0,0,1,.068-1Z" transform="translate(216.508 82.681)" fill="#f7931e"/><path d="M.068-1A1.069,1.069,0,0,1,1.135.068,1.069,1.069,0,0,1,.068,1.135,1.069,1.069,0,0,1-1,.068,1.069,1.069,0,0,1,.068-1Z" transform="translate(229.206 104.535)" fill="#f7931e"/><path d="M.068-1A1.069,1.069,0,0,1,1.135.068,1.069,1.069,0,0,1,.068,1.135,1.069,1.069,0,0,1-1,.068,1.069,1.069,0,0,1,.068-1Z" transform="translate(235.454 91.106)" fill="#f7931e"/><path d="M.068-1A1.069,1.069,0,0,1,1.135.068,1.069,1.069,0,0,1,.068,1.135,1.069,1.069,0,0,1-1,.068,1.069,1.069,0,0,1,.068-1Z" transform="translate(216.887 126.321)" fill="#f7931e"/><path d="M.068-1A1.069,1.069,0,0,1,1.135.068,1.069,1.069,0,0,1,.068,1.135,1.069,1.069,0,0,1-1,.068,1.069,1.069,0,0,1,.068-1Z" transform="translate(229.626 148.121)" fill="#f7931e"/><path d="M.068-1A1.069,1.069,0,0,1,1.135.068,1.069,1.069,0,0,1,.068,1.135,1.069,1.069,0,0,1-1,.068,1.069,1.069,0,0,1,.068-1Z" transform="translate(234.413 182.97)" fill="#f7931e"/><path d="M.068-1A1.069,1.069,0,0,1,1.135.068,1.069,1.069,0,0,1,.068,1.135,1.069,1.069,0,0,1-1,.068,1.069,1.069,0,0,1,.068-1Z" transform="translate(235.522 212.451)" fill="#f7931e"/><path d="M.068-1A1.069,1.069,0,0,1,1.135.068,1.069,1.069,0,0,1,.068,1.135,1.069,1.069,0,0,1-1,.068,1.069,1.069,0,0,1,.068-1Z" transform="translate(200.483 152.029)" fill="#f7931e"/><path d="M.068-1A1.069,1.069,0,0,1,1.135.068,1.069,1.069,0,0,1,.068,1.135,1.069,1.069,0,0,1-1,.068,1.069,1.069,0,0,1,.068-1Z" transform="translate(235.387 151.596)" fill="#f7931e"/><path d="M.068-1A1.069,1.069,0,0,1,1.135.068,1.069,1.069,0,0,1,.068,1.135,1.069,1.069,0,0,1-1,.068,1.069,1.069,0,0,1,.068-1Z" transform="translate(235.387 30.509)" fill="#f7931e"/><path d="M.068-1A1.069,1.069,0,0,1,1.135.068,1.069,1.069,0,0,1,.068,1.135,1.069,1.069,0,0,1-1,.068,1.069,1.069,0,0,1,.068-1Z" transform="translate(200.537 30.576)" fill="#f7931e"/><path d="M.068-1A1.069,1.069,0,0,1,1.135.068,1.069,1.069,0,0,1,.068,1.135,1.069,1.069,0,0,1-1,.068,1.069,1.069,0,0,1,.068-1Z" transform="translate(178.034 38.055)" fill="#f7931e"/><path d="M.875,32.507l-1.75-.968L16.841-.484l1.75.968Z" transform="translate(130.595 181.915)" fill="#f7931e"/><path d="M.852,30.842-.852,29.8,17.756-.523,19.46.523Z" transform="translate(182.01 212.37)" fill="#f7931e"/><path d="M19.453,30.929-.832.555.832-.555,21.117,29.818Z" transform="translate(235.643 212.613)" fill="#f7931e"/><path d="M26.181,1H0V-1H26.181Z" transform="translate(0 151.664)" fill="#f7931e"/><path d="M26.142,1.324-.012,1,.012-1l26.154.325Z" transform="translate(0 90.85)" fill="#f7931e"/><path d="M27.594,1.2-.007,1,.007-1l27.6.2Z" transform="translate(0 60.287)" fill="#f7931e"/><path d="M.861,35.332-.861,34.313,19.735-.509,21.457.509Z" transform="translate(234.237 148.337)" fill="#f7931e"/><path d="M16.27,28.195-.85.526.85-.526l17.12,27.669Z" transform="translate(23.152 10.873)" fill="#f7931e"/><path d="M.894,28.414l-1.788-.9L13.13-.448l1.788.9Z" transform="translate(65.615 10.575)" fill="#f7931e"/><path d="M.006,1.216l-.012-2L37.589-1,37.6,1Z" transform="translate(140.926 38.122)" fill="#f7931e"/></g></g><g transform="translate(4053.991 -156.987)"><path d="M72.327,151.413H36.241L18.205,120.162,36.241,88.91H72.327l18.036,31.252Zm-34.931-2H71.172l16.881-29.252L71.172,90.91H37.4L20.515,120.162Z" transform="translate(152.115 31.502)" fill="#f7931e" opacity="0.47"/><path d="M72.307,106.68H36.235L18.185,75.428,36.235,44.19H72.306l18.05,31.238Zm-34.917-2H71.152L88.046,75.428,71.152,46.19H37.389L20.495,75.428Z" transform="translate(152.149 15.746)" fill="#f7931e" opacity="0.47"/><path d="M59,73.527H32.5L19.255,50.578,32.5,27.63H59L72.25,50.578Zm-25.343-2H57.847L69.941,50.578,57.847,29.63H33.659L21.565,50.578Z" transform="translate(168.808 9.911)" fill="#f7931e" opacity="0.47"/><path d="M86.771,89.757h-26.5L47.025,66.808,60.274,43.86h26.5L100.02,66.808Zm-25.343-2H85.617L97.711,66.808,85.617,45.86H61.429L49.335,66.808Z" transform="translate(103.484 15.63)" fill="#f7931e" opacity="0.47"/><path d="M142.431,89.757h-26.5L102.685,66.808,115.934,43.86h26.5L155.68,66.808Zm-25.343-2h24.188l12.094-20.948L141.277,45.86H117.089L104.995,66.808Z" transform="translate(-27.447 15.63)" fill="#f7931e" opacity="0.47"/><path d="M170.781,106.147h-26.5L131.035,83.2,144.284,60.25h26.5L184.03,83.2Zm-25.343-2h24.188L181.721,83.2,169.627,62.25H145.439L133.345,83.2Z" transform="translate(-94.135 21.404)" fill="#f7931e" opacity="0.47"/><path d="M198.921,122.257h-26.5L159.175,99.308,172.424,76.36h26.5L212.17,99.308Zm-25.343-2h24.188l12.094-20.948L197.767,78.36H173.579L161.485,99.308Z" transform="translate(-160.33 27.08)" fill="#f7931e" opacity="0.47"/><path d="M114.691,73.377h-26.5L74.945,50.428,88.194,27.48h26.5L127.94,50.428Zm-25.343-2h24.188l12.094-20.948L113.537,29.48H89.349L77.255,50.428Z" transform="translate(37.807 9.859)" fill="#f7931e" opacity="0.47"/><path d="M111.037,129.043H74.951L56.915,97.792,74.951,66.54h36.086l18.036,31.252Zm-34.931-2h33.776l16.881-29.252L109.882,68.54H76.106L59.225,97.792Z" transform="translate(61.057 23.621)" fill="#f7931e" opacity="0.47"/><path d="M149.717,151.413H113.631L95.6,120.162,113.631,88.91h36.085l18.05,31.252Zm-34.93-2h33.776l16.895-29.252L148.562,90.91H114.786L97.9,120.162Z" transform="translate(-29.945 31.502)" fill="#f7931e" opacity="0.47"/><path d="M188.407,173.93H152.321l-18.036-31.238,18.036-31.252h36.086l18.036,31.252Zm-34.931-2h33.776l16.881-29.238L187.252,113.44H153.476l-16.881,29.251Z" transform="translate(-120.943 39.44)" fill="#f7931e" opacity="0.32"/><path d="M188.407,129.2H152.321L134.285,97.962,152.321,66.71h36.086l18.036,31.252Zm-34.931-2h33.776l16.881-29.238L187.252,68.71H153.476L136.595,97.962Z" transform="translate(-120.943 23.68)" fill="#f7931e" opacity="0.32"/><path d="M188.407,84.163H152.321L134.285,52.912,152.321,21.66h36.086l18.036,31.252Zm-34.931-2h33.776l16.882-29.252L187.252,23.66H153.476L136.595,52.912Z" transform="translate(-120.943 7.808)" fill="#f7931e" opacity="0.29"/><path d="M149.716,106.51H113.631L95.6,75.272,113.631,44.02h36.085l18.05,31.252Zm-34.93-2h33.776l16.894-29.238L148.562,46.02H114.786L97.9,75.271Z" transform="translate(-29.945 15.686)" fill="#f7931e" opacity="0.32"/><path d="M111.037,84.163H74.951L56.915,52.912,74.951,21.66h36.086l18.036,31.252Zm-34.931-2h33.776l16.881-29.252L109.882,23.66H76.106L59.225,52.912Z" transform="translate(61.057 7.808)" fill="#f7931e" opacity="0.29"/><path d="M149.717,61.62H113.631L95.6,30.368,113.631-.87h36.085l18.05,31.238Zm-34.93-2h33.776l16.894-29.252L148.562,1.13H114.786L97.9,30.368Z" transform="translate(-29.945 -0.13)" fill="#f7931e" opacity="0.29"/><path d="M.068-1A1.069,1.069,0,0,1,1.135.068,1.069,1.069,0,0,1,.068,1.135,1.069,1.069,0,0,1-1,.068,1.069,1.069,0,0,1,.068-1Z" transform="translate(136.842 151.488)" fill="#f7931e"/><path d="M.068-1A1.069,1.069,0,0,1,1.135.068,1.069,1.069,0,0,1,.068,1.135,1.069,1.069,0,0,1-1,.068,1.069,1.069,0,0,1,.068-1Z" transform="translate(171.489 151.596)" fill="#f7931e"/><path d="M.068-1A1.069,1.069,0,0,1,1.135.068,1.069,1.069,0,0,1,.068,1.135,1.069,1.069,0,0,1-1,.068,1.069,1.069,0,0,1,.068-1Z" transform="translate(188.853 181.591)" fill="#f7931e"/><path d="M.068-1A1.069,1.069,0,0,1,1.135.068,1.069,1.069,0,0,1,.068,1.135,1.069,1.069,0,0,1-1,.068,1.069,1.069,0,0,1,.068-1Z" transform="translate(223.391 182.064)" fill="#f7931e"/><path d="M.068-1A1.069,1.069,0,0,1,1.135.068,1.069,1.069,0,0,1,.068,1.135,1.069,1.069,0,0,1-1,.068,1.069,1.069,0,0,1,.068-1Z" transform="translate(241.256 151.596)" fill="#f7931e"/><path d="M.068-1A1.069,1.069,0,0,1,1.135.068,1.069,1.069,0,0,1,.068,1.135,1.069,1.069,0,0,1-1,.068,1.069,1.069,0,0,1,.068-1Z" transform="translate(223.743 121.574)" fill="#f7931e"/><path d="M.068-1A1.069,1.069,0,0,1,1.135.068,1.069,1.069,0,0,1,.068,1.135,1.069,1.069,0,0,1-1,.068,1.069,1.069,0,0,1,.068-1Z" transform="translate(241.283 91.106)" fill="#f7931e"/><path d="M.068-1A1.069,1.069,0,0,1,1.135.068,1.069,1.069,0,0,1,.068,1.135,1.069,1.069,0,0,1-1,.068,1.069,1.069,0,0,1,.068-1Z" transform="translate(188.853 121.345)" fill="#f7931e"/><path d="M.068-1A1.069,1.069,0,0,1,1.135.068,1.069,1.069,0,0,1,.068,1.135,1.069,1.069,0,0,1-1,.068,1.069,1.069,0,0,1,.068-1Z" transform="translate(189.218 104.319)" fill="#f7931e"/><path d="M.068-1A1.069,1.069,0,0,1,1.135.068,1.069,1.069,0,0,1,.068,1.135,1.069,1.069,0,0,1-1,.068,1.069,1.069,0,0,1,.068-1Z" transform="translate(171.475 90.89)" fill="#f7931e"/><path d="M.068-1A1.069,1.069,0,0,1,1.135.068,1.069,1.069,0,0,1,.068,1.135,1.069,1.069,0,0,1-1,.068,1.069,1.069,0,0,1,.068-1Z" transform="translate(163.862 104.035)" fill="#f7931e"/><path d="M.068-1A1.069,1.069,0,0,1,1.135.068,1.069,1.069,0,0,1,.068,1.135,1.069,1.069,0,0,1-1,.068,1.069,1.069,0,0,1,.068-1Z" transform="translate(151.529 82.019)" fill="#f7931e"/><path d="M.068-1A1.069,1.069,0,0,1,1.135.068,1.069,1.069,0,0,1,.068,1.135,1.069,1.069,0,0,1-1,.068,1.069,1.069,0,0,1,.068-1Z" transform="translate(127.011 82.37)" fill="#f7931e"/><path d="M.068-1A1.069,1.069,0,0,1,1.135.068,1.069,1.069,0,0,1,.068,1.135,1.069,1.069,0,0,1-1,.068,1.069,1.069,0,0,1,.068-1Z" transform="translate(114.123 104.102)" fill="#f7931e"/><path d="M.068-1A1.069,1.069,0,0,1,1.135.068,1.069,1.069,0,0,1,.068,1.135,1.069,1.069,0,0,1-1,.068,1.069,1.069,0,0,1,.068-1Z" transform="translate(136.842 90.89)" fill="#f7931e"/><path d="M.068-1A1.069,1.069,0,0,1,1.135.068,1.069,1.069,0,0,1,.068,1.135,1.069,1.069,0,0,1-1,.068,1.069,1.069,0,0,1,.068-1Z" transform="translate(119.397 60.422)" fill="#f7931e"/><path d="M.068-1A1.069,1.069,0,0,1,1.135.068,1.069,1.069,0,0,1,.068,1.135,1.069,1.069,0,0,1-1,.068,1.069,1.069,0,0,1,.068-1Z" transform="translate(114.069 60.49)" fill="#f7931e"/><path d="M.068-1A1.069,1.069,0,0,1,1.135.068,1.069,1.069,0,0,1,.068,1.135,1.069,1.069,0,0,1-1,.068,1.069,1.069,0,0,1,.068-1Z" transform="translate(89.335 60.422)" fill="#f7931e"/><path d="M.068-1A1.069,1.069,0,0,1,1.135.068,1.069,1.069,0,0,1,.068,1.135,1.069,1.069,0,0,1-1,.068,1.069,1.069,0,0,1,.068-1Z" transform="translate(84.142 60.422)" fill="#f7931e"/><path d="M.068-1A1.069,1.069,0,0,1,1.135.068,1.069,1.069,0,0,1,.068,1.135,1.069,1.069,0,0,1-1,.068,1.069,1.069,0,0,1,.068-1Z" transform="translate(76.488 82.749)" fill="#f7931e"/><path d="M.068-1A1.069,1.069,0,0,1,1.135.068,1.069,1.069,0,0,1,.068,1.135,1.069,1.069,0,0,1-1,.068,1.069,1.069,0,0,1,.068-1Z" transform="translate(126.159 38.271)" fill="#f7931e"/><path d="M.068-1A1.069,1.069,0,0,1,1.135.068,1.069,1.069,0,0,1,.068,1.135,1.069,1.069,0,0,1-1,.068,1.069,1.069,0,0,1,.068-1Z" transform="translate(136.382 30.198)" fill="#f7931e"/><path d="M.068-1A1.069,1.069,0,0,1,1.135.068,1.069,1.069,0,0,1,.068,1.135,1.069,1.069,0,0,1-1,.068,1.069,1.069,0,0,1,.068-1Z" transform="translate(164.24 60.219)" fill="#f7931e"/><path d="M.068-1A1.069,1.069,0,0,1,1.135.068,1.069,1.069,0,0,1,.068,1.135,1.069,1.069,0,0,1-1,.068,1.069,1.069,0,0,1,.068-1Z" transform="translate(151.664 38.46)" fill="#f7931e"/><path d="M.068-1A1.069,1.069,0,0,1,1.135.068,1.069,1.069,0,0,1,.068,1.135,1.069,1.069,0,0,1-1,.068,1.069,1.069,0,0,1,.068-1Z" transform="translate(171.178 30.252)" fill="#f7931e"/><path d="M.068-1A1.069,1.069,0,0,1,1.135.068,1.069,1.069,0,0,1,.068,1.135,1.069,1.069,0,0,1-1,.068,1.069,1.069,0,0,1,.068-1Z" transform="translate(201.822 38.406)" fill="#f7931e"/><path d="M.068-1A1.069,1.069,0,0,1,1.135.068,1.069,1.069,0,0,1,.068,1.135,1.069,1.069,0,0,1-1,.068,1.069,1.069,0,0,1,.068-1Z" transform="translate(223.919 61.125)" fill="#f7931e"/><path d="M.068-1A1.069,1.069,0,0,1,1.135.068,1.069,1.069,0,0,1,.068,1.135,1.069,1.069,0,0,1-1,.068,1.069,1.069,0,0,1,.068-1Z" transform="translate(227.083 82.37)" fill="#f7931e"/><path d="M.068-1A1.069,1.069,0,0,1,1.135.068,1.069,1.069,0,0,1,.068,1.135,1.069,1.069,0,0,1-1,.068,1.069,1.069,0,0,1,.068-1Z" transform="translate(227.151 38.406)" fill="#f7931e"/><path d="M.068-1A1.069,1.069,0,0,1,1.135.068,1.069,1.069,0,0,1,.068,1.135,1.069,1.069,0,0,1-1,.068,1.069,1.069,0,0,1,.068-1Z" transform="translate(239.836 60.422)" fill="#f7931e"/><path d="M.068-1A1.069,1.069,0,0,1,1.135.068,1.069,1.069,0,0,1,.068,1.135,1.069,1.069,0,0,1-1,.068,1.069,1.069,0,0,1,.068-1Z" transform="translate(201.619 82.37)" fill="#f7931e"/><path d="M.068-1A1.069,1.069,0,0,1,1.135.068,1.069,1.069,0,0,1,.068,1.135,1.069,1.069,0,0,1-1,.068,1.069,1.069,0,0,1,.068-1Z" transform="translate(189.286 60.652)" fill="#f7931e"/><path d="M.068-1A1.069,1.069,0,0,1,1.135.068,1.069,1.069,0,0,1,.068,1.135,1.069,1.069,0,0,1-1,.068,1.069,1.069,0,0,1,.068-1Z" transform="translate(119.248 182.064)" fill="#f7931e"/><path d="M.068-1A1.069,1.069,0,0,1,1.135.068,1.069,1.069,0,0,1,.068,1.135,1.069,1.069,0,0,1-1,.068,1.069,1.069,0,0,1,.068-1Z" transform="translate(136.842 213.871)" fill="#f7931e"/><path d="M.068-1A1.069,1.069,0,0,1,1.135.068,1.069,1.069,0,0,1,.068,1.135,1.069,1.069,0,0,1-1,.068,1.069,1.069,0,0,1,.068-1Z" transform="translate(84.521 181.997)" fill="#f7931e"/><path d="M.081-1A1.082,1.082,0,0,1,1.162.081,1.082,1.082,0,0,1,.081,1.162,1.082,1.082,0,0,1-1,.081,1.082,1.082,0,0,1,.081-1Z" transform="translate(85.413 242.608)" fill="#f7931e"/><path d="M.068-1A1.069,1.069,0,0,1,1.135.068,1.069,1.069,0,0,1,.068,1.135,1.069,1.069,0,0,1-1,.068,1.069,1.069,0,0,1,.068-1Z" transform="translate(66.94 212.519)" fill="#f7931e"/><path d="M.081-1A1.082,1.082,0,0,1,1.162.081,1.082,1.082,0,0,1,.081,1.162,1.082,1.082,0,0,1-1,.081,1.082,1.082,0,0,1,.081-1Z" transform="translate(11.955 242.202)" fill="#f7931e"/><path d="M.068-1A1.069,1.069,0,0,1,1.135.068,1.069,1.069,0,0,1,.068,1.135,1.069,1.069,0,0,1-1,.068,1.069,1.069,0,0,1,.068-1Z" transform="translate(119.181 121.345)" fill="#f7931e"/><path d="M.068-1A1.069,1.069,0,0,1,1.135.068,1.069,1.069,0,0,1,.068,1.135,1.069,1.069,0,0,1-1,.068,1.069,1.069,0,0,1,.068-1Z" transform="translate(84.453 121.142)" fill="#f7931e"/><path d="M.068-1A1.069,1.069,0,0,1,1.135.068,1.069,1.069,0,0,1,.068,1.135,1.069,1.069,0,0,1-1,.068,1.069,1.069,0,0,1,.068-1Z" transform="translate(88.916 104.535)" fill="#f7931e"/><path d="M.068-1A1.069,1.069,0,0,1,1.135.068,1.069,1.069,0,0,1,.068,1.135,1.069,1.069,0,0,1-1,.068,1.069,1.069,0,0,1,.068-1Z" transform="translate(66.9 91.106)" fill="#f7931e"/><path d="M.068-1A1.069,1.069,0,0,1,1.135.068,1.069,1.069,0,0,1,.068,1.135,1.069,1.069,0,0,1-1,.068,1.069,1.069,0,0,1,.068-1Z" transform="translate(50.861 82.681)" fill="#f7931e"/><path d="M.068-1A1.069,1.069,0,0,1,1.135.068,1.069,1.069,0,0,1,.068,1.135,1.069,1.069,0,0,1-1,.068,1.069,1.069,0,0,1,.068-1Z" transform="translate(38.163 104.535)" fill="#f7931e"/><path d="M.068-1A1.069,1.069,0,0,1,1.135.068,1.069,1.069,0,0,1,.068,1.135,1.069,1.069,0,0,1-1,.068,1.069,1.069,0,0,1,.068-1Z" transform="translate(31.915 91.106)" fill="#f7931e"/><path d="M.068-1A1.069,1.069,0,0,1,1.135.068,1.069,1.069,0,0,1,.068,1.135,1.069,1.069,0,0,1-1,.068,1.069,1.069,0,0,1,.068-1Z" transform="translate(50.482 126.321)" fill="#f7931e"/><path d="M.068-1A1.069,1.069,0,0,1,1.135.068,1.069,1.069,0,0,1,.068,1.135,1.069,1.069,0,0,1-1,.068,1.069,1.069,0,0,1,.068-1Z" transform="translate(37.744 148.121)" fill="#f7931e"/><path d="M.068-1A1.069,1.069,0,0,1,1.135.068,1.069,1.069,0,0,1,.068,1.135,1.069,1.069,0,0,1-1,.068,1.069,1.069,0,0,1,.068-1Z" transform="translate(32.956 182.97)" fill="#f7931e"/><path d="M.068-1A1.069,1.069,0,0,1,1.135.068,1.069,1.069,0,0,1,.068,1.135,1.069,1.069,0,0,1-1,.068,1.069,1.069,0,0,1,.068-1Z" transform="translate(31.847 212.451)" fill="#f7931e"/><path d="M.068-1A1.069,1.069,0,0,1,1.135.068,1.069,1.069,0,0,1,.068,1.135,1.069,1.069,0,0,1-1,.068,1.069,1.069,0,0,1,.068-1Z" transform="translate(66.886 152.029)" fill="#f7931e"/><path d="M.068-1A1.069,1.069,0,0,1,1.135.068,1.069,1.069,0,0,1,.068,1.135,1.069,1.069,0,0,1-1,.068,1.069,1.069,0,0,1,.068-1Z" transform="translate(31.983 151.596)" fill="#f7931e"/><path d="M.068-1A1.069,1.069,0,0,1,1.135.068,1.069,1.069,0,0,1,.068,1.135,1.069,1.069,0,0,1-1,.068,1.069,1.069,0,0,1,.068-1Z" transform="translate(31.983 30.509)" fill="#f7931e"/><path d="M.068-1A1.069,1.069,0,0,1,1.135.068,1.069,1.069,0,0,1,.068,1.135,1.069,1.069,0,0,1-1,.068,1.069,1.069,0,0,1,.068-1Z" transform="translate(66.832 30.576)" fill="#f7931e"/><path d="M.068-1A1.069,1.069,0,0,1,1.135.068,1.069,1.069,0,0,1,.068,1.135,1.069,1.069,0,0,1-1,.068,1.069,1.069,0,0,1,.068-1Z" transform="translate(89.335 38.055)" fill="#f7931e"/><path d="M16.841,32.507-.875.484.875-.484,18.591,31.539Z" transform="translate(119.194 181.915)" fill="#f7931e"/><path d="M17.756,30.842-.852.523.852-.523,19.46,29.8Z" transform="translate(66.886 212.37)" fill="#f7931e"/><path d="M.832,30.929-.832,29.818,19.453-.555,21.117.555Z" transform="translate(11.576 212.613)" fill="#f7931e"/><path d="M26.181,1H0V-1H26.181Z" transform="translate(241.323 151.664)" fill="#f7931e"/><path d="M.012,1.324l-.025-2L26.142-1l.025,2Z" transform="translate(241.35 90.85)" fill="#f7931e"/><path d="M.007,1.2l-.015-2,27.6-.2.015,2Z" transform="translate(239.903 60.287)" fill="#f7931e"/><path d="M19.735,35.332-.861.509.861-.509l20.6,34.823Z" transform="translate(12.671 148.337)" fill="#f7931e"/><path d="M.85,28.195l-1.7-1.052L16.27-.526l1.7,1.052Z" transform="translate(227.232 10.873)" fill="#f7931e"/><path d="M13.13,28.414-.894.448l1.788-.9L14.918,27.518Z" transform="translate(187.866 10.575)" fill="#f7931e"/><path d="M37.589,1.216-.006,1,.006-1,37.6-.784Z" transform="translate(88.983 38.122)" fill="#f7931e"/></g><g transform="translate(4053.991 268.507)"><path d="M36.241,88.91H72.327l18.036,31.252L72.327,151.413H36.241L18.205,120.162Zm34.931,2H37.4L20.515,120.162,37.4,149.413H71.172l16.881-29.252Z" transform="translate(152.115 -28.839)" fill="#f7931e" opacity="0.47"/><path d="M36.235,44.19H72.307l18.05,31.252L72.306,106.68H36.235L18.185,75.442Zm34.917,2H37.389L20.495,75.441,37.389,104.68H71.152L88.046,75.441Z" transform="translate(152.149 76.371)" fill="#f7931e" opacity="0.47"/><path d="M32.5,27.63H59L72.25,50.578,59,73.527H32.5L19.255,50.578Zm25.343,2H33.659L21.565,50.578,33.659,71.527H57.847L69.941,50.578Z" transform="translate(168.808 131.919)" fill="#f7931e" opacity="0.47"/><path d="M60.274,43.86h26.5L100.02,66.808,86.771,89.757h-26.5L47.025,66.808Zm25.343,2H61.429L49.335,66.808,61.429,87.757H85.617L97.711,66.808Z" transform="translate(103.484 93.74)" fill="#f7931e" opacity="0.47"/><path d="M115.934,43.86h26.5L155.68,66.808,142.431,89.757h-26.5L102.685,66.808Zm25.343,2H117.089L104.995,66.808l12.094,20.948h24.188l12.094-20.948Z" transform="translate(-27.447 93.74)" fill="#f7931e" opacity="0.47"/><path d="M144.284,60.25h26.5L184.03,83.2l-13.249,22.948h-26.5L131.035,83.2Zm25.343,2H145.439L133.345,83.2l12.094,20.948h24.188L181.721,83.2Z" transform="translate(-94.135 55.186)" fill="#f7931e" opacity="0.47"/><path d="M172.424,76.36h26.5L212.17,99.308l-13.249,22.948h-26.5L159.175,99.308Zm25.343,2H173.579L161.485,99.308l12.094,20.948h24.188l12.094-20.948Z" transform="translate(-160.33 17.29)" fill="#f7931e" opacity="0.47"/><path d="M88.194,27.48h26.5L127.94,50.428,114.691,73.377h-26.5L74.945,50.428Zm25.343,2H89.349L77.255,50.428,89.349,71.377h24.188l12.094-20.948Z" transform="translate(37.807 132.271)" fill="#f7931e" opacity="0.47"/><path d="M74.951,66.54h36.086l18.036,31.252-18.036,31.252H74.951L56.915,97.792Zm34.931,2H76.106L59.225,97.792l16.881,29.252h33.776l16.881-29.252Z" transform="translate(61.057 23.783)" fill="#f7931e" opacity="0.47"/><path d="M113.631,88.91h36.085l18.05,31.252-18.05,31.252H113.631L95.6,120.162Zm34.931,2H114.786L97.9,120.162l16.881,29.252h33.776l16.895-29.252Z" transform="translate(-29.945 -28.839)" fill="#f7931e" opacity="0.47"/><path d="M152.321,111.44h36.085l18.036,31.238L188.407,173.93H152.321l-18.036-31.252Zm34.931,2H153.476l-16.881,29.238,16.881,29.251h33.776l16.881-29.251Z" transform="translate(-120.943 -81.823)" fill="#f7931e" opacity="0.32"/><path d="M152.321,66.71h36.085l18.036,31.238L188.407,129.2H152.321L134.285,97.948Zm34.931,2H153.476L136.595,97.948,153.476,127.2h33.776l16.881-29.252Z" transform="translate(-120.943 23.396)" fill="#f7931e" opacity="0.32"/><path d="M152.321,21.66h36.086l18.036,31.252L188.407,84.163H152.321L134.285,52.912Zm34.931,2H153.476L136.595,52.912l16.881,29.252h33.776l16.882-29.252Z" transform="translate(-120.943 129.355)" fill="#f7931e" opacity="0.29"/><path d="M113.631,44.02h36.085l18.05,31.238-18.05,31.252H113.631L95.6,75.258Zm34.931,2H114.786L97.9,75.258l16.881,29.252h33.776l16.894-29.252Z" transform="translate(-29.945 76.771)" fill="#f7931e" opacity="0.32"/><path d="M74.951,21.66h36.086l18.036,31.252L111.037,84.163H74.951L56.915,52.912Zm34.931,2H76.106L59.225,52.912,76.106,82.163h33.776l16.881-29.252Z" transform="translate(61.057 129.355)" fill="#f7931e" opacity="0.29"/><path d="M113.631-.87h36.085l18.05,31.252L149.716,61.62H113.631L95.6,30.382Zm34.931,2H114.786L97.9,30.382,114.786,59.62h33.776l16.894-29.238Z" transform="translate(-29.945 182.367)" fill="#f7931e" opacity="0.29"/><path d="M.068-1A1.069,1.069,0,0,1,1.135.068,1.069,1.069,0,0,1,.068,1.135,1.069,1.069,0,0,1-1,.068,1.069,1.069,0,0,1,.068-1Z" transform="translate(136.842 91.363)" fill="#f7931e"/><path d="M.068-1A1.069,1.069,0,0,1,1.135.068,1.069,1.069,0,0,1,.068,1.135,1.069,1.069,0,0,1-1,.068,1.069,1.069,0,0,1,.068-1Z" transform="translate(171.489 91.255)" fill="#f7931e"/><path d="M.068-1A1.069,1.069,0,0,1,1.135.068,1.069,1.069,0,0,1,.068,1.135,1.069,1.069,0,0,1-1,.068,1.069,1.069,0,0,1,.068-1Z" transform="translate(188.853 61.261)" fill="#f7931e"/><path d="M.068-1A1.069,1.069,0,0,1,1.135.068,1.069,1.069,0,0,1,.068,1.135,1.069,1.069,0,0,1-1,.068,1.069,1.069,0,0,1,.068-1Z" transform="translate(223.391 60.787)" fill="#f7931e"/><path d="M.068-1A1.069,1.069,0,0,1,1.135.068,1.069,1.069,0,0,1,.068,1.135,1.069,1.069,0,0,1-1,.068,1.069,1.069,0,0,1,.068-1Z" transform="translate(241.256 91.255)" fill="#f7931e"/><path d="M.068-1A1.069,1.069,0,0,1,1.135.068,1.069,1.069,0,0,1,.068,1.135,1.069,1.069,0,0,1-1,.068,1.069,1.069,0,0,1,.068-1Z" transform="translate(223.743 121.277)" fill="#f7931e"/><path d="M.068-1A1.069,1.069,0,0,1,1.135.068,1.069,1.069,0,0,1,.068,1.135,1.069,1.069,0,0,1-1,.068,1.069,1.069,0,0,1,.068-1Z" transform="translate(241.283 151.745)" fill="#f7931e"/><path d="M.068-1A1.069,1.069,0,0,1,1.135.068,1.069,1.069,0,0,1,.068,1.135,1.069,1.069,0,0,1-1,.068,1.069,1.069,0,0,1,.068-1Z" transform="translate(188.853 121.507)" fill="#f7931e"/><path d="M.068-1A1.069,1.069,0,0,1,1.135.068,1.069,1.069,0,0,1,.068,1.135,1.069,1.069,0,0,1-1,.068,1.069,1.069,0,0,1,.068-1Z" transform="translate(189.218 138.533)" fill="#f7931e"/><path d="M.068-1A1.069,1.069,0,0,1,1.135.068,1.069,1.069,0,0,1,.068,1.135,1.069,1.069,0,0,1-1,.068,1.069,1.069,0,0,1,.068-1Z" transform="translate(171.475 151.961)" fill="#f7931e"/><path d="M.068-1A1.069,1.069,0,0,1,1.135.068,1.069,1.069,0,0,1,.068,1.135,1.069,1.069,0,0,1-1,.068,1.069,1.069,0,0,1,.068-1Z" transform="translate(163.862 138.817)" fill="#f7931e"/><path d="M.068-1A1.069,1.069,0,0,1,1.135.068,1.069,1.069,0,0,1,.068,1.135,1.069,1.069,0,0,1-1,.068,1.069,1.069,0,0,1,.068-1Z" transform="translate(151.529 160.833)" fill="#f7931e"/><path d="M.068-1A1.069,1.069,0,0,1,1.135.068,1.069,1.069,0,0,1,.068,1.135,1.069,1.069,0,0,1-1,.068,1.069,1.069,0,0,1,.068-1Z" transform="translate(127.011 160.481)" fill="#f7931e"/><path d="M.068-1A1.069,1.069,0,0,1,1.135.068,1.069,1.069,0,0,1,.068,1.135,1.069,1.069,0,0,1-1,.068,1.069,1.069,0,0,1,.068-1Z" transform="translate(114.123 138.749)" fill="#f7931e"/><path d="M.068-1A1.069,1.069,0,0,1,1.135.068,1.069,1.069,0,0,1,.068,1.135,1.069,1.069,0,0,1-1,.068,1.069,1.069,0,0,1,.068-1Z" transform="translate(136.842 151.961)" fill="#f7931e"/><path d="M.068-1A1.069,1.069,0,0,1,1.135.068,1.069,1.069,0,0,1,.068,1.135,1.069,1.069,0,0,1-1,.068,1.069,1.069,0,0,1,.068-1Z" transform="translate(119.397 182.429)" fill="#f7931e"/><path d="M.068-1A1.069,1.069,0,0,1,1.135.068,1.069,1.069,0,0,1,.068,1.135,1.069,1.069,0,0,1-1,.068,1.069,1.069,0,0,1,.068-1Z" transform="translate(114.069 182.362)" fill="#f7931e"/><path d="M.068-1A1.069,1.069,0,0,1,1.135.068,1.069,1.069,0,0,1,.068,1.135,1.069,1.069,0,0,1-1,.068,1.069,1.069,0,0,1,.068-1Z" transform="translate(89.335 182.429)" fill="#f7931e"/><path d="M.068-1A1.069,1.069,0,0,1,1.135.068,1.069,1.069,0,0,1,.068,1.135,1.069,1.069,0,0,1-1,.068,1.069,1.069,0,0,1,.068-1Z" transform="translate(84.142 182.429)" fill="#f7931e"/><path d="M.068-1A1.069,1.069,0,0,1,1.135.068,1.069,1.069,0,0,1,.068,1.135,1.069,1.069,0,0,1-1,.068,1.069,1.069,0,0,1,.068-1Z" transform="translate(76.488 160.102)" fill="#f7931e"/><path d="M.068-1A1.069,1.069,0,0,1,1.135.068,1.069,1.069,0,0,1,.068,1.135,1.069,1.069,0,0,1-1,.068,1.069,1.069,0,0,1,.068-1Z" transform="translate(126.159 204.58)" fill="#f7931e"/><path d="M.068-1A1.069,1.069,0,0,1,1.135.068,1.069,1.069,0,0,1,.068,1.135,1.069,1.069,0,0,1-1,.068,1.069,1.069,0,0,1,.068-1Z" transform="translate(136.382 212.654)" fill="#f7931e"/><path d="M.068-1A1.069,1.069,0,0,1,1.135.068,1.069,1.069,0,0,1,.068,1.135,1.069,1.069,0,0,1-1,.068,1.069,1.069,0,0,1,.068-1Z" transform="translate(164.24 182.632)" fill="#f7931e"/><path d="M.068-1A1.069,1.069,0,0,1,1.135.068,1.069,1.069,0,0,1,.068,1.135,1.069,1.069,0,0,1-1,.068,1.069,1.069,0,0,1,.068-1Z" transform="translate(151.664 204.391)" fill="#f7931e"/><path d="M.068-1A1.069,1.069,0,0,1,1.135.068,1.069,1.069,0,0,1,.068,1.135,1.069,1.069,0,0,1-1,.068,1.069,1.069,0,0,1,.068-1Z" transform="translate(171.178 212.6)" fill="#f7931e"/><path d="M.068-1A1.069,1.069,0,0,1,1.135.068,1.069,1.069,0,0,1,.068,1.135,1.069,1.069,0,0,1-1,.068,1.069,1.069,0,0,1,.068-1Z" transform="translate(201.822 204.445)" fill="#f7931e"/><path d="M.068-1A1.069,1.069,0,0,1,1.135.068,1.069,1.069,0,0,1,.068,1.135,1.069,1.069,0,0,1-1,.068,1.069,1.069,0,0,1,.068-1Z" transform="translate(223.919 181.726)" fill="#f7931e"/><path d="M.068-1A1.069,1.069,0,0,1,1.135.068,1.069,1.069,0,0,1,.068,1.135,1.069,1.069,0,0,1-1,.068,1.069,1.069,0,0,1,.068-1Z" transform="translate(227.083 160.481)" fill="#f7931e"/><path d="M.068-1A1.069,1.069,0,0,1,1.135.068,1.069,1.069,0,0,1,.068,1.135,1.069,1.069,0,0,1-1,.068,1.069,1.069,0,0,1,.068-1Z" transform="translate(227.151 204.445)" fill="#f7931e"/><path d="M.068-1A1.069,1.069,0,0,1,1.135.068,1.069,1.069,0,0,1,.068,1.135,1.069,1.069,0,0,1-1,.068,1.069,1.069,0,0,1,.068-1Z" transform="translate(239.836 182.429)" fill="#f7931e"/><path d="M.068-1A1.069,1.069,0,0,1,1.135.068,1.069,1.069,0,0,1,.068,1.135,1.069,1.069,0,0,1-1,.068,1.069,1.069,0,0,1,.068-1Z" transform="translate(201.619 160.481)" fill="#f7931e"/><path d="M.068-1A1.069,1.069,0,0,1,1.135.068,1.069,1.069,0,0,1,.068,1.135,1.069,1.069,0,0,1-1,.068,1.069,1.069,0,0,1,.068-1Z" transform="translate(189.286 182.199)" fill="#f7931e"/><path d="M.068-1A1.069,1.069,0,0,1,1.135.068,1.069,1.069,0,0,1,.068,1.135,1.069,1.069,0,0,1-1,.068,1.069,1.069,0,0,1,.068-1Z" transform="translate(119.248 60.787)" fill="#f7931e"/><path d="M.068-1A1.069,1.069,0,0,1,1.135.068,1.069,1.069,0,0,1,.068,1.135,1.069,1.069,0,0,1-1,.068,1.069,1.069,0,0,1,.068-1Z" transform="translate(136.842 28.98)" fill="#f7931e"/><path d="M.068-1A1.069,1.069,0,0,1,1.135.068,1.069,1.069,0,0,1,.068,1.135,1.069,1.069,0,0,1-1,.068,1.069,1.069,0,0,1,.068-1Z" transform="translate(84.521 60.855)" fill="#f7931e"/><path d="M.081-1A1.082,1.082,0,0,1,1.162.081,1.082,1.082,0,0,1,.081,1.162,1.082,1.082,0,0,1-1,.081,1.082,1.082,0,0,1,.081-1Z" transform="translate(85.413 0.216)" fill="#f7931e"/><path d="M.068-1A1.069,1.069,0,0,1,1.135.068,1.069,1.069,0,0,1,.068,1.135,1.069,1.069,0,0,1-1,.068,1.069,1.069,0,0,1,.068-1Z" transform="translate(66.94 30.333)" fill="#f7931e"/><path d="M.081-1A1.082,1.082,0,0,1,1.162.081,1.082,1.082,0,0,1,.081,1.162,1.082,1.082,0,0,1-1,.081,1.082,1.082,0,0,1,.081-1Z" transform="translate(11.955 0.622)" fill="#f7931e"/><path d="M.068-1A1.069,1.069,0,0,1,1.135.068,1.069,1.069,0,0,1,.068,1.135,1.069,1.069,0,0,1-1,.068,1.069,1.069,0,0,1,.068-1Z" transform="translate(119.181 121.507)" fill="#f7931e"/><path d="M.068-1A1.069,1.069,0,0,1,1.135.068,1.069,1.069,0,0,1,.068,1.135,1.069,1.069,0,0,1-1,.068,1.069,1.069,0,0,1,.068-1Z" transform="translate(84.453 121.71)" fill="#f7931e"/><path d="M.068-1A1.069,1.069,0,0,1,1.135.068,1.069,1.069,0,0,1,.068,1.135,1.069,1.069,0,0,1-1,.068,1.069,1.069,0,0,1,.068-1Z" transform="translate(88.916 138.316)" fill="#f7931e"/><path d="M.068-1A1.069,1.069,0,0,1,1.135.068,1.069,1.069,0,0,1,.068,1.135,1.069,1.069,0,0,1-1,.068,1.069,1.069,0,0,1,.068-1Z" transform="translate(66.9 151.745)" fill="#f7931e"/><path d="M.068-1A1.069,1.069,0,0,1,1.135.068,1.069,1.069,0,0,1,.068,1.135,1.069,1.069,0,0,1-1,.068,1.069,1.069,0,0,1,.068-1Z" transform="translate(50.861 160.17)" fill="#f7931e"/><path d="M.068-1A1.069,1.069,0,0,1,1.135.068,1.069,1.069,0,0,1,.068,1.135,1.069,1.069,0,0,1-1,.068,1.069,1.069,0,0,1,.068-1Z" transform="translate(38.163 138.316)" fill="#f7931e"/><path d="M.068-1A1.069,1.069,0,0,1,1.135.068,1.069,1.069,0,0,1,.068,1.135,1.069,1.069,0,0,1-1,.068,1.069,1.069,0,0,1,.068-1Z" transform="translate(31.915 151.745)" fill="#f7931e"/><path d="M.068-1A1.069,1.069,0,0,1,1.135.068,1.069,1.069,0,0,1,.068,1.135,1.069,1.069,0,0,1-1,.068,1.069,1.069,0,0,1,.068-1Z" transform="translate(50.482 116.53)" fill="#f7931e"/><path d="M.068-1A1.069,1.069,0,0,1,1.135.068,1.069,1.069,0,0,1,.068,1.135,1.069,1.069,0,0,1-1,.068,1.069,1.069,0,0,1,.068-1Z" transform="translate(37.743 94.731)" fill="#f7931e"/><path d="M.068-1A1.069,1.069,0,0,1,1.135.068,1.069,1.069,0,0,1,.068,1.135,1.069,1.069,0,0,1-1,.068,1.069,1.069,0,0,1,.068-1Z" transform="translate(32.956 59.881)" fill="#f7931e"/><path d="M.068-1A1.069,1.069,0,0,1,1.135.068,1.069,1.069,0,0,1,.068,1.135,1.069,1.069,0,0,1-1,.068,1.069,1.069,0,0,1,.068-1Z" transform="translate(31.847 30.4)" fill="#f7931e"/><path d="M.068-1A1.069,1.069,0,0,1,1.135.068,1.069,1.069,0,0,1,.068,1.135,1.069,1.069,0,0,1-1,.068,1.069,1.069,0,0,1,.068-1Z" transform="translate(66.886 90.822)" fill="#f7931e"/><path d="M.068-1A1.069,1.069,0,0,1,1.135.068,1.069,1.069,0,0,1,.068,1.135,1.069,1.069,0,0,1-1,.068,1.069,1.069,0,0,1,.068-1Z" transform="translate(31.983 91.255)" fill="#f7931e"/><path d="M.068-1A1.069,1.069,0,0,1,1.135.068,1.069,1.069,0,0,1,.068,1.135,1.069,1.069,0,0,1-1,.068,1.069,1.069,0,0,1,.068-1Z" transform="translate(31.983 212.343)" fill="#f7931e"/><path d="M.068-1A1.069,1.069,0,0,1,1.135.068,1.069,1.069,0,0,1,.068,1.135,1.069,1.069,0,0,1-1,.068,1.069,1.069,0,0,1,.068-1Z" transform="translate(66.832 212.275)" fill="#f7931e"/><path d="M.068-1A1.069,1.069,0,0,1,1.135.068,1.069,1.069,0,0,1,.068,1.135,1.069,1.069,0,0,1-1,.068,1.069,1.069,0,0,1,.068-1Z" transform="translate(89.335 204.797)" fill="#f7931e"/><path d="M.875,32.507l-1.75-.968L16.841-.484l1.75.968Z" transform="translate(119.194 29.048)" fill="#f7931e"/><path d="M.852,30.842-.852,29.8,17.756-.523,19.46.523Z" transform="translate(66.886 0.298)" fill="#f7931e"/><path d="M19.453,30.929-.832.555.832-.555,21.117,29.818Z" transform="translate(11.576 0)" fill="#f7931e"/><path d="M26.181,1H0V-1H26.181Z" transform="translate(241.323 91.323)" fill="#f7931e"/><path d="M26.142,1.324-.012,1,.012-1l26.154.325Z" transform="translate(241.35 151.813)" fill="#f7931e"/><path d="M27.594,1.2-.007,1,.007-1l27.6.2Z" transform="translate(239.903 182.497)" fill="#f7931e"/><path d="M.861,35.332-.861,34.313,19.735-.509,21.457.509Z" transform="translate(12.671 59.827)" fill="#f7931e"/><path d="M16.27,28.195-.85.526.85-.526l17.12,27.669Z" transform="translate(227.232 204.445)" fill="#f7931e"/><path d="M.894,28.414l-1.788-.9L13.13-.448l1.788.9Z" transform="translate(187.866 204.445)" fill="#f7931e"/><path d="M.006,1.216l-.012-2L37.589-1,37.6,1Z" transform="translate(88.983 204.648)" fill="#f7931e"/></g><g transform="translate(4321.496 177)"><path d="M36.241,88.91H72.327l18.036,31.252L72.327,151.413H36.241L18.205,120.162Zm34.931,2H37.4L20.515,120.162,37.4,149.413H71.172l16.881-29.252Z" transform="translate(6.821 -28.839)" fill="#f7931e" opacity="0.47"/><path d="M36.235,44.19H72.307l18.05,31.252L72.306,106.68H36.235L18.185,75.442Zm34.917,2H37.389L20.495,75.441,37.389,104.68H71.152L88.046,75.441Z" transform="translate(6.814 76.371)" fill="#f7931e" opacity="0.47"/><path d="M32.5,27.63H59L72.25,50.578,59,73.527H32.5L19.255,50.578Zm25.343,2H33.659L21.565,50.578,33.659,71.527H57.847L69.941,50.578Z" transform="translate(7.191 131.919)" fill="#f7931e" opacity="0.47"/><path d="M60.274,43.86h26.5L100.02,66.808,86.771,89.757h-26.5L47.025,66.808Zm25.343,2H61.429L49.335,66.808,61.429,87.757H85.617L97.711,66.808Z" transform="translate(16.975 93.74)" fill="#f7931e" opacity="0.47"/><path d="M115.934,43.86h26.5L155.68,66.808,142.431,89.757h-26.5L102.685,66.808Zm25.343,2H117.089L104.995,66.808l12.094,20.948h24.188l12.094-20.948Z" transform="translate(36.586 93.74)" fill="#f7931e" opacity="0.47"/><path d="M144.284,60.25h26.5L184.03,83.2l-13.249,22.948h-26.5L131.035,83.2Zm25.343,2H145.439L133.345,83.2l12.094,20.948h24.188L181.721,83.2Z" transform="translate(46.575 55.186)" fill="#f7931e" opacity="0.47"/><path d="M172.424,76.36h26.5L212.17,99.308l-13.249,22.948h-26.5L159.175,99.308Zm25.343,2H173.579L161.485,99.308l12.094,20.948h24.188l12.094-20.948Z" transform="translate(56.489 17.29)" fill="#f7931e" opacity="0.47"/><path d="M88.194,27.48h26.5L127.94,50.428,114.691,73.377h-26.5L74.945,50.428Zm25.343,2H89.349L77.255,50.428,89.349,71.377h24.188l12.094-20.948Z" transform="translate(26.812 132.271)" fill="#f7931e" opacity="0.47"/><path d="M74.951,66.54h36.086l18.036,31.252-18.036,31.252H74.951L56.915,97.792Zm34.931,2H76.106L59.225,97.792l16.881,29.252h33.776l16.881-29.252Z" transform="translate(20.46 23.783)" fill="#f7931e" opacity="0.47"/><path d="M113.645,88.91H149.73l18.036,31.252L149.73,151.413H113.645L95.6,120.162Zm34.93,2H114.8L97.9,120.162,114.8,149.413h33.776l16.881-29.252Z" transform="translate(34.088 -28.839)" fill="#f7931e" opacity="0.47"/><path d="M152.321,111.44h36.085l18.036,31.238L188.407,173.93H152.321l-18.036-31.252Zm34.931,2H153.476l-16.881,29.238,16.881,29.251h33.776l16.881-29.251Z" transform="translate(47.72 -81.823)" fill="#f7931e" opacity="0.32"/><path d="M152.321,66.71h36.085l18.036,31.238L188.407,129.2H152.321L134.285,97.948Zm34.931,2H153.476L136.595,97.948,153.476,127.2h33.776l16.881-29.252Z" transform="translate(47.72 23.396)" fill="#f7931e" opacity="0.32"/><path d="M152.321,21.66h36.086l18.036,31.252L188.407,84.163H152.321L134.285,52.912Zm34.931,2H153.476L136.595,52.912l16.882,29.252h33.776l16.881-29.252Z" transform="translate(47.72 129.355)" fill="#f7931e" opacity="0.29"/><path d="M113.645,44.02H149.73l18.036,31.238L149.73,106.51H113.645L95.6,75.258Zm34.93,2H114.8L97.9,75.258,114.8,104.51h33.776l16.881-29.252Z" transform="translate(34.088 76.771)" fill="#f7931e" opacity="0.32"/><path d="M74.951,21.66h36.086l18.036,31.252L111.037,84.163H74.951L56.915,52.912Zm34.931,2H76.106L59.225,52.912,76.106,82.163h33.776l16.881-29.252Z" transform="translate(20.46 129.355)" fill="#f7931e" opacity="0.29"/><path d="M113.645-.87H149.73l18.036,31.252L149.73,61.62H113.645L95.6,30.382Zm34.93,2H114.8L97.9,30.382,114.8,59.62h33.776l16.881-29.238Z" transform="translate(34.088 182.367)" fill="#f7931e" opacity="0.29"/><path d="M.068-1A1.069,1.069,0,0,1,1.135.068,1.069,1.069,0,0,1,.068,1.135,1.069,1.069,0,0,1-1,.068,1.069,1.069,0,0,1,.068-1Z" transform="translate(130.527 91.363)" fill="#f7931e"/><path d="M.068-1A1.069,1.069,0,0,1,1.135.068,1.069,1.069,0,0,1,.068,1.135,1.069,1.069,0,0,1-1,.068,1.069,1.069,0,0,1,.068-1Z" transform="translate(95.88 91.255)" fill="#f7931e"/><path d="M.068-1A1.069,1.069,0,0,1,1.135.068,1.069,1.069,0,0,1,.068,1.135,1.069,1.069,0,0,1-1,.068,1.069,1.069,0,0,1,.068-1Z" transform="translate(78.516 61.261)" fill="#f7931e"/><path d="M.068-1A1.069,1.069,0,0,1,1.135.068,1.069,1.069,0,0,1,.068,1.135,1.069,1.069,0,0,1-1,.068,1.069,1.069,0,0,1,.068-1Z" transform="translate(43.978 60.787)" fill="#f7931e"/><path d="M.068-1A1.069,1.069,0,0,1,1.135.068,1.069,1.069,0,0,1,.068,1.135,1.069,1.069,0,0,1-1,.068,1.069,1.069,0,0,1,.068-1Z" transform="translate(26.113 91.255)" fill="#f7931e"/><path d="M.068-1A1.069,1.069,0,0,1,1.135.068,1.069,1.069,0,0,1,.068,1.135,1.069,1.069,0,0,1-1,.068,1.069,1.069,0,0,1,.068-1Z" transform="translate(43.626 121.277)" fill="#f7931e"/><path d="M.068-1A1.069,1.069,0,0,1,1.135.068,1.069,1.069,0,0,1,.068,1.135,1.069,1.069,0,0,1-1,.068,1.069,1.069,0,0,1,.068-1Z" transform="translate(26.086 151.745)" fill="#f7931e"/><path d="M.068-1A1.069,1.069,0,0,1,1.135.068,1.069,1.069,0,0,1,.068,1.135,1.069,1.069,0,0,1-1,.068,1.069,1.069,0,0,1,.068-1Z" transform="translate(78.516 121.507)" fill="#f7931e"/><path d="M.068-1A1.069,1.069,0,0,1,1.135.068,1.069,1.069,0,0,1,.068,1.135,1.069,1.069,0,0,1-1,.068,1.069,1.069,0,0,1,.068-1Z" transform="translate(78.151 138.533)" fill="#f7931e"/><path d="M.068-1A1.069,1.069,0,0,1,1.135.068,1.069,1.069,0,0,1,.068,1.135,1.069,1.069,0,0,1-1,.068,1.069,1.069,0,0,1,.068-1Z" transform="translate(95.894 151.961)" fill="#f7931e"/><path d="M.068-1A1.069,1.069,0,0,1,1.135.068,1.069,1.069,0,0,1,.068,1.135,1.069,1.069,0,0,1-1,.068,1.069,1.069,0,0,1,.068-1Z" transform="translate(103.507 138.817)" fill="#f7931e"/><path d="M.068-1A1.069,1.069,0,0,1,1.135.068,1.069,1.069,0,0,1,.068,1.135,1.069,1.069,0,0,1-1,.068,1.069,1.069,0,0,1,.068-1Z" transform="translate(115.841 160.833)" fill="#f7931e"/><path d="M.068-1A1.069,1.069,0,0,1,1.135.068,1.069,1.069,0,0,1,.068,1.135,1.069,1.069,0,0,1-1,.068,1.069,1.069,0,0,1,.068-1Z" transform="translate(140.358 160.481)" fill="#f7931e"/><path d="M.068-1A1.069,1.069,0,0,1,1.135.068,1.069,1.069,0,0,1,.068,1.135,1.069,1.069,0,0,1-1,.068,1.069,1.069,0,0,1,.068-1Z" transform="translate(153.246 138.749)" fill="#f7931e"/><path d="M.068-1A1.069,1.069,0,0,1,1.135.068,1.069,1.069,0,0,1,.068,1.135,1.069,1.069,0,0,1-1,.068,1.069,1.069,0,0,1,.068-1Z" transform="translate(130.527 151.961)" fill="#f7931e"/><path d="M.068-1A1.069,1.069,0,0,1,1.135.068,1.069,1.069,0,0,1,.068,1.135,1.069,1.069,0,0,1-1,.068,1.069,1.069,0,0,1,.068-1Z" transform="translate(147.972 182.429)" fill="#f7931e"/><path d="M.068-1A1.069,1.069,0,0,1,1.135.068,1.069,1.069,0,0,1,.068,1.135,1.069,1.069,0,0,1-1,.068,1.069,1.069,0,0,1,.068-1Z" transform="translate(153.3 182.362)" fill="#f7931e"/><path d="M.068-1A1.069,1.069,0,0,1,1.135.068,1.069,1.069,0,0,1,.068,1.135,1.069,1.069,0,0,1-1,.068,1.069,1.069,0,0,1,.068-1Z" transform="translate(178.034 182.429)" fill="#f7931e"/><path d="M.068-1A1.069,1.069,0,0,1,1.135.068,1.069,1.069,0,0,1,.068,1.135,1.069,1.069,0,0,1-1,.068,1.069,1.069,0,0,1,.068-1Z" transform="translate(183.227 182.429)" fill="#f7931e"/><path d="M.068-1A1.069,1.069,0,0,1,1.135.068,1.069,1.069,0,0,1,.068,1.135,1.069,1.069,0,0,1-1,.068,1.069,1.069,0,0,1,.068-1Z" transform="translate(190.881 160.102)" fill="#f7931e"/><path d="M.068-1A1.069,1.069,0,0,1,1.135.068,1.069,1.069,0,0,1,.068,1.135,1.069,1.069,0,0,1-1,.068,1.069,1.069,0,0,1,.068-1Z" transform="translate(141.21 204.58)" fill="#f7931e"/><path d="M.068-1A1.069,1.069,0,0,1,1.135.068,1.069,1.069,0,0,1,.068,1.135,1.069,1.069,0,0,1-1,.068,1.069,1.069,0,0,1,.068-1Z" transform="translate(130.987 212.654)" fill="#f7931e"/><path d="M.068-1A1.069,1.069,0,0,1,1.135.068,1.069,1.069,0,0,1,.068,1.135,1.069,1.069,0,0,1-1,.068,1.069,1.069,0,0,1,.068-1Z" transform="translate(103.129 182.632)" fill="#f7931e"/><path d="M.068-1A1.069,1.069,0,0,1,1.135.068,1.069,1.069,0,0,1,.068,1.135,1.069,1.069,0,0,1-1,.068,1.069,1.069,0,0,1,.068-1Z" transform="translate(115.705 204.391)" fill="#f7931e"/><path d="M.068-1A1.069,1.069,0,0,1,1.135.068,1.069,1.069,0,0,1,.068,1.135,1.069,1.069,0,0,1-1,.068,1.069,1.069,0,0,1,.068-1Z" transform="translate(96.191 212.6)" fill="#f7931e"/><path d="M.068-1A1.069,1.069,0,0,1,1.135.068,1.069,1.069,0,0,1,.068,1.135,1.069,1.069,0,0,1-1,.068,1.069,1.069,0,0,1,.068-1Z" transform="translate(65.547 204.445)" fill="#f7931e"/><path d="M.068-1A1.069,1.069,0,0,1,1.135.068,1.069,1.069,0,0,1,.068,1.135,1.069,1.069,0,0,1-1,.068,1.069,1.069,0,0,1,.068-1Z" transform="translate(43.45 181.726)" fill="#f7931e"/><path d="M.068-1A1.069,1.069,0,0,1,1.135.068,1.069,1.069,0,0,1,.068,1.135,1.069,1.069,0,0,1-1,.068,1.069,1.069,0,0,1,.068-1Z" transform="translate(40.286 160.481)" fill="#f7931e"/><path d="M.068-1A1.069,1.069,0,0,1,1.135.068,1.069,1.069,0,0,1,.068,1.135,1.069,1.069,0,0,1-1,.068,1.069,1.069,0,0,1,.068-1Z" transform="translate(40.218 204.445)" fill="#f7931e"/><path d="M.068-1A1.069,1.069,0,0,1,1.135.068,1.069,1.069,0,0,1,.068,1.135,1.069,1.069,0,0,1-1,.068,1.069,1.069,0,0,1,.068-1Z" transform="translate(27.533 182.429)" fill="#f7931e"/><path d="M.068-1A1.069,1.069,0,0,1,1.135.068,1.069,1.069,0,0,1,.068,1.135,1.069,1.069,0,0,1-1,.068,1.069,1.069,0,0,1,.068-1Z" transform="translate(65.75 160.481)" fill="#f7931e"/><path d="M.068-1A1.069,1.069,0,0,1,1.135.068,1.069,1.069,0,0,1,.068,1.135,1.069,1.069,0,0,1-1,.068,1.069,1.069,0,0,1,.068-1Z" transform="translate(78.084 182.199)" fill="#f7931e"/><path d="M.068-1A1.069,1.069,0,0,1,1.135.068,1.069,1.069,0,0,1,.068,1.135,1.069,1.069,0,0,1-1,.068,1.069,1.069,0,0,1,.068-1Z" transform="translate(148.121 60.787)" fill="#f7931e"/><path d="M.068-1A1.069,1.069,0,0,1,1.135.068,1.069,1.069,0,0,1,.068,1.135,1.069,1.069,0,0,1-1,.068,1.069,1.069,0,0,1,.068-1Z" transform="translate(130.527 28.98)" fill="#f7931e"/><path d="M.068-1A1.069,1.069,0,0,1,1.135.068,1.069,1.069,0,0,1,.068,1.135,1.069,1.069,0,0,1-1,.068,1.069,1.069,0,0,1,.068-1Z" transform="translate(182.849 60.855)" fill="#f7931e"/><path d="M.081-1A1.082,1.082,0,0,1,1.162.081,1.082,1.082,0,0,1,.081,1.162,1.082,1.082,0,0,1-1,.081,1.082,1.082,0,0,1,.081-1Z" transform="translate(181.929 0.216)" fill="#f7931e"/><path d="M.068-1A1.069,1.069,0,0,1,1.135.068,1.069,1.069,0,0,1,.068,1.135,1.069,1.069,0,0,1-1,.068,1.069,1.069,0,0,1,.068-1Z" transform="translate(200.429 30.333)" fill="#f7931e"/><path d="M.081-1A1.082,1.082,0,0,1,1.162.081,1.082,1.082,0,0,1,.081,1.162,1.082,1.082,0,0,1-1,.081,1.082,1.082,0,0,1,.081-1Z" transform="translate(255.388 0.622)" fill="#f7931e"/><path d="M.068-1A1.069,1.069,0,0,1,1.135.068,1.069,1.069,0,0,1,.068,1.135,1.069,1.069,0,0,1-1,.068,1.069,1.069,0,0,1,.068-1Z" transform="translate(148.188 121.507)" fill="#f7931e"/><path d="M.068-1A1.069,1.069,0,0,1,1.135.068,1.069,1.069,0,0,1,.068,1.135,1.069,1.069,0,0,1-1,.068,1.069,1.069,0,0,1,.068-1Z" transform="translate(182.916 121.71)" fill="#f7931e"/><path d="M.068-1A1.069,1.069,0,0,1,1.135.068,1.069,1.069,0,0,1,.068,1.135,1.069,1.069,0,0,1-1,.068,1.069,1.069,0,0,1,.068-1Z" transform="translate(178.453 138.316)" fill="#f7931e"/><path d="M.068-1A1.069,1.069,0,0,1,1.135.068,1.069,1.069,0,0,1,.068,1.135,1.069,1.069,0,0,1-1,.068,1.069,1.069,0,0,1,.068-1Z" transform="translate(200.469 151.745)" fill="#f7931e"/><path d="M.068-1A1.069,1.069,0,0,1,1.135.068,1.069,1.069,0,0,1,.068,1.135,1.069,1.069,0,0,1-1,.068,1.069,1.069,0,0,1,.068-1Z" transform="translate(216.508 160.17)" fill="#f7931e"/><path d="M.068-1A1.069,1.069,0,0,1,1.135.068,1.069,1.069,0,0,1,.068,1.135,1.069,1.069,0,0,1-1,.068,1.069,1.069,0,0,1,.068-1Z" transform="translate(229.206 138.316)" fill="#f7931e"/><path d="M.068-1A1.069,1.069,0,0,1,1.135.068,1.069,1.069,0,0,1,.068,1.135,1.069,1.069,0,0,1-1,.068,1.069,1.069,0,0,1,.068-1Z" transform="translate(235.454 151.745)" fill="#f7931e"/><path d="M.068-1A1.069,1.069,0,0,1,1.135.068,1.069,1.069,0,0,1,.068,1.135,1.069,1.069,0,0,1-1,.068,1.069,1.069,0,0,1,.068-1Z" transform="translate(216.887 116.53)" fill="#f7931e"/><path d="M.068-1A1.069,1.069,0,0,1,1.135.068,1.069,1.069,0,0,1,.068,1.135,1.069,1.069,0,0,1-1,.068,1.069,1.069,0,0,1,.068-1Z" transform="translate(229.626 94.731)" fill="#f7931e"/><path d="M.068-1A1.069,1.069,0,0,1,1.135.068,1.069,1.069,0,0,1,.068,1.135,1.069,1.069,0,0,1-1,.068,1.069,1.069,0,0,1,.068-1Z" transform="translate(234.413 59.881)" fill="#f7931e"/><path d="M.068-1A1.069,1.069,0,0,1,1.135.068,1.069,1.069,0,0,1,.068,1.135,1.069,1.069,0,0,1-1,.068,1.069,1.069,0,0,1,.068-1Z" transform="translate(235.522 30.4)" fill="#f7931e"/><path d="M.068-1A1.069,1.069,0,0,1,1.135.068,1.069,1.069,0,0,1,.068,1.135,1.069,1.069,0,0,1-1,.068,1.069,1.069,0,0,1,.068-1Z" transform="translate(200.483 90.822)" fill="#f7931e"/><path d="M.068-1A1.069,1.069,0,0,1,1.135.068,1.069,1.069,0,0,1,.068,1.135,1.069,1.069,0,0,1-1,.068,1.069,1.069,0,0,1,.068-1Z" transform="translate(235.387 91.255)" fill="#f7931e"/><path d="M.068-1A1.069,1.069,0,0,1,1.135.068,1.069,1.069,0,0,1,.068,1.135,1.069,1.069,0,0,1-1,.068,1.069,1.069,0,0,1,.068-1Z" transform="translate(235.387 212.343)" fill="#f7931e"/><path d="M.068-1A1.069,1.069,0,0,1,1.135.068,1.069,1.069,0,0,1,.068,1.135,1.069,1.069,0,0,1-1,.068,1.069,1.069,0,0,1,.068-1Z" transform="translate(200.537 212.275)" fill="#f7931e"/><path d="M.068-1A1.069,1.069,0,0,1,1.135.068,1.069,1.069,0,0,1,.068,1.135,1.069,1.069,0,0,1-1,.068,1.069,1.069,0,0,1,.068-1Z" transform="translate(178.034 204.797)" fill="#f7931e"/><path d="M16.841,32.507-.875.484.875-.484,18.591,31.539Z" transform="translate(130.595 29.048)" fill="#f7931e"/><path d="M17.756,30.842-.852.523.852-.523,19.46,29.8Z" transform="translate(182.01 0.298)" fill="#f7931e"/><path d="M.832,30.929-.832,29.818,19.453-.555,21.117.555Z" transform="translate(235.643 0)" fill="#f7931e"/><path d="M26.181,1H0V-1H26.181Z" transform="translate(0 91.323)" fill="#f7931e"/><path d="M.012,1.324l-.025-2L26.142-1l.025,2Z" transform="translate(0 151.813)" fill="#f7931e"/><path d="M.007,1.2l-.015-2,27.6-.2.015,2Z" transform="translate(0 182.497)" fill="#f7931e"/><path d="M19.735,35.332-.861.509.861-.509l20.6,34.823Z" transform="translate(234.237 59.827)" fill="#f7931e"/><path d="M.85,28.195l-1.7-1.052L16.27-.526l1.7,1.052Z" transform="translate(23.152 204.445)" fill="#f7931e"/><path d="M13.13,28.414-.894.448l1.788-.9L14.918,27.518Z" transform="translate(65.615 204.445)" fill="#f7931e"/><path d="M37.589,1.216-.006,1,.006-1,37.6-.784Z" transform="translate(140.926 204.648)" fill="#f7931e"/></g></g></svg>