<svg xmlns="http://www.w3.org/2000/svg" xmlns:xlink="http://www.w3.org/1999/xlink" width="1366" height="768" viewBox="0 0 1366 768"><defs><clipPath id="b"><rect width="1366" height="768"/></clipPath></defs><g id="a" clip-path="url(#b)"><rect width="1366" height="768" fill="#091929"/><g transform="translate(846.259 -0.13)"><g transform="translate(0 0.13)"><path d="M121.726,208.463H52.7l-34.5-59.777L52.7,88.91h69.023l34.5,59.777Zm-67.868-2h66.713l33.344-57.777L120.571,90.91H53.858L20.515,148.687Z" transform="translate(31.508 145.985)" fill="#f7931e" opacity="0.47"/><path d="M121.706,163.717h-69L18.185,103.94,52.71,44.19h69l34.525,59.75Zm-67.841-2h66.687L153.92,103.94,120.551,46.19H53.864L20.495,103.94Z" transform="translate(31.475 73.204)" fill="#f7931e" opacity="0.47"/><path d="M94.846,114.918H44.452l-25.2-43.644,25.2-43.644H94.846l25.2,43.644Zm-49.239-2H93.691l24.042-41.644L93.691,29.63H45.607L21.565,71.274Z" transform="translate(33.217 46.253)" fill="#f7931e" opacity="0.47"/><path d="M122.616,131.148H72.222L47.025,87.5l25.2-43.644h50.394l25.2,43.644Zm-49.239-2h48.084L145.5,87.5,121.461,45.86H73.377L49.335,87.5Z" transform="translate(78.412 72.667)" fill="#f7931e" opacity="0.47"/><path d="M178.276,131.148H127.882L102.685,87.5l25.2-43.644h50.394l25.2,43.644Zm-49.239-2h48.084L201.163,87.5,177.121,45.86H129.037L104.995,87.5Z" transform="translate(168.997 72.667)" fill="#f7931e" opacity="0.47"/><path d="M206.626,147.538H156.232l-25.2-43.644,25.2-43.644h50.394l25.2,43.644Zm-49.239-2h48.084l24.042-41.644L205.471,62.25H157.387l-24.042,41.644Z" transform="translate(215.136 99.341)" fill="#f7931e" opacity="0.47"/><path d="M234.766,163.648H184.372L159.175,120l25.2-43.644h50.394L259.962,120Zm-49.239-2h48.084L257.653,120,233.611,78.36H185.527L161.485,120Z" transform="translate(260.933 125.56)" fill="#f7931e" opacity="0.47"/><path d="M150.536,114.768H100.142l-25.2-43.644,25.2-43.644h50.394l25.2,43.644Zm-49.239-2h48.084l24.042-41.644L149.381,29.48H101.3L77.255,71.124Z" transform="translate(123.851 46.009)" fill="#f7931e" opacity="0.47"/><path d="M160.436,186.093H91.413l-34.5-59.777,34.5-59.777h69.023l34.5,59.777Zm-67.868-2h66.713l33.344-57.777L159.281,68.54H92.568L59.225,126.317Z" transform="translate(94.507 109.578)" fill="#f7931e" opacity="0.47"/><path d="M199.142,208.463H130.12L95.6,148.687,130.12,88.91h69.022l34.5,59.777Zm-67.868-2h66.713l33.344-57.777L197.987,90.91H131.274L97.9,148.687Z" transform="translate(157.458 145.985)" fill="#f7931e" opacity="0.47"/><path d="M237.806,230.967H168.783l-34.5-59.75,34.5-59.777h69.023l34.5,59.777-.289.5Zm-67.868-2h66.713l33.343-57.75L236.651,113.44H169.938l-33.344,57.776Z" transform="translate(220.425 182.652)" fill="#f7931e" opacity="0.32"/><path d="M237.806,186.237H168.783l-34.5-59.75,34.5-59.777h69.023l34.5,59.777Zm-67.868-2h66.713l33.343-57.75L236.651,68.71H169.938l-33.344,57.777Z" transform="translate(220.425 109.855)" fill="#f7931e" opacity="0.32"/><path d="M237.806,141.213H168.783l-34.5-59.777,34.5-59.777h69.023l34.5,59.777Zm-67.868-2h66.713l33.344-57.777L236.651,23.66H169.938L136.595,81.437Z" transform="translate(220.425 36.537)" fill="#f7931e" opacity="0.29"/><path d="M199.142,163.547H130.12L95.6,103.8,130.12,44.02h69.022l34.5,59.777Zm-67.868-2h66.713l33.343-57.75L197.987,46.02H131.274L97.9,103.8Z" transform="translate(157.458 72.927)" fill="#f7931e" opacity="0.32"/><path d="M160.436,141.213H91.413l-34.5-59.777,34.5-59.777h69.023l34.5,59.777Zm-67.868-2h66.713l33.344-57.777L159.281,23.66H92.568L59.225,81.437Z" transform="translate(94.507 36.537)" fill="#f7931e" opacity="0.29"/><path d="M199.142,118.657H130.12L95.6,58.88,130.12-.87h69.022l34.5,59.75Zm-67.868-2h66.713L231.331,58.88,197.987,1.13H131.274L97.9,58.88Z" transform="translate(157.458 -0.13)" fill="#f7931e" opacity="0.29"/><path d="M.131-1A1.133,1.133,0,0,1,1.263.131,1.133,1.133,0,0,1,.131,1.263,1.133,1.133,0,0,1-1,.131,1.133,1.133,0,0,1,.131-1Z" transform="translate(253.604 294.33)" fill="#f7931e"/><path d="M.131-1A1.133,1.133,0,0,1,1.263.131,1.133,1.133,0,0,1,.131,1.263,1.133,1.133,0,0,1-1,.131,1.133,1.133,0,0,1,.131-1Z" transform="translate(186.288 294.54)" fill="#f7931e"/><path d="M.131-1A1.133,1.133,0,0,1,1.263.131,1.133,1.133,0,0,1,.131,1.263,1.133,1.133,0,0,1-1,.131,1.133,1.133,0,0,1,.131-1Z" transform="translate(152.551 352.817)" fill="#f7931e"/><path d="M.131-1A1.133,1.133,0,0,1,1.263.131,1.133,1.133,0,0,1,.131,1.263,1.133,1.133,0,0,1-1,.131,1.133,1.133,0,0,1,.131-1Z" transform="translate(85.445 353.737)" fill="#f7931e"/><path d="M.131-1A1.133,1.133,0,0,1,1.263.131,1.133,1.133,0,0,1,.131,1.263,1.133,1.133,0,0,1-1,.131,1.133,1.133,0,0,1,.131-1Z" transform="translate(50.737 294.54)" fill="#f7931e"/><path d="M.131-1A1.133,1.133,0,0,1,1.263.131,1.133,1.133,0,0,1,.131,1.263,1.133,1.133,0,0,1-1,.131,1.133,1.133,0,0,1,.131-1Z" transform="translate(84.762 236.21)" fill="#f7931e"/><path d="M.131-1A1.133,1.133,0,0,1,1.263.131,1.133,1.133,0,0,1,.131,1.263,1.133,1.133,0,0,1-1,.131,1.133,1.133,0,0,1,.131-1Z" transform="translate(50.684 177.013)" fill="#f7931e"/><path d="M.131-1A1.133,1.133,0,0,1,1.263.131,1.133,1.133,0,0,1,.131,1.263,1.133,1.133,0,0,1-1,.131,1.133,1.133,0,0,1,.131-1Z" transform="translate(152.551 235.763)" fill="#f7931e"/><path d="M.131-1A1.133,1.133,0,0,1,1.263.131,1.133,1.133,0,0,1,.131,1.263,1.133,1.133,0,0,1-1,.131,1.133,1.133,0,0,1,.131-1Z" transform="translate(151.842 202.683)" fill="#f7931e"/><path d="M.131-1A1.133,1.133,0,0,1,1.263.131,1.133,1.133,0,0,1,.131,1.263,1.133,1.133,0,0,1-1,.131,1.133,1.133,0,0,1,.131-1Z" transform="translate(186.314 176.593)" fill="#f7931e"/><path d="M.131-1A1.133,1.133,0,0,1,1.263.131,1.133,1.133,0,0,1,.131,1.263,1.133,1.133,0,0,1-1,.131,1.133,1.133,0,0,1,.131-1Z" transform="translate(201.107 202.132)" fill="#f7931e"/><path d="M.131-1A1.133,1.133,0,0,1,1.263.131,1.133,1.133,0,0,1,.131,1.263,1.133,1.133,0,0,1-1,.131,1.133,1.133,0,0,1,.131-1Z" transform="translate(225.069 159.356)" fill="#f7931e"/><path d="M.131-1A1.133,1.133,0,0,1,1.263.131,1.133,1.133,0,0,1,.131,1.263,1.133,1.133,0,0,1-1,.131,1.133,1.133,0,0,1,.131-1Z" transform="translate(272.706 160.039)" fill="#f7931e"/><path d="M.131-1A1.133,1.133,0,0,1,1.263.131,1.133,1.133,0,0,1,.131,1.263,1.133,1.133,0,0,1-1,.131,1.133,1.133,0,0,1,.131-1Z" transform="translate(297.745 202.263)" fill="#f7931e"/><path d="M.131-1A1.133,1.133,0,0,1,1.263.131,1.133,1.133,0,0,1,.131,1.263,1.133,1.133,0,0,1-1,.131,1.133,1.133,0,0,1,.131-1Z" transform="translate(253.604 176.593)" fill="#f7931e"/><path d="M.131-1A1.133,1.133,0,0,1,1.263.131,1.133,1.133,0,0,1,.131,1.263,1.133,1.133,0,0,1-1,.131,1.133,1.133,0,0,1,.131-1Z" transform="translate(287.498 117.396)" fill="#f7931e"/><path d="M.131-1A1.133,1.133,0,0,1,1.263.131,1.133,1.133,0,0,1,.131,1.263,1.133,1.133,0,0,1-1,.131,1.133,1.133,0,0,1,.131-1Z" transform="translate(297.851 117.527)" fill="#f7931e"/><path d="M.131-1A1.133,1.133,0,0,1,1.263.131,1.133,1.133,0,0,1,.131,1.263,1.133,1.133,0,0,1-1,.131,1.133,1.133,0,0,1,.131-1Z" transform="translate(345.907 117.396)" fill="#f7931e"/><path d="M.131-1A1.133,1.133,0,0,1,1.263.131,1.133,1.133,0,0,1,.131,1.263,1.133,1.133,0,0,1-1,.131,1.133,1.133,0,0,1,.131-1Z" transform="translate(355.997 117.396)" fill="#f7931e"/><path d="M.131-1A1.133,1.133,0,0,1,1.263.131,1.133,1.133,0,0,1,.131,1.263,1.133,1.133,0,0,1-1,.131,1.133,1.133,0,0,1,.131-1Z" transform="translate(370.868 160.775)" fill="#f7931e"/><path d="M.131-1A1.133,1.133,0,0,1,1.263.131,1.133,1.133,0,0,1,.131,1.263,1.133,1.133,0,0,1-1,.131,1.133,1.133,0,0,1,.131-1Z" transform="translate(274.361 74.358)" fill="#f7931e"/><path d="M.131-1A1.133,1.133,0,0,1,1.263.131,1.133,1.133,0,0,1,.131,1.263,1.133,1.133,0,0,1-1,.131,1.133,1.133,0,0,1,.131-1Z" transform="translate(254.497 58.672)" fill="#f7931e"/><path d="M.131-1A1.133,1.133,0,0,1,1.263.131,1.133,1.133,0,0,1,.131,1.263,1.133,1.133,0,0,1-1,.131,1.133,1.133,0,0,1,.131-1Z" transform="translate(200.371 117.001)" fill="#f7931e"/><path d="M.131-1A1.133,1.133,0,0,1,1.263.131,1.133,1.133,0,0,1,.131,1.263,1.133,1.133,0,0,1-1,.131,1.133,1.133,0,0,1,.131-1Z" transform="translate(224.807 74.725)" fill="#f7931e"/><path d="M.131-1A1.133,1.133,0,0,1,1.263.131,1.133,1.133,0,0,1,.131,1.263,1.133,1.133,0,0,1-1,.131,1.133,1.133,0,0,1,.131-1Z" transform="translate(186.892 58.777)" fill="#f7931e"/><path d="M.131-1A1.133,1.133,0,0,1,1.263.131,1.133,1.133,0,0,1,.131,1.263,1.133,1.133,0,0,1-1,.131,1.133,1.133,0,0,1,.131-1Z" transform="translate(127.354 74.62)" fill="#f7931e"/><path d="M.131-1A1.133,1.133,0,0,1,1.263.131,1.133,1.133,0,0,1,.131,1.263,1.133,1.133,0,0,1-1,.131,1.133,1.133,0,0,1,.131-1Z" transform="translate(84.421 118.762)" fill="#f7931e"/><path d="M.131-1A1.133,1.133,0,0,1,1.263.131,1.133,1.133,0,0,1,.131,1.263,1.133,1.133,0,0,1-1,.131,1.133,1.133,0,0,1,.131-1Z" transform="translate(78.272 160.039)" fill="#f7931e"/><path d="M.131-1A1.133,1.133,0,0,1,1.263.131,1.133,1.133,0,0,1,.131,1.263,1.133,1.133,0,0,1-1,.131,1.133,1.133,0,0,1,.131-1Z" transform="translate(78.141 74.62)" fill="#f7931e"/><path d="M.131-1A1.133,1.133,0,0,1,1.263.131,1.133,1.133,0,0,1,.131,1.263,1.133,1.133,0,0,1-1,.131,1.133,1.133,0,0,1,.131-1Z" transform="translate(53.495 117.396)" fill="#f7931e"/><path d="M.131-1A1.133,1.133,0,0,1,1.263.131,1.133,1.133,0,0,1,.131,1.263,1.133,1.133,0,0,1-1,.131,1.133,1.133,0,0,1,.131-1Z" transform="translate(127.748 160.039)" fill="#f7931e"/><path d="M.131-1A1.133,1.133,0,0,1,1.263.131,1.133,1.133,0,0,1,.131,1.263,1.133,1.133,0,0,1-1,.131,1.133,1.133,0,0,1,.131-1Z" transform="translate(151.71 117.842)" fill="#f7931e"/><path d="M.131-1A1.133,1.133,0,0,1,1.263.131,1.133,1.133,0,0,1,.131,1.263,1.133,1.133,0,0,1-1,.131,1.133,1.133,0,0,1,.131-1Z" transform="translate(287.787 353.737)" fill="#f7931e"/><path d="M.131-1A1.133,1.133,0,0,1,1.263.131,1.133,1.133,0,0,1,.131,1.263,1.133,1.133,0,0,1-1,.131,1.133,1.133,0,0,1,.131-1Z" transform="translate(253.604 415.535)" fill="#f7931e"/><path d="M.131-1A1.133,1.133,0,0,1,1.263.131,1.133,1.133,0,0,1,.131,1.263,1.133,1.133,0,0,1-1,.131,1.133,1.133,0,0,1,.131-1Z" transform="translate(355.261 353.606)" fill="#f7931e"/><path d="M.158-1A1.159,1.159,0,0,1,1.315.158,1.159,1.159,0,0,1,.158,1.315,1.159,1.159,0,0,1-1,.158,1.159,1.159,0,0,1,.158-1Z" transform="translate(353.474 471.369)" fill="#f7931e"/><path d="M.131-1A1.133,1.133,0,0,1,1.263.131,1.133,1.133,0,0,1,.131,1.263,1.133,1.133,0,0,1-1,.131,1.133,1.133,0,0,1,.131-1Z" transform="translate(389.418 412.908)" fill="#f7931e"/><path d="M.158-1A1.159,1.159,0,0,1,1.315.158,1.159,1.159,0,0,1,.158,1.315,1.159,1.159,0,0,1-1,.158,1.159,1.159,0,0,1,.158-1Z" transform="translate(496.199 470.581)" fill="#f7931e"/><path d="M.131-1A1.133,1.133,0,0,1,1.263.131,1.133,1.133,0,0,1,.131,1.263,1.133,1.133,0,0,1-1,.131,1.133,1.133,0,0,1,.131-1Z" transform="translate(287.919 235.763)" fill="#f7931e"/><path d="M.131-1A1.133,1.133,0,0,1,1.263.131,1.133,1.133,0,0,1,.131,1.263,1.133,1.133,0,0,1-1,.131,1.133,1.133,0,0,1,.131-1Z" transform="translate(355.392 235.369)" fill="#f7931e"/><path d="M.131-1A1.133,1.133,0,0,1,1.263.131,1.133,1.133,0,0,1,.131,1.263,1.133,1.133,0,0,1-1,.131,1.133,1.133,0,0,1,.131-1Z" transform="translate(346.722 203.104)" fill="#f7931e"/><path d="M.131-1A1.133,1.133,0,0,1,1.263.131,1.133,1.133,0,0,1,.131,1.263,1.133,1.133,0,0,1-1,.131,1.133,1.133,0,0,1,.131-1Z" transform="translate(389.497 177.013)" fill="#f7931e"/><path d="M.131-1A1.133,1.133,0,0,1,1.263.131,1.133,1.133,0,0,1,.131,1.263,1.133,1.133,0,0,1-1,.131,1.133,1.133,0,0,1,.131-1Z" transform="translate(420.659 160.644)" fill="#f7931e"/><path d="M.131-1A1.133,1.133,0,0,1,1.263.131,1.133,1.133,0,0,1,.131,1.263,1.133,1.133,0,0,1-1,.131,1.133,1.133,0,0,1,.131-1Z" transform="translate(445.331 203.104)" fill="#f7931e"/><path d="M.131-1A1.133,1.133,0,0,1,1.263.131,1.133,1.133,0,0,1,.131,1.263,1.133,1.133,0,0,1-1,.131,1.133,1.133,0,0,1,.131-1Z" transform="translate(457.47 177.013)" fill="#f7931e"/><path d="M.131-1A1.133,1.133,0,0,1,1.263.131,1.133,1.133,0,0,1,.131,1.263,1.133,1.133,0,0,1-1,.131,1.133,1.133,0,0,1,.131-1Z" transform="translate(421.394 245.432)" fill="#f7931e"/><path d="M.131-1A1.133,1.133,0,0,1,1.263.131,1.133,1.133,0,0,1,.131,1.263,1.133,1.133,0,0,1-1,.131,1.133,1.133,0,0,1,.131-1Z" transform="translate(446.145 287.787)" fill="#f7931e"/><path d="M.131-1A1.133,1.133,0,0,1,1.263.131,1.133,1.133,0,0,1,.131,1.263,1.133,1.133,0,0,1-1,.131,1.133,1.133,0,0,1,.131-1Z" transform="translate(455.446 355.497)" fill="#f7931e"/><path d="M.131-1A1.133,1.133,0,0,1,1.263.131,1.133,1.133,0,0,1,.131,1.263,1.133,1.133,0,0,1-1,.131,1.133,1.133,0,0,1,.131-1Z" transform="translate(457.601 412.776)" fill="#f7931e"/><path d="M.131-1A1.133,1.133,0,0,1,1.263.131,1.133,1.133,0,0,1,.131,1.263,1.133,1.133,0,0,1-1,.131,1.133,1.133,0,0,1,.131-1Z" transform="translate(389.523 295.381)" fill="#f7931e"/><path d="M.131-1A1.133,1.133,0,0,1,1.263.131,1.133,1.133,0,0,1,.131,1.263,1.133,1.133,0,0,1-1,.131,1.133,1.133,0,0,1,.131-1Z" transform="translate(457.338 294.54)" fill="#f7931e"/><path d="M.131-1A1.133,1.133,0,0,1,1.263.131,1.133,1.133,0,0,1,.131,1.263,1.133,1.133,0,0,1-1,.131,1.133,1.133,0,0,1,.131-1Z" transform="translate(457.338 59.276)" fill="#f7931e"/><path d="M.131-1A1.133,1.133,0,0,1,1.263.131,1.133,1.133,0,0,1,.131,1.263,1.133,1.133,0,0,1-1,.131,1.133,1.133,0,0,1,.131-1Z" transform="translate(389.628 59.407)" fill="#f7931e"/><path d="M.131-1A1.133,1.133,0,0,1,1.263.131,1.133,1.133,0,0,1,.131,1.263,1.133,1.133,0,0,1-1,.131,1.133,1.133,0,0,1,.131-1Z" transform="translate(345.907 73.937)" fill="#f7931e"/><path d="M.875,62.7l-1.75-.968L33.545-.484l1.75.968Z" transform="translate(253.735 353.448)" fill="#f7931e"/><path d="M.852,59.431l-1.7-1.046L35.3-.523l1.7,1.046Z" transform="translate(353.632 412.619)" fill="#f7931e"/><path d="M38.581,59.568-.832.555.832-.555,40.244,58.458Z" transform="translate(457.837 413.092)" fill="#f7931e"/><path d="M50.868,1H0V-1H50.868Z" transform="translate(0 294.671)" fill="#f7931e"/><path d="M50.8,1.631-.012,1,.012-1l50.815.631Z" transform="translate(0 176.514)" fill="#f7931e"/><path d="M53.619,1.394-.007,1,.007-1l53.627.394Z" transform="translate(0 117.133)" fill="#f7931e"/><path d="M.861,68.167-.861,67.148,39.156-.509,40.877.509Z" transform="translate(455.105 288.208)" fill="#f7931e"/><path d="M32.413,54.284-.85.526.85-.526,34.114,53.232Z" transform="translate(44.982 21.125)" fill="#f7931e"/><path d="M.894,54.784l-1.788-.9L26.353-.448l1.788.9Z" transform="translate(127.485 20.547)" fill="#f7931e"/><path d="M.006,1.42l-.012-2L73.038-1l.012,2Z" transform="translate(273.809 74.069)" fill="#f7931e"/></g></g><g transform="translate(846.259 472.105)"><path d="M52.7,88.91h69.023l34.5,59.777-34.5,59.777H52.7l-34.5-59.777Zm67.868,2H53.858L20.515,148.687l33.344,57.777h66.713l33.344-57.777Z" transform="translate(31.508 28.747)" fill="#f7931e" opacity="0.47"/><path d="M52.71,44.19h69l34.525,59.777-34.525,59.75h-69l-34.525-59.75Zm67.841,2H53.864L20.495,103.966l33.369,57.75h66.687l33.369-57.75Z" transform="translate(31.475 190.994)" fill="#f7931e" opacity="0.47"/><path d="M44.452,27.63H94.846l25.2,43.644-25.2,43.644H44.452l-25.2-43.644Zm49.239,2H45.607L21.565,71.274l24.042,41.644H93.691l24.042-41.644Z" transform="translate(33.217 283.304)" fill="#f7931e" opacity="0.47"/><path d="M72.222,43.86h50.394l25.2,43.644-25.2,43.644H72.222L47.025,87.5Zm49.239,2H73.377L49.335,87.5l24.042,41.644h48.084L145.5,87.5Z" transform="translate(78.412 224.43)" fill="#f7931e" opacity="0.47"/><path d="M127.882,43.86h50.394l25.2,43.644-25.2,43.644H127.882L102.685,87.5Zm49.239,2H129.037L104.995,87.5l24.042,41.644h48.084L201.163,87.5Z" transform="translate(168.997 224.43)" fill="#f7931e" opacity="0.47"/><path d="M156.232,60.25h50.394l25.2,43.644-25.2,43.644H156.232l-25.2-43.644Zm49.239,2H157.387l-24.042,41.644,24.042,41.644h48.084l24.042-41.644Z" transform="translate(215.136 164.976)" fill="#f7931e" opacity="0.47"/><path d="M184.372,76.36h50.394L259.962,120l-25.2,43.644H184.372L159.175,120Zm49.239,2H185.527L161.485,120l24.042,41.644h48.084L257.653,120Z" transform="translate(260.933 106.537)" fill="#f7931e" opacity="0.47"/><path d="M100.142,27.48h50.394l25.2,43.644-25.2,43.644H100.142l-25.2-43.644Zm49.239,2H101.3L77.255,71.124,101.3,112.768h48.084l24.042-41.644Z" transform="translate(123.851 283.848)" fill="#f7931e" opacity="0.47"/><path d="M91.413,66.54h69.023l34.5,59.777-34.5,59.777H91.413l-34.5-59.777Zm67.868,2H92.568L59.225,126.317l33.344,57.777h66.713l33.344-57.777Z" transform="translate(94.507 109.893)" fill="#f7931e" opacity="0.47"/><path d="M130.12,88.91h69.022l34.5,59.777-34.5,59.777H130.12L95.6,148.687Zm67.867,2H131.274L97.9,148.687l33.369,57.777h66.713l33.344-57.777Z" transform="translate(157.458 28.747)" fill="#f7931e" opacity="0.47"/><path d="M168.783,111.44h69.022l34.5,59.75-34.5,59.777H168.783l-34.5-59.777Zm67.868,2H169.938l-33.343,57.75,33.344,57.776h66.713l33.343-57.776Z" transform="translate(220.425 -52.954)" fill="#f7931e" opacity="0.32"/><path d="M168.783,66.71h69.022l34.5,59.75-34.5,59.777H168.783l-34.5-59.777Zm67.868,2H169.938l-33.343,57.75,33.344,57.776h66.713l33.343-57.776Z" transform="translate(220.425 109.303)" fill="#f7931e" opacity="0.32"/><path d="M168.783,21.66h69.023l34.5,59.777-34.5,59.777H168.783l-34.5-59.777Zm67.868,2H169.938L136.595,81.437l33.344,57.777h66.713l33.344-57.777Z" transform="translate(220.425 272.694)" fill="#f7931e" opacity="0.29"/><path d="M130.12,44.02h69.022l34.5,59.75-34.5,59.777H130.12L95.6,103.77Zm67.867,2H131.274L97.9,103.77l33.369,57.776h66.713l33.344-57.776Z" transform="translate(157.458 191.61)" fill="#f7931e" opacity="0.32"/><path d="M91.413,21.66h69.023l34.5,59.777-34.5,59.777H91.413l-34.5-59.777Zm67.868,2H92.568L59.225,81.437l33.344,57.777h66.713l33.344-57.777Z" transform="translate(94.507 272.694)" fill="#f7931e" opacity="0.29"/><path d="M130.12-.87h69.022l34.5,59.777-34.5,59.75H130.12L95.6,58.907Zm67.867,2H131.274L97.9,58.906l33.369,57.75h66.713l33.343-57.75Z" transform="translate(157.458 354.448)" fill="#f7931e" opacity="0.29"/><path d="M.131-1A1.133,1.133,0,0,1,1.263.131,1.133,1.133,0,0,1,.131,1.263,1.133,1.133,0,0,1-1,.131,1.133,1.133,0,0,1,.131-1Z" transform="translate(253.604 177.512)" fill="#f7931e"/><path d="M.131-1A1.133,1.133,0,0,1,1.263.131,1.133,1.133,0,0,1,.131,1.263,1.133,1.133,0,0,1-1,.131,1.133,1.133,0,0,1,.131-1Z" transform="translate(186.288 177.302)" fill="#f7931e"/><path d="M.131-1A1.133,1.133,0,0,1,1.263.131,1.133,1.133,0,0,1,.131,1.263,1.133,1.133,0,0,1-1,.131,1.133,1.133,0,0,1,.131-1Z" transform="translate(152.551 119.025)" fill="#f7931e"/><path d="M.131-1A1.133,1.133,0,0,1,1.263.131,1.133,1.133,0,0,1,.131,1.263,1.133,1.133,0,0,1-1,.131,1.133,1.133,0,0,1,.131-1Z" transform="translate(85.445 118.105)" fill="#f7931e"/><path d="M.131-1A1.133,1.133,0,0,1,1.263.131,1.133,1.133,0,0,1,.131,1.263,1.133,1.133,0,0,1-1,.131,1.133,1.133,0,0,1,.131-1Z" transform="translate(50.737 177.302)" fill="#f7931e"/><path d="M.131-1A1.133,1.133,0,0,1,1.263.131,1.133,1.133,0,0,1,.131,1.263,1.133,1.133,0,0,1-1,.131,1.133,1.133,0,0,1,.131-1Z" transform="translate(84.762 235.632)" fill="#f7931e"/><path d="M.131-1A1.133,1.133,0,0,1,1.263.131,1.133,1.133,0,0,1,.131,1.263,1.133,1.133,0,0,1-1,.131,1.133,1.133,0,0,1,.131-1Z" transform="translate(50.684 294.829)" fill="#f7931e"/><path d="M.131-1A1.133,1.133,0,0,1,1.263.131,1.133,1.133,0,0,1,.131,1.263,1.133,1.133,0,0,1-1,.131,1.133,1.133,0,0,1,.131-1Z" transform="translate(152.551 236.079)" fill="#f7931e"/><path d="M.131-1A1.133,1.133,0,0,1,1.263.131,1.133,1.133,0,0,1,.131,1.263,1.133,1.133,0,0,1-1,.131,1.133,1.133,0,0,1,.131-1Z" transform="translate(151.842 269.158)" fill="#f7931e"/><path d="M.131-1A1.133,1.133,0,0,1,1.263.131,1.133,1.133,0,0,1,.131,1.263,1.133,1.133,0,0,1-1,.131,1.133,1.133,0,0,1,.131-1Z" transform="translate(186.314 295.249)" fill="#f7931e"/><path d="M.131-1A1.133,1.133,0,0,1,1.263.131,1.133,1.133,0,0,1,.131,1.263,1.133,1.133,0,0,1-1,.131,1.133,1.133,0,0,1,.131-1Z" transform="translate(201.107 269.71)" fill="#f7931e"/><path d="M.131-1A1.133,1.133,0,0,1,1.263.131,1.133,1.133,0,0,1,.131,1.263,1.133,1.133,0,0,1-1,.131,1.133,1.133,0,0,1,.131-1Z" transform="translate(225.069 312.486)" fill="#f7931e"/><path d="M.131-1A1.133,1.133,0,0,1,1.263.131,1.133,1.133,0,0,1,.131,1.263,1.133,1.133,0,0,1-1,.131,1.133,1.133,0,0,1,.131-1Z" transform="translate(272.706 311.802)" fill="#f7931e"/><path d="M.131-1A1.133,1.133,0,0,1,1.263.131,1.133,1.133,0,0,1,.131,1.263,1.133,1.133,0,0,1-1,.131,1.133,1.133,0,0,1,.131-1Z" transform="translate(297.745 269.579)" fill="#f7931e"/><path d="M.131-1A1.133,1.133,0,0,1,1.263.131,1.133,1.133,0,0,1,.131,1.263,1.133,1.133,0,0,1-1,.131,1.133,1.133,0,0,1,.131-1Z" transform="translate(253.604 295.249)" fill="#f7931e"/><path d="M.131-1A1.133,1.133,0,0,1,1.263.131,1.133,1.133,0,0,1,.131,1.263,1.133,1.133,0,0,1-1,.131,1.133,1.133,0,0,1,.131-1Z" transform="translate(287.498 354.446)" fill="#f7931e"/><path d="M.131-1A1.133,1.133,0,0,1,1.263.131,1.133,1.133,0,0,1,.131,1.263,1.133,1.133,0,0,1-1,.131,1.133,1.133,0,0,1,.131-1Z" transform="translate(297.851 354.315)" fill="#f7931e"/><path d="M.131-1A1.133,1.133,0,0,1,1.263.131,1.133,1.133,0,0,1,.131,1.263,1.133,1.133,0,0,1-1,.131,1.133,1.133,0,0,1,.131-1Z" transform="translate(345.907 354.446)" fill="#f7931e"/><path d="M.131-1A1.133,1.133,0,0,1,1.263.131,1.133,1.133,0,0,1,.131,1.263,1.133,1.133,0,0,1-1,.131,1.133,1.133,0,0,1,.131-1Z" transform="translate(355.997 354.446)" fill="#f7931e"/><path d="M.131-1A1.133,1.133,0,0,1,1.263.131,1.133,1.133,0,0,1,.131,1.263,1.133,1.133,0,0,1-1,.131,1.133,1.133,0,0,1,.131-1Z" transform="translate(370.868 311.067)" fill="#f7931e"/><path d="M.131-1A1.133,1.133,0,0,1,1.263.131,1.133,1.133,0,0,1,.131,1.263,1.133,1.133,0,0,1-1,.131,1.133,1.133,0,0,1,.131-1Z" transform="translate(274.361 397.484)" fill="#f7931e"/><path d="M.131-1A1.133,1.133,0,0,1,1.263.131,1.133,1.133,0,0,1,.131,1.263,1.133,1.133,0,0,1-1,.131,1.133,1.133,0,0,1,.131-1Z" transform="translate(254.497 413.17)" fill="#f7931e"/><path d="M.131-1A1.133,1.133,0,0,1,1.263.131,1.133,1.133,0,0,1,.131,1.263,1.133,1.133,0,0,1-1,.131,1.133,1.133,0,0,1,.131-1Z" transform="translate(200.371 354.84)" fill="#f7931e"/><path d="M.131-1A1.133,1.133,0,0,1,1.263.131,1.133,1.133,0,0,1,.131,1.263,1.133,1.133,0,0,1-1,.131,1.133,1.133,0,0,1,.131-1Z" transform="translate(224.807 397.116)" fill="#f7931e"/><path d="M.131-1A1.133,1.133,0,0,1,1.263.131,1.133,1.133,0,0,1,.131,1.263,1.133,1.133,0,0,1-1,.131,1.133,1.133,0,0,1,.131-1Z" transform="translate(186.892 413.065)" fill="#f7931e"/><path d="M.131-1A1.133,1.133,0,0,1,1.263.131,1.133,1.133,0,0,1,.131,1.263,1.133,1.133,0,0,1-1,.131,1.133,1.133,0,0,1,.131-1Z" transform="translate(127.354 397.222)" fill="#f7931e"/><path d="M.131-1A1.133,1.133,0,0,1,1.263.131,1.133,1.133,0,0,1,.131,1.263,1.133,1.133,0,0,1-1,.131,1.133,1.133,0,0,1,.131-1Z" transform="translate(84.421 353.08)" fill="#f7931e"/><path d="M.131-1A1.133,1.133,0,0,1,1.263.131,1.133,1.133,0,0,1,.131,1.263,1.133,1.133,0,0,1-1,.131,1.133,1.133,0,0,1,.131-1Z" transform="translate(78.272 311.802)" fill="#f7931e"/><path d="M.131-1A1.133,1.133,0,0,1,1.263.131,1.133,1.133,0,0,1,.131,1.263,1.133,1.133,0,0,1-1,.131,1.133,1.133,0,0,1,.131-1Z" transform="translate(78.141 397.222)" fill="#f7931e"/><path d="M.131-1A1.133,1.133,0,0,1,1.263.131,1.133,1.133,0,0,1,.131,1.263,1.133,1.133,0,0,1-1,.131,1.133,1.133,0,0,1,.131-1Z" transform="translate(53.495 354.446)" fill="#f7931e"/><path d="M.131-1A1.133,1.133,0,0,1,1.263.131,1.133,1.133,0,0,1,.131,1.263,1.133,1.133,0,0,1-1,.131,1.133,1.133,0,0,1,.131-1Z" transform="translate(127.748 311.802)" fill="#f7931e"/><path d="M.131-1A1.133,1.133,0,0,1,1.263.131,1.133,1.133,0,0,1,.131,1.263,1.133,1.133,0,0,1-1,.131,1.133,1.133,0,0,1,.131-1Z" transform="translate(151.71 354)" fill="#f7931e"/><path d="M.131-1A1.133,1.133,0,0,1,1.263.131,1.133,1.133,0,0,1,.131,1.263,1.133,1.133,0,0,1-1,.131,1.133,1.133,0,0,1,.131-1Z" transform="translate(287.787 118.105)" fill="#f7931e"/><path d="M.131-1A1.133,1.133,0,0,1,1.263.131,1.133,1.133,0,0,1,.131,1.263,1.133,1.133,0,0,1-1,.131,1.133,1.133,0,0,1,.131-1Z" transform="translate(253.604 56.307)" fill="#f7931e"/><path d="M.131-1A1.133,1.133,0,0,1,1.263.131,1.133,1.133,0,0,1,.131,1.263,1.133,1.133,0,0,1-1,.131,1.133,1.133,0,0,1,.131-1Z" transform="translate(355.261 118.236)" fill="#f7931e"/><path d="M.158-1A1.159,1.159,0,0,1,1.315.158,1.159,1.159,0,0,1,.158,1.315,1.159,1.159,0,0,1-1,.158,1.159,1.159,0,0,1,.158-1Z" transform="translate(353.474 0.42)" fill="#f7931e"/><path d="M.131-1A1.133,1.133,0,0,1,1.263.131,1.133,1.133,0,0,1,.131,1.263,1.133,1.133,0,0,1-1,.131,1.133,1.133,0,0,1,.131-1Z" transform="translate(389.418 58.934)" fill="#f7931e"/><path d="M.158-1A1.159,1.159,0,0,1,1.315.158,1.159,1.159,0,0,1,.158,1.315,1.159,1.159,0,0,1-1,.158,1.159,1.159,0,0,1,.158-1Z" transform="translate(496.199 1.209)" fill="#f7931e"/><path d="M.131-1A1.133,1.133,0,0,1,1.263.131,1.133,1.133,0,0,1,.131,1.263,1.133,1.133,0,0,1-1,.131,1.133,1.133,0,0,1,.131-1Z" transform="translate(287.919 236.079)" fill="#f7931e"/><path d="M.131-1A1.133,1.133,0,0,1,1.263.131,1.133,1.133,0,0,1,.131,1.263,1.133,1.133,0,0,1-1,.131,1.133,1.133,0,0,1,.131-1Z" transform="translate(355.392 236.473)" fill="#f7931e"/><path d="M.131-1A1.133,1.133,0,0,1,1.263.131,1.133,1.133,0,0,1,.131,1.263,1.133,1.133,0,0,1-1,.131,1.133,1.133,0,0,1,.131-1Z" transform="translate(346.722 268.738)" fill="#f7931e"/><path d="M.131-1A1.133,1.133,0,0,1,1.263.131,1.133,1.133,0,0,1,.131,1.263,1.133,1.133,0,0,1-1,.131,1.133,1.133,0,0,1,.131-1Z" transform="translate(389.497 294.829)" fill="#f7931e"/><path d="M.131-1A1.133,1.133,0,0,1,1.263.131,1.133,1.133,0,0,1,.131,1.263,1.133,1.133,0,0,1-1,.131,1.133,1.133,0,0,1,.131-1Z" transform="translate(420.659 311.198)" fill="#f7931e"/><path d="M.131-1A1.133,1.133,0,0,1,1.263.131,1.133,1.133,0,0,1,.131,1.263,1.133,1.133,0,0,1-1,.131,1.133,1.133,0,0,1,.131-1Z" transform="translate(445.331 268.738)" fill="#f7931e"/><path d="M.131-1A1.133,1.133,0,0,1,1.263.131,1.133,1.133,0,0,1,.131,1.263,1.133,1.133,0,0,1-1,.131,1.133,1.133,0,0,1,.131-1Z" transform="translate(457.47 294.829)" fill="#f7931e"/><path d="M.131-1A1.133,1.133,0,0,1,1.263.131,1.133,1.133,0,0,1,.131,1.263,1.133,1.133,0,0,1-1,.131,1.133,1.133,0,0,1,.131-1Z" transform="translate(421.394 226.409)" fill="#f7931e"/><path d="M.131-1A1.133,1.133,0,0,1,1.263.131,1.133,1.133,0,0,1,.131,1.263,1.133,1.133,0,0,1-1,.131,1.133,1.133,0,0,1,.131-1Z" transform="translate(446.145 184.055)" fill="#f7931e"/><path d="M.131-1A1.133,1.133,0,0,1,1.263.131,1.133,1.133,0,0,1,.131,1.263,1.133,1.133,0,0,1-1,.131,1.133,1.133,0,0,1,.131-1Z" transform="translate(455.446 116.345)" fill="#f7931e"/><path d="M.131-1A1.133,1.133,0,0,1,1.263.131,1.133,1.133,0,0,1,.131,1.263,1.133,1.133,0,0,1-1,.131,1.133,1.133,0,0,1,.131-1Z" transform="translate(457.601 59.066)" fill="#f7931e"/><path d="M.131-1A1.133,1.133,0,0,1,1.263.131,1.133,1.133,0,0,1,.131,1.263,1.133,1.133,0,0,1-1,.131,1.133,1.133,0,0,1,.131-1Z" transform="translate(389.523 176.461)" fill="#f7931e"/><path d="M.131-1A1.133,1.133,0,0,1,1.263.131,1.133,1.133,0,0,1,.131,1.263,1.133,1.133,0,0,1-1,.131,1.133,1.133,0,0,1,.131-1Z" transform="translate(457.338 177.302)" fill="#f7931e"/><path d="M.131-1A1.133,1.133,0,0,1,1.263.131,1.133,1.133,0,0,1,.131,1.263,1.133,1.133,0,0,1-1,.131,1.133,1.133,0,0,1,.131-1Z" transform="translate(457.338 412.566)" fill="#f7931e"/><path d="M.131-1A1.133,1.133,0,0,1,1.263.131,1.133,1.133,0,0,1,.131,1.263,1.133,1.133,0,0,1-1,.131,1.133,1.133,0,0,1,.131-1Z" transform="translate(389.628 412.435)" fill="#f7931e"/><path d="M.131-1A1.133,1.133,0,0,1,1.263.131,1.133,1.133,0,0,1,.131,1.263,1.133,1.133,0,0,1-1,.131,1.133,1.133,0,0,1,.131-1Z" transform="translate(345.907 397.905)" fill="#f7931e"/><path d="M33.545,62.7-.875.484.875-.484l34.42,62.219Z" transform="translate(253.735 56.438)" fill="#f7931e"/><path d="M35.3,59.431-.852.523.852-.523,37.006,58.385Z" transform="translate(353.632 0.578)" fill="#f7931e"/><path d="M.832,59.568-.832,58.458,38.581-.555,40.244.555Z" transform="translate(457.837 0)" fill="#f7931e"/><path d="M50.868,1H0V-1H50.868Z" transform="translate(0 177.433)" fill="#f7931e"/><path d="M.012,1.631l-.025-2L50.8-1l.025,2Z" transform="translate(0 294.96)" fill="#f7931e"/><path d="M.007,1.394l-.015-2L53.619-1l.015,2Z" transform="translate(0 354.578)" fill="#f7931e"/><path d="M39.156,68.167-.861.509.861-.509,40.877,67.148Z" transform="translate(455.105 116.239)" fill="#f7931e"/><path d="M.85,54.284l-1.7-1.052L32.413-.526l1.7,1.052Z" transform="translate(44.982 397.222)" fill="#f7931e"/><path d="M26.353,54.784-.894.448l1.788-.9L28.141,53.888Z" transform="translate(127.485 397.222)" fill="#f7931e"/><path d="M73.038,1.42-.006,1,.006-1,73.05-.58Z" transform="translate(273.809 397.616)" fill="#f7931e"/></g><g transform="translate(0 0)"><path d="M121.726,208.463H52.7l-34.5-59.777L52.7,88.91h69.023l34.5,59.777Zm-67.868-2h66.713l33.344-57.777L120.571,90.91H53.858L20.515,148.687Z" transform="translate(313.804 145.985)" fill="#f7931e" opacity="0.47"/><path d="M121.706,163.717h-69L18.185,103.94,52.71,44.19h69l34.525,59.75Zm-67.841-2h66.687L153.92,103.94,120.551,46.19H53.864L20.495,103.94Z" transform="translate(313.85 73.204)" fill="#f7931e" opacity="0.47"/><path d="M94.846,114.918H44.452l-25.2-43.644,25.2-43.644H94.846l25.2,43.644Zm-49.239-2H93.691l24.042-41.644L93.691,29.63H45.607L21.565,71.274Z" transform="translate(347.226 46.253)" fill="#f7931e" opacity="0.47"/><path d="M122.616,131.148H72.222L47.025,87.5l25.2-43.644h50.394l25.2,43.644Zm-49.239-2h48.084L145.5,87.5,121.461,45.86H73.377L49.335,87.5Z" transform="translate(246.491 72.667)" fill="#f7931e" opacity="0.47"/><path d="M178.276,131.148H127.882L102.685,87.5l25.2-43.644h50.394l25.2,43.644Zm-49.239-2h48.084L201.163,87.5,177.121,45.86H129.037L104.995,87.5Z" transform="translate(44.586 72.667)" fill="#f7931e" opacity="0.47"/><path d="M206.626,147.538H156.232l-25.2-43.644,25.2-43.644h50.394l25.2,43.644Zm-49.239-2h48.084l24.042-41.644L205.471,62.25H157.387l-24.042,41.644Z" transform="translate(-58.253 99.341)" fill="#f7931e" opacity="0.47"/><path d="M234.766,163.648H184.372L159.175,120l25.2-43.644h50.394L259.962,120Zm-49.239-2h48.084L257.653,120,233.611,78.36H185.527L161.485,120Z" transform="translate(-160.33 125.56)" fill="#f7931e" opacity="0.47"/><path d="M150.536,114.768H100.142l-25.2-43.644,25.2-43.644h50.394l25.2,43.644Zm-49.239-2h48.084l24.042-41.644L149.381,29.48H101.3L77.255,71.124Z" transform="translate(145.212 46.009)" fill="#f7931e" opacity="0.47"/><path d="M160.436,186.093H91.413l-34.5-59.777,34.5-59.777h69.023l34.5,59.777Zm-67.868-2h66.713l33.344-57.777L159.281,68.54H92.568L59.225,126.317Z" transform="translate(173.384 109.578)" fill="#f7931e" opacity="0.47"/><path d="M199.116,208.463H130.093L95.6,148.687l34.5-59.777h69.022l34.525,59.777Zm-67.867-2h66.713l33.369-57.777L197.961,90.91H131.248L97.9,148.687Z" transform="translate(33.047 145.985)" fill="#f7931e" opacity="0.47"/><path d="M237.806,230.967H168.783l-34.5-59.75,34.5-59.777h69.023l34.5,59.777Zm-67.868-2h66.713l33.343-57.75L236.651,113.44H169.938l-33.343,57.776Z" transform="translate(-107.273 182.652)" fill="#f7931e" opacity="0.32"/><path d="M237.806,186.237H168.783l-34.5-59.75,34.5-59.777h69.023l34.5,59.777Zm-67.868-2h66.713l33.343-57.75L236.651,68.71H169.938l-33.343,57.777Z" transform="translate(-107.273 109.855)" fill="#f7931e" opacity="0.32"/><path d="M237.806,141.213H168.783l-34.5-59.777,34.5-59.777h69.023l34.5,59.777Zm-67.868-2h66.713l33.344-57.777L236.651,23.66H169.938L136.595,81.437Z" transform="translate(-107.273 36.537)" fill="#f7931e" opacity="0.29"/><path d="M199.116,163.547H130.093L95.6,103.8l34.5-59.777h69.022L233.64,103.8Zm-67.867-2h66.713L231.33,103.8,197.961,46.02H131.248L97.9,103.8Z" transform="translate(33.047 72.927)" fill="#f7931e" opacity="0.32"/><path d="M160.436,141.213H91.413l-34.5-59.777,34.5-59.777h69.023l34.5,59.777Zm-67.868-2h66.713l33.344-57.777L159.281,23.66H92.568L59.225,81.437Z" transform="translate(173.384 36.537)" fill="#f7931e" opacity="0.29"/><path d="M199.116,118.657H130.093L95.6,58.88l34.5-59.75h69.022L233.64,58.88Zm-67.867-2h66.713L231.33,58.88,197.961,1.13H131.248L97.9,58.88Z" transform="translate(33.047 -0.13)" fill="#f7931e" opacity="0.29"/><path d="M.131-1A1.133,1.133,0,0,1,1.263.131,1.133,1.133,0,0,1,.131,1.263,1.133,1.133,0,0,1-1,.131,1.133,1.133,0,0,1,.131-1Z" transform="translate(265.874 294.33)" fill="#f7931e"/><path d="M.131-1A1.133,1.133,0,0,1,1.263.131,1.133,1.133,0,0,1,.131,1.263,1.133,1.133,0,0,1-1,.131,1.133,1.133,0,0,1,.131-1Z" transform="translate(333.19 294.54)" fill="#f7931e"/><path d="M.131-1A1.133,1.133,0,0,1,1.263.131,1.133,1.133,0,0,1,.131,1.263,1.133,1.133,0,0,1-1,.131,1.133,1.133,0,0,1,.131-1Z" transform="translate(366.927 352.817)" fill="#f7931e"/><path d="M.131-1A1.133,1.133,0,0,1,1.263.131,1.133,1.133,0,0,1,.131,1.263,1.133,1.133,0,0,1-1,.131,1.133,1.133,0,0,1,.131-1Z" transform="translate(434.033 353.737)" fill="#f7931e"/><path d="M.131-1A1.133,1.133,0,0,1,1.263.131,1.133,1.133,0,0,1,.131,1.263,1.133,1.133,0,0,1-1,.131,1.133,1.133,0,0,1,.131-1Z" transform="translate(468.741 294.54)" fill="#f7931e"/><path d="M.131-1A1.133,1.133,0,0,1,1.263.131,1.133,1.133,0,0,1,.131,1.263,1.133,1.133,0,0,1-1,.131,1.133,1.133,0,0,1,.131-1Z" transform="translate(434.716 236.21)" fill="#f7931e"/><path d="M.131-1A1.133,1.133,0,0,1,1.263.131,1.133,1.133,0,0,1,.131,1.263,1.133,1.133,0,0,1-1,.131,1.133,1.133,0,0,1,.131-1Z" transform="translate(468.794 177.013)" fill="#f7931e"/><path d="M.131-1A1.133,1.133,0,0,1,1.263.131,1.133,1.133,0,0,1,.131,1.263,1.133,1.133,0,0,1-1,.131,1.133,1.133,0,0,1,.131-1Z" transform="translate(366.927 235.763)" fill="#f7931e"/><path d="M.131-1A1.133,1.133,0,0,1,1.263.131,1.133,1.133,0,0,1,.131,1.263,1.133,1.133,0,0,1-1,.131,1.133,1.133,0,0,1,.131-1Z" transform="translate(367.636 202.683)" fill="#f7931e"/><path d="M.131-1A1.133,1.133,0,0,1,1.263.131,1.133,1.133,0,0,1,.131,1.263,1.133,1.133,0,0,1-1,.131,1.133,1.133,0,0,1,.131-1Z" transform="translate(333.164 176.593)" fill="#f7931e"/><path d="M.131-1A1.133,1.133,0,0,1,1.263.131,1.133,1.133,0,0,1,.131,1.263,1.133,1.133,0,0,1-1,.131,1.133,1.133,0,0,1,.131-1Z" transform="translate(318.371 202.132)" fill="#f7931e"/><path d="M.131-1A1.133,1.133,0,0,1,1.263.131,1.133,1.133,0,0,1,.131,1.263,1.133,1.133,0,0,1-1,.131,1.133,1.133,0,0,1,.131-1Z" transform="translate(294.409 159.356)" fill="#f7931e"/><path d="M.131-1A1.133,1.133,0,0,1,1.263.131,1.133,1.133,0,0,1,.131,1.263,1.133,1.133,0,0,1-1,.131,1.133,1.133,0,0,1,.131-1Z" transform="translate(246.772 160.039)" fill="#f7931e"/><path d="M.131-1A1.133,1.133,0,0,1,1.263.131,1.133,1.133,0,0,1,.131,1.263,1.133,1.133,0,0,1-1,.131,1.133,1.133,0,0,1,.131-1Z" transform="translate(221.733 202.263)" fill="#f7931e"/><path d="M.131-1A1.133,1.133,0,0,1,1.263.131,1.133,1.133,0,0,1,.131,1.263,1.133,1.133,0,0,1-1,.131,1.133,1.133,0,0,1,.131-1Z" transform="translate(265.874 176.593)" fill="#f7931e"/><path d="M.131-1A1.133,1.133,0,0,1,1.263.131,1.133,1.133,0,0,1,.131,1.263,1.133,1.133,0,0,1-1,.131,1.133,1.133,0,0,1,.131-1Z" transform="translate(231.98 117.396)" fill="#f7931e"/><path d="M.131-1A1.133,1.133,0,0,1,1.263.131,1.133,1.133,0,0,1,.131,1.263,1.133,1.133,0,0,1-1,.131,1.133,1.133,0,0,1,.131-1Z" transform="translate(221.627 117.527)" fill="#f7931e"/><path d="M.131-1A1.133,1.133,0,0,1,1.263.131,1.133,1.133,0,0,1,.131,1.263,1.133,1.133,0,0,1-1,.131,1.133,1.133,0,0,1,.131-1Z" transform="translate(173.571 117.396)" fill="#f7931e"/><path d="M.131-1A1.133,1.133,0,0,1,1.263.131,1.133,1.133,0,0,1,.131,1.263,1.133,1.133,0,0,1-1,.131,1.133,1.133,0,0,1,.131-1Z" transform="translate(163.481 117.396)" fill="#f7931e"/><path d="M.131-1A1.133,1.133,0,0,1,1.263.131,1.133,1.133,0,0,1,.131,1.263,1.133,1.133,0,0,1-1,.131,1.133,1.133,0,0,1,.131-1Z" transform="translate(148.61 160.775)" fill="#f7931e"/><path d="M.131-1A1.133,1.133,0,0,1,1.263.131,1.133,1.133,0,0,1,.131,1.263,1.133,1.133,0,0,1-1,.131,1.133,1.133,0,0,1,.131-1Z" transform="translate(245.117 74.358)" fill="#f7931e"/><path d="M.131-1A1.133,1.133,0,0,1,1.263.131,1.133,1.133,0,0,1,.131,1.263,1.133,1.133,0,0,1-1,.131,1.133,1.133,0,0,1,.131-1Z" transform="translate(264.981 58.672)" fill="#f7931e"/><path d="M.131-1A1.133,1.133,0,0,1,1.263.131,1.133,1.133,0,0,1,.131,1.263,1.133,1.133,0,0,1-1,.131,1.133,1.133,0,0,1,.131-1Z" transform="translate(319.107 117.001)" fill="#f7931e"/><path d="M.131-1A1.133,1.133,0,0,1,1.263.131,1.133,1.133,0,0,1,.131,1.263,1.133,1.133,0,0,1-1,.131,1.133,1.133,0,0,1,.131-1Z" transform="translate(294.671 74.725)" fill="#f7931e"/><path d="M.131-1A1.133,1.133,0,0,1,1.263.131,1.133,1.133,0,0,1,.131,1.263,1.133,1.133,0,0,1-1,.131,1.133,1.133,0,0,1,.131-1Z" transform="translate(332.586 58.777)" fill="#f7931e"/><path d="M.131-1A1.133,1.133,0,0,1,1.263.131,1.133,1.133,0,0,1,.131,1.263,1.133,1.133,0,0,1-1,.131,1.133,1.133,0,0,1,.131-1Z" transform="translate(392.124 74.62)" fill="#f7931e"/><path d="M.131-1A1.133,1.133,0,0,1,1.263.131,1.133,1.133,0,0,1,.131,1.263,1.133,1.133,0,0,1-1,.131,1.133,1.133,0,0,1,.131-1Z" transform="translate(435.057 118.762)" fill="#f7931e"/><path d="M.131-1A1.133,1.133,0,0,1,1.263.131,1.133,1.133,0,0,1,.131,1.263,1.133,1.133,0,0,1-1,.131,1.133,1.133,0,0,1,.131-1Z" transform="translate(441.206 160.039)" fill="#f7931e"/><path d="M.131-1A1.133,1.133,0,0,1,1.263.131,1.133,1.133,0,0,1,.131,1.263,1.133,1.133,0,0,1-1,.131,1.133,1.133,0,0,1,.131-1Z" transform="translate(441.337 74.62)" fill="#f7931e"/><path d="M.131-1A1.133,1.133,0,0,1,1.263.131,1.133,1.133,0,0,1,.131,1.263,1.133,1.133,0,0,1-1,.131,1.133,1.133,0,0,1,.131-1Z" transform="translate(465.983 117.396)" fill="#f7931e"/><path d="M.131-1A1.133,1.133,0,0,1,1.263.131,1.133,1.133,0,0,1,.131,1.263,1.133,1.133,0,0,1-1,.131,1.133,1.133,0,0,1,.131-1Z" transform="translate(391.73 160.039)" fill="#f7931e"/><path d="M.131-1A1.133,1.133,0,0,1,1.263.131,1.133,1.133,0,0,1,.131,1.263,1.133,1.133,0,0,1-1,.131,1.133,1.133,0,0,1,.131-1Z" transform="translate(367.768 117.842)" fill="#f7931e"/><path d="M.131-1A1.133,1.133,0,0,1,1.263.131,1.133,1.133,0,0,1,.131,1.263,1.133,1.133,0,0,1-1,.131,1.133,1.133,0,0,1,.131-1Z" transform="translate(231.691 353.737)" fill="#f7931e"/><path d="M.131-1A1.133,1.133,0,0,1,1.263.131,1.133,1.133,0,0,1,.131,1.263,1.133,1.133,0,0,1-1,.131,1.133,1.133,0,0,1,.131-1Z" transform="translate(265.874 415.535)" fill="#f7931e"/><path d="M.131-1A1.133,1.133,0,0,1,1.263.131,1.133,1.133,0,0,1,.131,1.263,1.133,1.133,0,0,1-1,.131,1.133,1.133,0,0,1,.131-1Z" transform="translate(164.217 353.606)" fill="#f7931e"/><path d="M.158-1A1.159,1.159,0,0,1,1.315.158,1.159,1.159,0,0,1,.158,1.315,1.159,1.159,0,0,1-1,.158,1.159,1.159,0,0,1,.158-1Z" transform="translate(165.951 471.369)" fill="#f7931e"/><path d="M.131-1A1.133,1.133,0,0,1,1.263.131,1.133,1.133,0,0,1,.131,1.263,1.133,1.133,0,0,1-1,.131,1.133,1.133,0,0,1,.131-1Z" transform="translate(130.06 412.908)" fill="#f7931e"/><path d="M.158-1A1.159,1.159,0,0,1,1.315.158,1.159,1.159,0,0,1,.158,1.315,1.159,1.159,0,0,1-1,.158,1.159,1.159,0,0,1,.158-1Z" transform="translate(23.227 470.581)" fill="#f7931e"/><path d="M.131-1A1.133,1.133,0,0,1,1.263.131,1.133,1.133,0,0,1,.131,1.263,1.133,1.133,0,0,1-1,.131,1.133,1.133,0,0,1,.131-1Z" transform="translate(231.559 235.763)" fill="#f7931e"/><path d="M.131-1A1.133,1.133,0,0,1,1.263.131,1.133,1.133,0,0,1,.131,1.263,1.133,1.133,0,0,1-1,.131,1.133,1.133,0,0,1,.131-1Z" transform="translate(164.086 235.369)" fill="#f7931e"/><path d="M.131-1A1.133,1.133,0,0,1,1.263.131,1.133,1.133,0,0,1,.131,1.263,1.133,1.133,0,0,1-1,.131,1.133,1.133,0,0,1,.131-1Z" transform="translate(172.756 203.104)" fill="#f7931e"/><path d="M.131-1A1.133,1.133,0,0,1,1.263.131,1.133,1.133,0,0,1,.131,1.263,1.133,1.133,0,0,1-1,.131,1.133,1.133,0,0,1,.131-1Z" transform="translate(129.981 177.013)" fill="#f7931e"/><path d="M.131-1A1.133,1.133,0,0,1,1.263.131,1.133,1.133,0,0,1,.131,1.263,1.133,1.133,0,0,1-1,.131,1.133,1.133,0,0,1,.131-1Z" transform="translate(98.819 160.644)" fill="#f7931e"/><path d="M.131-1A1.133,1.133,0,0,1,1.263.131,1.133,1.133,0,0,1,.131,1.263,1.133,1.133,0,0,1-1,.131,1.133,1.133,0,0,1,.131-1Z" transform="translate(74.147 203.104)" fill="#f7931e"/><path d="M.131-1A1.133,1.133,0,0,1,1.263.131,1.133,1.133,0,0,1,.131,1.263,1.133,1.133,0,0,1-1,.131,1.133,1.133,0,0,1,.131-1Z" transform="translate(62.008 177.013)" fill="#f7931e"/><path d="M.131-1A1.133,1.133,0,0,1,1.263.131,1.133,1.133,0,0,1,.131,1.263,1.133,1.133,0,0,1-1,.131,1.133,1.133,0,0,1,.131-1Z" transform="translate(98.084 245.432)" fill="#f7931e"/><path d="M.131-1A1.133,1.133,0,0,1,1.263.131,1.133,1.133,0,0,1,.131,1.263,1.133,1.133,0,0,1-1,.131,1.133,1.133,0,0,1,.131-1Z" transform="translate(73.333 287.787)" fill="#f7931e"/><path d="M.131-1A1.133,1.133,0,0,1,1.263.131,1.133,1.133,0,0,1,.131,1.263,1.133,1.133,0,0,1-1,.131,1.133,1.133,0,0,1,.131-1Z" transform="translate(64.032 355.497)" fill="#f7931e"/><path d="M.131-1A1.133,1.133,0,0,1,1.263.131,1.133,1.133,0,0,1,.131,1.263,1.133,1.133,0,0,1-1,.131,1.133,1.133,0,0,1,.131-1Z" transform="translate(61.877 412.776)" fill="#f7931e"/><path d="M.131-1A1.133,1.133,0,0,1,1.263.131,1.133,1.133,0,0,1,.131,1.263,1.133,1.133,0,0,1-1,.131,1.133,1.133,0,0,1,.131-1Z" transform="translate(129.955 295.381)" fill="#f7931e"/><path d="M.131-1A1.133,1.133,0,0,1,1.263.131,1.133,1.133,0,0,1,.131,1.263,1.133,1.133,0,0,1-1,.131,1.133,1.133,0,0,1,.131-1Z" transform="translate(62.14 294.54)" fill="#f7931e"/><path d="M.131-1A1.133,1.133,0,0,1,1.263.131,1.133,1.133,0,0,1,.131,1.263,1.133,1.133,0,0,1-1,.131,1.133,1.133,0,0,1,.131-1Z" transform="translate(62.14 59.276)" fill="#f7931e"/><path d="M.131-1A1.133,1.133,0,0,1,1.263.131,1.133,1.133,0,0,1,.131,1.263,1.133,1.133,0,0,1-1,.131,1.133,1.133,0,0,1,.131-1Z" transform="translate(129.85 59.407)" fill="#f7931e"/><path d="M.131-1A1.133,1.133,0,0,1,1.263.131,1.133,1.133,0,0,1,.131,1.263,1.133,1.133,0,0,1-1,.131,1.133,1.133,0,0,1,.131-1Z" transform="translate(173.571 73.937)" fill="#f7931e"/><path d="M33.545,62.7-.875.484.875-.484l34.42,62.219Z" transform="translate(231.586 353.448)" fill="#f7931e"/><path d="M35.3,59.431-.852.523.852-.523,37.006,58.385Z" transform="translate(129.955 412.619)" fill="#f7931e"/><path d="M.832,59.568-.832,58.458,38.581-.555,40.244.555Z" transform="translate(22.491 413.092)" fill="#f7931e"/><path d="M50.868,1H0V-1H50.868Z" transform="translate(468.873 294.671)" fill="#f7931e"/><path d="M.012,1.631l-.025-2L50.8-1l.025,2Z" transform="translate(468.925 176.514)" fill="#f7931e"/><path d="M.007,1.394l-.015-2L53.619-1l.015,2Z" transform="translate(466.114 117.133)" fill="#f7931e"/><path d="M39.156,68.167-.861.509.861-.509,40.877,67.148Z" transform="translate(24.619 288.208)" fill="#f7931e"/><path d="M.85,54.284l-1.7-1.052L32.413-.526l1.7,1.052Z" transform="translate(441.495 21.125)" fill="#f7931e"/><path d="M26.353,54.784-.894.448l1.788-.9L28.141,53.888Z" transform="translate(365.009 20.547)" fill="#f7931e"/><path d="M73.038,1.42-.006,1,.006-1,73.05-.58Z" transform="translate(172.888 74.069)" fill="#f7931e"/></g><g transform="translate(519.741 -248)"><path d="M121.726,208.463H52.7l-34.5-59.777L52.7,88.91h69.023l34.5,59.777Zm-67.868-2h66.713l33.344-57.777L120.571,90.91H53.858L20.515,148.687Z" transform="translate(313.804 145.985)" fill="#f7931e" opacity="0.47"/><path d="M121.706,163.717h-69L18.185,103.94,52.71,44.19h69l34.525,59.75Zm-67.841-2h66.687L153.92,103.94,120.551,46.19H53.864L20.495,103.94Z" transform="translate(313.85 73.204)" fill="#f7931e" opacity="0.47"/><path d="M94.846,114.918H44.452l-25.2-43.644,25.2-43.644H94.846l25.2,43.644Zm-49.239-2H93.691l24.042-41.644L93.691,29.63H45.607L21.565,71.274Z" transform="translate(347.226 46.253)" fill="#f7931e" opacity="0.47"/><path d="M122.616,131.148H72.222L47.025,87.5l25.2-43.644h50.394l25.2,43.644Zm-49.239-2h48.084L145.5,87.5,121.461,45.86H73.377L49.335,87.5Z" transform="translate(246.491 72.667)" fill="#f7931e" opacity="0.47"/><path d="M178.276,131.148H127.882L102.685,87.5l25.2-43.644h50.394l25.2,43.644Zm-49.239-2h48.084L201.163,87.5,177.121,45.86H129.037L104.995,87.5Z" transform="translate(44.586 72.667)" fill="#f7931e" opacity="0.47"/><path d="M206.626,147.538H156.232l-25.2-43.644,25.2-43.644h50.394l25.2,43.644Zm-49.239-2h48.084l24.042-41.644L205.471,62.25H157.387l-24.042,41.644Z" transform="translate(-58.253 99.341)" fill="#f7931e" opacity="0.47"/><path d="M234.766,163.648H184.372L159.175,120l25.2-43.644h50.394L259.962,120Zm-49.239-2h48.084L257.653,120,233.611,78.36H185.527L161.485,120Z" transform="translate(-160.33 125.56)" fill="#f7931e" opacity="0.47"/><path d="M150.536,114.768H100.142l-25.2-43.644,25.2-43.644h50.394l25.2,43.644Zm-49.239-2h48.084l24.042-41.644L149.381,29.48H101.3L77.255,71.124Z" transform="translate(145.212 46.009)" fill="#f7931e" opacity="0.47"/><path d="M160.436,186.093H91.413l-34.5-59.777,34.5-59.777h69.023l34.5,59.777Zm-67.868-2h66.713l33.344-57.777L159.281,68.54H92.568L59.225,126.317Z" transform="translate(173.384 109.578)" fill="#f7931e" opacity="0.47"/><path d="M199.116,208.463H130.093L95.6,148.687l34.5-59.777h69.022l34.525,59.777Zm-67.867-2h66.713l33.369-57.777L197.961,90.91H131.248L97.9,148.687Z" transform="translate(33.047 145.985)" fill="#f7931e" opacity="0.47"/><path d="M237.806,230.967H168.783l-34.5-59.75,34.5-59.777h69.023l34.5,59.777Zm-67.868-2h66.713l33.343-57.75L236.651,113.44H169.938l-33.343,57.776Z" transform="translate(-107.273 182.652)" fill="#f7931e" opacity="0.32"/><path d="M237.806,186.237H168.783l-34.5-59.75,34.5-59.777h69.023l34.5,59.777Zm-67.868-2h66.713l33.343-57.75L236.651,68.71H169.938l-33.343,57.777Z" transform="translate(-107.273 109.855)" fill="#f7931e" opacity="0.32"/><path d="M237.806,141.213H168.783l-34.5-59.777,34.5-59.777h69.023l34.5,59.777Zm-67.868-2h66.713l33.344-57.777L236.651,23.66H169.938L136.595,81.437Z" transform="translate(-107.273 36.537)" fill="#f7931e" opacity="0.29"/><path d="M199.116,163.547H130.093L95.6,103.8l34.5-59.777h69.022L233.64,103.8Zm-67.867-2h66.713L231.33,103.8,197.961,46.02H131.248L97.9,103.8Z" transform="translate(33.047 72.927)" fill="#f7931e" opacity="0.32"/><path d="M160.436,141.213H91.413l-34.5-59.777,34.5-59.777h69.023l34.5,59.777Zm-67.868-2h66.713l33.344-57.777L159.281,23.66H92.568L59.225,81.437Z" transform="translate(173.384 36.537)" fill="#f7931e" opacity="0.29"/><path d="M199.116,118.657H130.093L95.6,58.88l34.5-59.75h69.022L233.64,58.88Zm-67.867-2h66.713L231.33,58.88,197.961,1.13H131.248L97.9,58.88Z" transform="translate(33.047 -0.13)" fill="#f7931e" opacity="0.29"/><path d="M.131-1A1.133,1.133,0,0,1,1.263.131,1.133,1.133,0,0,1,.131,1.263,1.133,1.133,0,0,1-1,.131,1.133,1.133,0,0,1,.131-1Z" transform="translate(265.874 294.33)" fill="#f7931e"/><path d="M.131-1A1.133,1.133,0,0,1,1.263.131,1.133,1.133,0,0,1,.131,1.263,1.133,1.133,0,0,1-1,.131,1.133,1.133,0,0,1,.131-1Z" transform="translate(333.19 294.54)" fill="#f7931e"/><path d="M.131-1A1.133,1.133,0,0,1,1.263.131,1.133,1.133,0,0,1,.131,1.263,1.133,1.133,0,0,1-1,.131,1.133,1.133,0,0,1,.131-1Z" transform="translate(366.927 352.817)" fill="#f7931e"/><path d="M.131-1A1.133,1.133,0,0,1,1.263.131,1.133,1.133,0,0,1,.131,1.263,1.133,1.133,0,0,1-1,.131,1.133,1.133,0,0,1,.131-1Z" transform="translate(434.033 353.737)" fill="#f7931e"/><path d="M.131-1A1.133,1.133,0,0,1,1.263.131,1.133,1.133,0,0,1,.131,1.263,1.133,1.133,0,0,1-1,.131,1.133,1.133,0,0,1,.131-1Z" transform="translate(468.741 294.54)" fill="#f7931e"/><path d="M.131-1A1.133,1.133,0,0,1,1.263.131,1.133,1.133,0,0,1,.131,1.263,1.133,1.133,0,0,1-1,.131,1.133,1.133,0,0,1,.131-1Z" transform="translate(434.716 236.21)" fill="#f7931e"/><path d="M.131-1A1.133,1.133,0,0,1,1.263.131,1.133,1.133,0,0,1,.131,1.263,1.133,1.133,0,0,1-1,.131,1.133,1.133,0,0,1,.131-1Z" transform="translate(468.794 177.013)" fill="#f7931e"/><path d="M.131-1A1.133,1.133,0,0,1,1.263.131,1.133,1.133,0,0,1,.131,1.263,1.133,1.133,0,0,1-1,.131,1.133,1.133,0,0,1,.131-1Z" transform="translate(366.927 235.763)" fill="#f7931e"/><path d="M.131-1A1.133,1.133,0,0,1,1.263.131,1.133,1.133,0,0,1,.131,1.263,1.133,1.133,0,0,1-1,.131,1.133,1.133,0,0,1,.131-1Z" transform="translate(367.636 202.683)" fill="#f7931e"/><path d="M.131-1A1.133,1.133,0,0,1,1.263.131,1.133,1.133,0,0,1,.131,1.263,1.133,1.133,0,0,1-1,.131,1.133,1.133,0,0,1,.131-1Z" transform="translate(333.164 176.593)" fill="#f7931e"/><path d="M.131-1A1.133,1.133,0,0,1,1.263.131,1.133,1.133,0,0,1,.131,1.263,1.133,1.133,0,0,1-1,.131,1.133,1.133,0,0,1,.131-1Z" transform="translate(318.371 202.132)" fill="#f7931e"/><path d="M.131-1A1.133,1.133,0,0,1,1.263.131,1.133,1.133,0,0,1,.131,1.263,1.133,1.133,0,0,1-1,.131,1.133,1.133,0,0,1,.131-1Z" transform="translate(294.409 159.356)" fill="#f7931e"/><path d="M.131-1A1.133,1.133,0,0,1,1.263.131,1.133,1.133,0,0,1,.131,1.263,1.133,1.133,0,0,1-1,.131,1.133,1.133,0,0,1,.131-1Z" transform="translate(246.772 160.039)" fill="#f7931e"/><path d="M.131-1A1.133,1.133,0,0,1,1.263.131,1.133,1.133,0,0,1,.131,1.263,1.133,1.133,0,0,1-1,.131,1.133,1.133,0,0,1,.131-1Z" transform="translate(221.733 202.263)" fill="#f7931e"/><path d="M.131-1A1.133,1.133,0,0,1,1.263.131,1.133,1.133,0,0,1,.131,1.263,1.133,1.133,0,0,1-1,.131,1.133,1.133,0,0,1,.131-1Z" transform="translate(265.874 176.593)" fill="#f7931e"/><path d="M.131-1A1.133,1.133,0,0,1,1.263.131,1.133,1.133,0,0,1,.131,1.263,1.133,1.133,0,0,1-1,.131,1.133,1.133,0,0,1,.131-1Z" transform="translate(231.98 117.396)" fill="#f7931e"/><path d="M.131-1A1.133,1.133,0,0,1,1.263.131,1.133,1.133,0,0,1,.131,1.263,1.133,1.133,0,0,1-1,.131,1.133,1.133,0,0,1,.131-1Z" transform="translate(221.627 117.527)" fill="#f7931e"/><path d="M.131-1A1.133,1.133,0,0,1,1.263.131,1.133,1.133,0,0,1,.131,1.263,1.133,1.133,0,0,1-1,.131,1.133,1.133,0,0,1,.131-1Z" transform="translate(173.571 117.396)" fill="#f7931e"/><path d="M.131-1A1.133,1.133,0,0,1,1.263.131,1.133,1.133,0,0,1,.131,1.263,1.133,1.133,0,0,1-1,.131,1.133,1.133,0,0,1,.131-1Z" transform="translate(163.481 117.396)" fill="#f7931e"/><path d="M.131-1A1.133,1.133,0,0,1,1.263.131,1.133,1.133,0,0,1,.131,1.263,1.133,1.133,0,0,1-1,.131,1.133,1.133,0,0,1,.131-1Z" transform="translate(148.61 160.775)" fill="#f7931e"/><path d="M.131-1A1.133,1.133,0,0,1,1.263.131,1.133,1.133,0,0,1,.131,1.263,1.133,1.133,0,0,1-1,.131,1.133,1.133,0,0,1,.131-1Z" transform="translate(245.117 74.358)" fill="#f7931e"/><path d="M.131-1A1.133,1.133,0,0,1,1.263.131,1.133,1.133,0,0,1,.131,1.263,1.133,1.133,0,0,1-1,.131,1.133,1.133,0,0,1,.131-1Z" transform="translate(264.981 58.672)" fill="#f7931e"/><path d="M.131-1A1.133,1.133,0,0,1,1.263.131,1.133,1.133,0,0,1,.131,1.263,1.133,1.133,0,0,1-1,.131,1.133,1.133,0,0,1,.131-1Z" transform="translate(319.107 117.001)" fill="#f7931e"/><path d="M.131-1A1.133,1.133,0,0,1,1.263.131,1.133,1.133,0,0,1,.131,1.263,1.133,1.133,0,0,1-1,.131,1.133,1.133,0,0,1,.131-1Z" transform="translate(294.671 74.725)" fill="#f7931e"/><path d="M.131-1A1.133,1.133,0,0,1,1.263.131,1.133,1.133,0,0,1,.131,1.263,1.133,1.133,0,0,1-1,.131,1.133,1.133,0,0,1,.131-1Z" transform="translate(332.586 58.777)" fill="#f7931e"/><path d="M.131-1A1.133,1.133,0,0,1,1.263.131,1.133,1.133,0,0,1,.131,1.263,1.133,1.133,0,0,1-1,.131,1.133,1.133,0,0,1,.131-1Z" transform="translate(392.124 74.62)" fill="#f7931e"/><path d="M.131-1A1.133,1.133,0,0,1,1.263.131,1.133,1.133,0,0,1,.131,1.263,1.133,1.133,0,0,1-1,.131,1.133,1.133,0,0,1,.131-1Z" transform="translate(435.057 118.762)" fill="#f7931e"/><path d="M.131-1A1.133,1.133,0,0,1,1.263.131,1.133,1.133,0,0,1,.131,1.263,1.133,1.133,0,0,1-1,.131,1.133,1.133,0,0,1,.131-1Z" transform="translate(441.206 160.039)" fill="#f7931e"/><path d="M.131-1A1.133,1.133,0,0,1,1.263.131,1.133,1.133,0,0,1,.131,1.263,1.133,1.133,0,0,1-1,.131,1.133,1.133,0,0,1,.131-1Z" transform="translate(441.337 74.62)" fill="#f7931e"/><path d="M.131-1A1.133,1.133,0,0,1,1.263.131,1.133,1.133,0,0,1,.131,1.263,1.133,1.133,0,0,1-1,.131,1.133,1.133,0,0,1,.131-1Z" transform="translate(465.983 117.396)" fill="#f7931e"/><path d="M.131-1A1.133,1.133,0,0,1,1.263.131,1.133,1.133,0,0,1,.131,1.263,1.133,1.133,0,0,1-1,.131,1.133,1.133,0,0,1,.131-1Z" transform="translate(391.73 160.039)" fill="#f7931e"/><path d="M.131-1A1.133,1.133,0,0,1,1.263.131,1.133,1.133,0,0,1,.131,1.263,1.133,1.133,0,0,1-1,.131,1.133,1.133,0,0,1,.131-1Z" transform="translate(367.768 117.842)" fill="#f7931e"/><path d="M.131-1A1.133,1.133,0,0,1,1.263.131,1.133,1.133,0,0,1,.131,1.263,1.133,1.133,0,0,1-1,.131,1.133,1.133,0,0,1,.131-1Z" transform="translate(231.691 353.737)" fill="#f7931e"/><path d="M.131-1A1.133,1.133,0,0,1,1.263.131,1.133,1.133,0,0,1,.131,1.263,1.133,1.133,0,0,1-1,.131,1.133,1.133,0,0,1,.131-1Z" transform="translate(265.874 415.535)" fill="#f7931e"/><path d="M.131-1A1.133,1.133,0,0,1,1.263.131,1.133,1.133,0,0,1,.131,1.263,1.133,1.133,0,0,1-1,.131,1.133,1.133,0,0,1,.131-1Z" transform="translate(164.217 353.606)" fill="#f7931e"/><path d="M.158-1A1.159,1.159,0,0,1,1.315.158,1.159,1.159,0,0,1,.158,1.315,1.159,1.159,0,0,1-1,.158,1.159,1.159,0,0,1,.158-1Z" transform="translate(165.951 471.369)" fill="#f7931e"/><path d="M.131-1A1.133,1.133,0,0,1,1.263.131,1.133,1.133,0,0,1,.131,1.263,1.133,1.133,0,0,1-1,.131,1.133,1.133,0,0,1,.131-1Z" transform="translate(130.06 412.908)" fill="#f7931e"/><path d="M.158-1A1.159,1.159,0,0,1,1.315.158,1.159,1.159,0,0,1,.158,1.315,1.159,1.159,0,0,1-1,.158,1.159,1.159,0,0,1,.158-1Z" transform="translate(23.227 470.581)" fill="#f7931e"/><path d="M.131-1A1.133,1.133,0,0,1,1.263.131,1.133,1.133,0,0,1,.131,1.263,1.133,1.133,0,0,1-1,.131,1.133,1.133,0,0,1,.131-1Z" transform="translate(231.559 235.763)" fill="#f7931e"/><path d="M.131-1A1.133,1.133,0,0,1,1.263.131,1.133,1.133,0,0,1,.131,1.263,1.133,1.133,0,0,1-1,.131,1.133,1.133,0,0,1,.131-1Z" transform="translate(164.086 235.369)" fill="#f7931e"/><path d="M.131-1A1.133,1.133,0,0,1,1.263.131,1.133,1.133,0,0,1,.131,1.263,1.133,1.133,0,0,1-1,.131,1.133,1.133,0,0,1,.131-1Z" transform="translate(172.756 203.104)" fill="#f7931e"/><path d="M.131-1A1.133,1.133,0,0,1,1.263.131,1.133,1.133,0,0,1,.131,1.263,1.133,1.133,0,0,1-1,.131,1.133,1.133,0,0,1,.131-1Z" transform="translate(129.981 177.013)" fill="#f7931e"/><path d="M.131-1A1.133,1.133,0,0,1,1.263.131,1.133,1.133,0,0,1,.131,1.263,1.133,1.133,0,0,1-1,.131,1.133,1.133,0,0,1,.131-1Z" transform="translate(98.819 160.644)" fill="#f7931e"/><path d="M.131-1A1.133,1.133,0,0,1,1.263.131,1.133,1.133,0,0,1,.131,1.263,1.133,1.133,0,0,1-1,.131,1.133,1.133,0,0,1,.131-1Z" transform="translate(74.147 203.104)" fill="#f7931e"/><path d="M.131-1A1.133,1.133,0,0,1,1.263.131,1.133,1.133,0,0,1,.131,1.263,1.133,1.133,0,0,1-1,.131,1.133,1.133,0,0,1,.131-1Z" transform="translate(62.008 177.013)" fill="#f7931e"/><path d="M.131-1A1.133,1.133,0,0,1,1.263.131,1.133,1.133,0,0,1,.131,1.263,1.133,1.133,0,0,1-1,.131,1.133,1.133,0,0,1,.131-1Z" transform="translate(98.084 245.432)" fill="#f7931e"/><path d="M.131-1A1.133,1.133,0,0,1,1.263.131,1.133,1.133,0,0,1,.131,1.263,1.133,1.133,0,0,1-1,.131,1.133,1.133,0,0,1,.131-1Z" transform="translate(73.333 287.787)" fill="#f7931e"/><path d="M.131-1A1.133,1.133,0,0,1,1.263.131,1.133,1.133,0,0,1,.131,1.263,1.133,1.133,0,0,1-1,.131,1.133,1.133,0,0,1,.131-1Z" transform="translate(64.032 355.497)" fill="#f7931e"/><path d="M.131-1A1.133,1.133,0,0,1,1.263.131,1.133,1.133,0,0,1,.131,1.263,1.133,1.133,0,0,1-1,.131,1.133,1.133,0,0,1,.131-1Z" transform="translate(61.877 412.776)" fill="#f7931e"/><path d="M.131-1A1.133,1.133,0,0,1,1.263.131,1.133,1.133,0,0,1,.131,1.263,1.133,1.133,0,0,1-1,.131,1.133,1.133,0,0,1,.131-1Z" transform="translate(129.955 295.381)" fill="#f7931e"/><path d="M.131-1A1.133,1.133,0,0,1,1.263.131,1.133,1.133,0,0,1,.131,1.263,1.133,1.133,0,0,1-1,.131,1.133,1.133,0,0,1,.131-1Z" transform="translate(62.14 294.54)" fill="#f7931e"/><path d="M.131-1A1.133,1.133,0,0,1,1.263.131,1.133,1.133,0,0,1,.131,1.263,1.133,1.133,0,0,1-1,.131,1.133,1.133,0,0,1,.131-1Z" transform="translate(62.14 59.276)" fill="#f7931e"/><path d="M.131-1A1.133,1.133,0,0,1,1.263.131,1.133,1.133,0,0,1,.131,1.263,1.133,1.133,0,0,1-1,.131,1.133,1.133,0,0,1,.131-1Z" transform="translate(129.85 59.407)" fill="#f7931e"/><path d="M.131-1A1.133,1.133,0,0,1,1.263.131,1.133,1.133,0,0,1,.131,1.263,1.133,1.133,0,0,1-1,.131,1.133,1.133,0,0,1,.131-1Z" transform="translate(173.571 73.937)" fill="#f7931e"/><path d="M33.545,62.7-.875.484.875-.484l34.42,62.219Z" transform="translate(231.586 353.448)" fill="#f7931e"/><path d="M35.3,59.431-.852.523.852-.523,37.006,58.385Z" transform="translate(129.955 412.619)" fill="#f7931e"/><path d="M.832,59.568-.832,58.458,38.581-.555,40.244.555Z" transform="translate(22.491 413.092)" fill="#f7931e"/><path d="M50.868,1H0V-1H50.868Z" transform="translate(468.873 294.671)" fill="#f7931e"/><path d="M.012,1.631l-.025-2L50.8-1l.025,2Z" transform="translate(468.925 176.514)" fill="#f7931e"/><path d="M.007,1.394l-.015-2L53.619-1l.015,2Z" transform="translate(466.114 117.133)" fill="#f7931e"/><path d="M39.156,68.167-.861.509.861-.509,40.877,67.148Z" transform="translate(24.619 288.208)" fill="#f7931e"/><path d="M.85,54.284l-1.7-1.052L32.413-.526l1.7,1.052Z" transform="translate(441.495 21.125)" fill="#f7931e"/><path d="M26.353,54.784-.894.448l1.788-.9L28.141,53.888Z" transform="translate(365.009 20.547)" fill="#f7931e"/><path d="M73.038,1.42-.006,1,.006-1,73.05-.58Z" transform="translate(172.888 74.069)" fill="#f7931e"/></g><g transform="translate(0 472.105)"><path d="M52.7,88.91h69.023l34.5,59.777-34.5,59.777H52.7l-34.5-59.777Zm67.868,2H53.858L20.515,148.687l33.344,57.777h66.713l33.344-57.777Z" transform="translate(313.804 28.747)" fill="#f7931e" opacity="0.47"/><path d="M52.71,44.19h69l34.525,59.777-34.525,59.75h-69l-34.525-59.75Zm67.841,2H53.864L20.495,103.966l33.369,57.75h66.687l33.369-57.75Z" transform="translate(313.85 190.994)" fill="#f7931e" opacity="0.47"/><path d="M44.452,27.63H94.846l25.2,43.644-25.2,43.644H44.452l-25.2-43.644Zm49.239,2H45.607L21.565,71.274l24.042,41.644H93.691l24.042-41.644Z" transform="translate(347.226 283.304)" fill="#f7931e" opacity="0.47"/><path d="M72.222,43.86h50.394l25.2,43.644-25.2,43.644H72.222L47.025,87.5Zm49.239,2H73.377L49.335,87.5l24.042,41.644h48.084L145.5,87.5Z" transform="translate(246.491 224.43)" fill="#f7931e" opacity="0.47"/><path d="M127.882,43.86h50.394l25.2,43.644-25.2,43.644H127.882L102.685,87.5Zm49.239,2H129.037L104.995,87.5l24.042,41.644h48.084L201.163,87.5Z" transform="translate(44.586 224.43)" fill="#f7931e" opacity="0.47"/><path d="M156.232,60.25h50.394l25.2,43.644-25.2,43.644H156.232l-25.2-43.644Zm49.239,2H157.387l-24.042,41.644,24.042,41.644h48.084l24.042-41.644Z" transform="translate(-58.253 164.976)" fill="#f7931e" opacity="0.47"/><path d="M184.372,76.36h50.394L259.962,120l-25.2,43.644H184.372L159.175,120Zm49.239,2H185.527L161.485,120l24.042,41.644h48.084L257.653,120Z" transform="translate(-160.33 106.537)" fill="#f7931e" opacity="0.47"/><path d="M100.142,27.48h50.394l25.2,43.644-25.2,43.644H100.142l-25.2-43.644Zm49.239,2H101.3L77.255,71.124,101.3,112.768h48.084l24.042-41.644Z" transform="translate(145.212 283.848)" fill="#f7931e" opacity="0.47"/><path d="M91.413,66.54h69.023l34.5,59.777-34.5,59.777H91.413l-34.5-59.777Zm67.868,2H92.568L59.225,126.317l33.344,57.777h66.713l33.344-57.777Z" transform="translate(173.384 109.893)" fill="#f7931e" opacity="0.47"/><path d="M130.093,88.91h69.022l34.525,59.777-34.525,59.777H130.093L95.6,148.687Zm67.868,2H131.248L97.9,148.687l33.344,57.777h66.713l33.369-57.777Z" transform="translate(33.047 28.747)" fill="#f7931e" opacity="0.47"/><path d="M168.783,111.44h69.022l34.5,59.75-34.5,59.777H168.783l-34.5-59.777Zm67.868,2H169.938l-33.343,57.75,33.343,57.776h66.713l33.344-57.776Z" transform="translate(-107.273 -52.954)" fill="#f7931e" opacity="0.32"/><path d="M168.783,66.71h69.022l34.5,59.75-34.5,59.777H168.783l-34.5-59.777Zm67.868,2H169.938l-33.343,57.75,33.343,57.776h66.713l33.344-57.776Z" transform="translate(-107.273 109.303)" fill="#f7931e" opacity="0.32"/><path d="M168.783,21.66h69.023l34.5,59.777-34.5,59.777H168.783l-34.5-59.777Zm67.868,2H169.938L136.595,81.437l33.344,57.777h66.713l33.344-57.777Z" transform="translate(-107.273 272.694)" fill="#f7931e" opacity="0.29"/><path d="M130.093,44.02h69.022l34.525,59.75-34.525,59.777H130.093L95.6,103.77Zm67.868,2H131.248L97.9,103.77l33.344,57.776h66.713L231.33,103.77Z" transform="translate(33.047 191.61)" fill="#f7931e" opacity="0.32"/><path d="M91.413,21.66h69.023l34.5,59.777-34.5,59.777H91.413l-34.5-59.777Zm67.868,2H92.568L59.225,81.437l33.344,57.777h66.713l33.344-57.777Z" transform="translate(173.384 272.694)" fill="#f7931e" opacity="0.29"/><path d="M130.093-.87h69.022L233.64,58.907l-34.525,59.75H130.093L95.6,58.907Zm67.868,2H131.248L97.9,58.906l33.343,57.75h66.713l33.369-57.75Z" transform="translate(33.047 354.448)" fill="#f7931e" opacity="0.29"/><path d="M.131-1A1.133,1.133,0,0,1,1.263.131,1.133,1.133,0,0,1,.131,1.263,1.133,1.133,0,0,1-1,.131,1.133,1.133,0,0,1,.131-1Z" transform="translate(265.874 177.512)" fill="#f7931e"/><path d="M.131-1A1.133,1.133,0,0,1,1.263.131,1.133,1.133,0,0,1,.131,1.263,1.133,1.133,0,0,1-1,.131,1.133,1.133,0,0,1,.131-1Z" transform="translate(333.19 177.302)" fill="#f7931e"/><path d="M.131-1A1.133,1.133,0,0,1,1.263.131,1.133,1.133,0,0,1,.131,1.263,1.133,1.133,0,0,1-1,.131,1.133,1.133,0,0,1,.131-1Z" transform="translate(366.927 119.025)" fill="#f7931e"/><path d="M.131-1A1.133,1.133,0,0,1,1.263.131,1.133,1.133,0,0,1,.131,1.263,1.133,1.133,0,0,1-1,.131,1.133,1.133,0,0,1,.131-1Z" transform="translate(434.032 118.105)" fill="#f7931e"/><path d="M.131-1A1.133,1.133,0,0,1,1.263.131,1.133,1.133,0,0,1,.131,1.263,1.133,1.133,0,0,1-1,.131,1.133,1.133,0,0,1,.131-1Z" transform="translate(468.741 177.302)" fill="#f7931e"/><path d="M.131-1A1.133,1.133,0,0,1,1.263.131,1.133,1.133,0,0,1,.131,1.263,1.133,1.133,0,0,1-1,.131,1.133,1.133,0,0,1,.131-1Z" transform="translate(434.716 235.632)" fill="#f7931e"/><path d="M.131-1A1.133,1.133,0,0,1,1.263.131,1.133,1.133,0,0,1,.131,1.263,1.133,1.133,0,0,1-1,.131,1.133,1.133,0,0,1,.131-1Z" transform="translate(468.794 294.829)" fill="#f7931e"/><path d="M.131-1A1.133,1.133,0,0,1,1.263.131,1.133,1.133,0,0,1,.131,1.263,1.133,1.133,0,0,1-1,.131,1.133,1.133,0,0,1,.131-1Z" transform="translate(366.927 236.079)" fill="#f7931e"/><path d="M.131-1A1.133,1.133,0,0,1,1.263.131,1.133,1.133,0,0,1,.131,1.263,1.133,1.133,0,0,1-1,.131,1.133,1.133,0,0,1,.131-1Z" transform="translate(367.636 269.158)" fill="#f7931e"/><path d="M.131-1A1.133,1.133,0,0,1,1.263.131,1.133,1.133,0,0,1,.131,1.263,1.133,1.133,0,0,1-1,.131,1.133,1.133,0,0,1,.131-1Z" transform="translate(333.164 295.249)" fill="#f7931e"/><path d="M.131-1A1.133,1.133,0,0,1,1.263.131,1.133,1.133,0,0,1,.131,1.263,1.133,1.133,0,0,1-1,.131,1.133,1.133,0,0,1,.131-1Z" transform="translate(318.371 269.71)" fill="#f7931e"/><path d="M.131-1A1.133,1.133,0,0,1,1.263.131,1.133,1.133,0,0,1,.131,1.263,1.133,1.133,0,0,1-1,.131,1.133,1.133,0,0,1,.131-1Z" transform="translate(294.408 312.486)" fill="#f7931e"/><path d="M.131-1A1.133,1.133,0,0,1,1.263.131,1.133,1.133,0,0,1,.131,1.263,1.133,1.133,0,0,1-1,.131,1.133,1.133,0,0,1,.131-1Z" transform="translate(246.772 311.802)" fill="#f7931e"/><path d="M.131-1A1.133,1.133,0,0,1,1.263.131,1.133,1.133,0,0,1,.131,1.263,1.133,1.133,0,0,1-1,.131,1.133,1.133,0,0,1,.131-1Z" transform="translate(221.733 269.579)" fill="#f7931e"/><path d="M.131-1A1.133,1.133,0,0,1,1.263.131,1.133,1.133,0,0,1,.131,1.263,1.133,1.133,0,0,1-1,.131,1.133,1.133,0,0,1,.131-1Z" transform="translate(265.874 295.249)" fill="#f7931e"/><path d="M.131-1A1.133,1.133,0,0,1,1.263.131,1.133,1.133,0,0,1,.131,1.263,1.133,1.133,0,0,1-1,.131,1.133,1.133,0,0,1,.131-1Z" transform="translate(231.98 354.446)" fill="#f7931e"/><path d="M.131-1A1.133,1.133,0,0,1,1.263.131,1.133,1.133,0,0,1,.131,1.263,1.133,1.133,0,0,1-1,.131,1.133,1.133,0,0,1,.131-1Z" transform="translate(221.627 354.315)" fill="#f7931e"/><path d="M.131-1A1.133,1.133,0,0,1,1.263.131,1.133,1.133,0,0,1,.131,1.263,1.133,1.133,0,0,1-1,.131,1.133,1.133,0,0,1,.131-1Z" transform="translate(173.571 354.446)" fill="#f7931e"/><path d="M.131-1A1.133,1.133,0,0,1,1.263.131,1.133,1.133,0,0,1,.131,1.263,1.133,1.133,0,0,1-1,.131,1.133,1.133,0,0,1,.131-1Z" transform="translate(163.481 354.446)" fill="#f7931e"/><path d="M.131-1A1.133,1.133,0,0,1,1.263.131,1.133,1.133,0,0,1,.131,1.263,1.133,1.133,0,0,1-1,.131,1.133,1.133,0,0,1,.131-1Z" transform="translate(148.61 311.067)" fill="#f7931e"/><path d="M.131-1A1.133,1.133,0,0,1,1.263.131,1.133,1.133,0,0,1,.131,1.263,1.133,1.133,0,0,1-1,.131,1.133,1.133,0,0,1,.131-1Z" transform="translate(245.117 397.484)" fill="#f7931e"/><path d="M.131-1A1.133,1.133,0,0,1,1.263.131,1.133,1.133,0,0,1,.131,1.263,1.133,1.133,0,0,1-1,.131,1.133,1.133,0,0,1,.131-1Z" transform="translate(264.981 413.17)" fill="#f7931e"/><path d="M.131-1A1.133,1.133,0,0,1,1.263.131,1.133,1.133,0,0,1,.131,1.263,1.133,1.133,0,0,1-1,.131,1.133,1.133,0,0,1,.131-1Z" transform="translate(319.107 354.84)" fill="#f7931e"/><path d="M.131-1A1.133,1.133,0,0,1,1.263.131,1.133,1.133,0,0,1,.131,1.263,1.133,1.133,0,0,1-1,.131,1.133,1.133,0,0,1,.131-1Z" transform="translate(294.671 397.116)" fill="#f7931e"/><path d="M.131-1A1.133,1.133,0,0,1,1.263.131,1.133,1.133,0,0,1,.131,1.263,1.133,1.133,0,0,1-1,.131,1.133,1.133,0,0,1,.131-1Z" transform="translate(332.586 413.065)" fill="#f7931e"/><path d="M.131-1A1.133,1.133,0,0,1,1.263.131,1.133,1.133,0,0,1,.131,1.263,1.133,1.133,0,0,1-1,.131,1.133,1.133,0,0,1,.131-1Z" transform="translate(392.124 397.222)" fill="#f7931e"/><path d="M.131-1A1.133,1.133,0,0,1,1.263.131,1.133,1.133,0,0,1,.131,1.263,1.133,1.133,0,0,1-1,.131,1.133,1.133,0,0,1,.131-1Z" transform="translate(435.057 353.08)" fill="#f7931e"/><path d="M.131-1A1.133,1.133,0,0,1,1.263.131,1.133,1.133,0,0,1,.131,1.263,1.133,1.133,0,0,1-1,.131,1.133,1.133,0,0,1,.131-1Z" transform="translate(441.205 311.802)" fill="#f7931e"/><path d="M.131-1A1.133,1.133,0,0,1,1.263.131,1.133,1.133,0,0,1,.131,1.263,1.133,1.133,0,0,1-1,.131,1.133,1.133,0,0,1,.131-1Z" transform="translate(441.337 397.222)" fill="#f7931e"/><path d="M.131-1A1.133,1.133,0,0,1,1.263.131,1.133,1.133,0,0,1,.131,1.263,1.133,1.133,0,0,1-1,.131,1.133,1.133,0,0,1,.131-1Z" transform="translate(465.983 354.446)" fill="#f7931e"/><path d="M.131-1A1.133,1.133,0,0,1,1.263.131,1.133,1.133,0,0,1,.131,1.263,1.133,1.133,0,0,1-1,.131,1.133,1.133,0,0,1,.131-1Z" transform="translate(391.73 311.802)" fill="#f7931e"/><path d="M.131-1A1.133,1.133,0,0,1,1.263.131,1.133,1.133,0,0,1,.131,1.263,1.133,1.133,0,0,1-1,.131,1.133,1.133,0,0,1,.131-1Z" transform="translate(367.768 354)" fill="#f7931e"/><path d="M.131-1A1.133,1.133,0,0,1,1.263.131,1.133,1.133,0,0,1,.131,1.263,1.133,1.133,0,0,1-1,.131,1.133,1.133,0,0,1,.131-1Z" transform="translate(231.691 118.105)" fill="#f7931e"/><path d="M.131-1A1.133,1.133,0,0,1,1.263.131,1.133,1.133,0,0,1,.131,1.263,1.133,1.133,0,0,1-1,.131,1.133,1.133,0,0,1,.131-1Z" transform="translate(265.874 56.307)" fill="#f7931e"/><path d="M.131-1A1.133,1.133,0,0,1,1.263.131,1.133,1.133,0,0,1,.131,1.263,1.133,1.133,0,0,1-1,.131,1.133,1.133,0,0,1,.131-1Z" transform="translate(164.217 118.236)" fill="#f7931e"/><path d="M.158-1A1.159,1.159,0,0,1,1.315.158,1.159,1.159,0,0,1,.158,1.315,1.159,1.159,0,0,1-1,.158,1.159,1.159,0,0,1,.158-1Z" transform="translate(165.951 0.42)" fill="#f7931e"/><path d="M.131-1A1.133,1.133,0,0,1,1.263.131,1.133,1.133,0,0,1,.131,1.263,1.133,1.133,0,0,1-1,.131,1.133,1.133,0,0,1,.131-1Z" transform="translate(130.06 58.934)" fill="#f7931e"/><path d="M.158-1A1.159,1.159,0,0,1,1.315.158,1.159,1.159,0,0,1,.158,1.315,1.159,1.159,0,0,1-1,.158,1.159,1.159,0,0,1,.158-1Z" transform="translate(23.227 1.209)" fill="#f7931e"/><path d="M.131-1A1.133,1.133,0,0,1,1.263.131,1.133,1.133,0,0,1,.131,1.263,1.133,1.133,0,0,1-1,.131,1.133,1.133,0,0,1,.131-1Z" transform="translate(231.559 236.079)" fill="#f7931e"/><path d="M.131-1A1.133,1.133,0,0,1,1.263.131,1.133,1.133,0,0,1,.131,1.263,1.133,1.133,0,0,1-1,.131,1.133,1.133,0,0,1,.131-1Z" transform="translate(164.086 236.473)" fill="#f7931e"/><path d="M.131-1A1.133,1.133,0,0,1,1.263.131,1.133,1.133,0,0,1,.131,1.263,1.133,1.133,0,0,1-1,.131,1.133,1.133,0,0,1,.131-1Z" transform="translate(172.756 268.738)" fill="#f7931e"/><path d="M.131-1A1.133,1.133,0,0,1,1.263.131,1.133,1.133,0,0,1,.131,1.263,1.133,1.133,0,0,1-1,.131,1.133,1.133,0,0,1,.131-1Z" transform="translate(129.981 294.829)" fill="#f7931e"/><path d="M.131-1A1.133,1.133,0,0,1,1.263.131,1.133,1.133,0,0,1,.131,1.263,1.133,1.133,0,0,1-1,.131,1.133,1.133,0,0,1,.131-1Z" transform="translate(98.819 311.198)" fill="#f7931e"/><path d="M.131-1A1.133,1.133,0,0,1,1.263.131,1.133,1.133,0,0,1,.131,1.263,1.133,1.133,0,0,1-1,.131,1.133,1.133,0,0,1,.131-1Z" transform="translate(74.147 268.738)" fill="#f7931e"/><path d="M.131-1A1.133,1.133,0,0,1,1.263.131,1.133,1.133,0,0,1,.131,1.263,1.133,1.133,0,0,1-1,.131,1.133,1.133,0,0,1,.131-1Z" transform="translate(62.008 294.829)" fill="#f7931e"/><path d="M.131-1A1.133,1.133,0,0,1,1.263.131,1.133,1.133,0,0,1,.131,1.263,1.133,1.133,0,0,1-1,.131,1.133,1.133,0,0,1,.131-1Z" transform="translate(98.084 226.409)" fill="#f7931e"/><path d="M.131-1A1.133,1.133,0,0,1,1.263.131,1.133,1.133,0,0,1,.131,1.263,1.133,1.133,0,0,1-1,.131,1.133,1.133,0,0,1,.131-1Z" transform="translate(73.333 184.055)" fill="#f7931e"/><path d="M.131-1A1.133,1.133,0,0,1,1.263.131,1.133,1.133,0,0,1,.131,1.263,1.133,1.133,0,0,1-1,.131,1.133,1.133,0,0,1,.131-1Z" transform="translate(64.032 116.345)" fill="#f7931e"/><path d="M.131-1A1.133,1.133,0,0,1,1.263.131,1.133,1.133,0,0,1,.131,1.263,1.133,1.133,0,0,1-1,.131,1.133,1.133,0,0,1,.131-1Z" transform="translate(61.877 59.066)" fill="#f7931e"/><path d="M.131-1A1.133,1.133,0,0,1,1.263.131,1.133,1.133,0,0,1,.131,1.263,1.133,1.133,0,0,1-1,.131,1.133,1.133,0,0,1,.131-1Z" transform="translate(129.955 176.461)" fill="#f7931e"/><path d="M.131-1A1.133,1.133,0,0,1,1.263.131,1.133,1.133,0,0,1,.131,1.263,1.133,1.133,0,0,1-1,.131,1.133,1.133,0,0,1,.131-1Z" transform="translate(62.14 177.302)" fill="#f7931e"/><path d="M.131-1A1.133,1.133,0,0,1,1.263.131,1.133,1.133,0,0,1,.131,1.263,1.133,1.133,0,0,1-1,.131,1.133,1.133,0,0,1,.131-1Z" transform="translate(62.14 412.566)" fill="#f7931e"/><path d="M.131-1A1.133,1.133,0,0,1,1.263.131,1.133,1.133,0,0,1,.131,1.263,1.133,1.133,0,0,1-1,.131,1.133,1.133,0,0,1,.131-1Z" transform="translate(129.85 412.435)" fill="#f7931e"/><path d="M.131-1A1.133,1.133,0,0,1,1.263.131,1.133,1.133,0,0,1,.131,1.263,1.133,1.133,0,0,1-1,.131,1.133,1.133,0,0,1,.131-1Z" transform="translate(173.571 397.905)" fill="#f7931e"/><path d="M.875,62.7l-1.75-.968L33.545-.484l1.75.968Z" transform="translate(231.586 56.438)" fill="#f7931e"/><path d="M.852,59.431l-1.7-1.046L35.3-.523l1.7,1.046Z" transform="translate(129.955 0.578)" fill="#f7931e"/><path d="M38.581,59.568-.832.555.832-.555,40.244,58.458Z" transform="translate(22.491 0)" fill="#f7931e"/><path d="M50.868,1H0V-1H50.868Z" transform="translate(468.873 177.433)" fill="#f7931e"/><path d="M50.8,1.631-.012,1,.012-1l50.815.631Z" transform="translate(468.925 294.96)" fill="#f7931e"/><path d="M53.619,1.394-.007,1,.007-1l53.627.394Z" transform="translate(466.114 354.578)" fill="#f7931e"/><path d="M.861,68.167-.861,67.148,39.156-.509,40.877.509Z" transform="translate(24.619 116.239)" fill="#f7931e"/><path d="M32.413,54.284-.85.526.85-.526,34.114,53.232Z" transform="translate(441.495 397.222)" fill="#f7931e"/><path d="M.894,54.784l-1.788-.9L26.353-.448l1.788.9Z" transform="translate(365.009 397.222)" fill="#f7931e"/><path d="M.006,1.42l-.012-2L73.038-1l.012,2Z" transform="translate(172.888 397.616)" fill="#f7931e"/></g><g transform="translate(519.741 599.105)"><path d="M52.7,88.91h69.023l34.5,59.777-34.5,59.777H52.7l-34.5-59.777Zm67.868,2H53.858L20.515,148.687l33.344,57.777h66.713l33.344-57.777Z" transform="translate(313.804 28.747)" fill="#f7931e" opacity="0.47"/><path d="M52.71,44.19h69l34.525,59.777-34.525,59.75h-69l-34.525-59.75Zm67.841,2H53.864L20.495,103.966l33.369,57.75h66.687l33.369-57.75Z" transform="translate(313.85 190.994)" fill="#f7931e" opacity="0.47"/><path d="M44.452,27.63H94.846l25.2,43.644-25.2,43.644H44.452l-25.2-43.644Zm49.239,2H45.607L21.565,71.274l24.042,41.644H93.691l24.042-41.644Z" transform="translate(347.226 283.304)" fill="#f7931e" opacity="0.47"/><path d="M72.222,43.86h50.394l25.2,43.644-25.2,43.644H72.222L47.025,87.5Zm49.239,2H73.377L49.335,87.5l24.042,41.644h48.084L145.5,87.5Z" transform="translate(246.491 224.43)" fill="#f7931e" opacity="0.47"/><path d="M127.882,43.86h50.394l25.2,43.644-25.2,43.644H127.882L102.685,87.5Zm49.239,2H129.037L104.995,87.5l24.042,41.644h48.084L201.163,87.5Z" transform="translate(44.586 224.43)" fill="#f7931e" opacity="0.47"/><path d="M156.232,60.25h50.394l25.2,43.644-25.2,43.644H156.232l-25.2-43.644Zm49.239,2H157.387l-24.042,41.644,24.042,41.644h48.084l24.042-41.644Z" transform="translate(-58.253 164.976)" fill="#f7931e" opacity="0.47"/><path d="M184.372,76.36h50.394L259.962,120l-25.2,43.644H184.372L159.175,120Zm49.239,2H185.527L161.485,120l24.042,41.644h48.084L257.653,120Z" transform="translate(-160.33 106.537)" fill="#f7931e" opacity="0.47"/><path d="M100.142,27.48h50.394l25.2,43.644-25.2,43.644H100.142l-25.2-43.644Zm49.239,2H101.3L77.255,71.124,101.3,112.768h48.084l24.042-41.644Z" transform="translate(145.212 283.848)" fill="#f7931e" opacity="0.47"/><path d="M91.413,66.54h69.023l34.5,59.777-34.5,59.777H91.413l-34.5-59.777Zm67.868,2H92.568L59.225,126.317l33.344,57.777h66.713l33.344-57.777Z" transform="translate(173.384 109.893)" fill="#f7931e" opacity="0.47"/><path d="M130.093,88.91h69.022l34.525,59.777-34.525,59.777H130.093L95.6,148.687Zm67.868,2H131.248L97.9,148.687l33.344,57.777h66.713l33.369-57.777Z" transform="translate(33.047 28.747)" fill="#f7931e" opacity="0.47"/><path d="M168.783,111.44h69.022l34.5,59.75-34.5,59.777H168.783l-34.5-59.777Zm67.868,2H169.938l-33.343,57.75,33.343,57.776h66.713l33.344-57.776Z" transform="translate(-107.273 -52.954)" fill="#f7931e" opacity="0.32"/><path d="M168.783,66.71h69.022l34.5,59.75-34.5,59.777H168.783l-34.5-59.777Zm67.868,2H169.938l-33.343,57.75,33.343,57.776h66.713l33.344-57.776Z" transform="translate(-107.273 109.303)" fill="#f7931e" opacity="0.32"/><path d="M168.783,21.66h69.023l34.5,59.777-34.5,59.777H168.783l-34.5-59.777Zm67.868,2H169.938L136.595,81.437l33.344,57.777h66.713l33.344-57.777Z" transform="translate(-107.273 272.694)" fill="#f7931e" opacity="0.29"/><path d="M130.093,44.02h69.022l34.525,59.75-34.525,59.777H130.093L95.6,103.77Zm67.868,2H131.248L97.9,103.77l33.344,57.776h66.713L231.33,103.77Z" transform="translate(33.047 191.61)" fill="#f7931e" opacity="0.32"/><path d="M91.413,21.66h69.023l34.5,59.777-34.5,59.777H91.413l-34.5-59.777Zm67.868,2H92.568L59.225,81.437l33.344,57.777h66.713l33.344-57.777Z" transform="translate(173.384 272.694)" fill="#f7931e" opacity="0.29"/><path d="M130.093-.87h69.022L233.64,58.907l-34.525,59.75H130.093L95.6,58.907Zm67.868,2H131.248L97.9,58.906l33.343,57.75h66.713l33.369-57.75Z" transform="translate(33.047 354.448)" fill="#f7931e" opacity="0.29"/><path d="M.131-1A1.133,1.133,0,0,1,1.263.131,1.133,1.133,0,0,1,.131,1.263,1.133,1.133,0,0,1-1,.131,1.133,1.133,0,0,1,.131-1Z" transform="translate(265.874 177.512)" fill="#f7931e"/><path d="M.131-1A1.133,1.133,0,0,1,1.263.131,1.133,1.133,0,0,1,.131,1.263,1.133,1.133,0,0,1-1,.131,1.133,1.133,0,0,1,.131-1Z" transform="translate(333.19 177.302)" fill="#f7931e"/><path d="M.131-1A1.133,1.133,0,0,1,1.263.131,1.133,1.133,0,0,1,.131,1.263,1.133,1.133,0,0,1-1,.131,1.133,1.133,0,0,1,.131-1Z" transform="translate(366.927 119.025)" fill="#f7931e"/><path d="M.131-1A1.133,1.133,0,0,1,1.263.131,1.133,1.133,0,0,1,.131,1.263,1.133,1.133,0,0,1-1,.131,1.133,1.133,0,0,1,.131-1Z" transform="translate(434.032 118.105)" fill="#f7931e"/><path d="M.131-1A1.133,1.133,0,0,1,1.263.131,1.133,1.133,0,0,1,.131,1.263,1.133,1.133,0,0,1-1,.131,1.133,1.133,0,0,1,.131-1Z" transform="translate(468.741 177.302)" fill="#f7931e"/><path d="M.131-1A1.133,1.133,0,0,1,1.263.131,1.133,1.133,0,0,1,.131,1.263,1.133,1.133,0,0,1-1,.131,1.133,1.133,0,0,1,.131-1Z" transform="translate(434.716 235.632)" fill="#f7931e"/><path d="M.131-1A1.133,1.133,0,0,1,1.263.131,1.133,1.133,0,0,1,.131,1.263,1.133,1.133,0,0,1-1,.131,1.133,1.133,0,0,1,.131-1Z" transform="translate(468.794 294.829)" fill="#f7931e"/><path d="M.131-1A1.133,1.133,0,0,1,1.263.131,1.133,1.133,0,0,1,.131,1.263,1.133,1.133,0,0,1-1,.131,1.133,1.133,0,0,1,.131-1Z" transform="translate(366.927 236.079)" fill="#f7931e"/><path d="M.131-1A1.133,1.133,0,0,1,1.263.131,1.133,1.133,0,0,1,.131,1.263,1.133,1.133,0,0,1-1,.131,1.133,1.133,0,0,1,.131-1Z" transform="translate(367.636 269.158)" fill="#f7931e"/><path d="M.131-1A1.133,1.133,0,0,1,1.263.131,1.133,1.133,0,0,1,.131,1.263,1.133,1.133,0,0,1-1,.131,1.133,1.133,0,0,1,.131-1Z" transform="translate(333.164 295.249)" fill="#f7931e"/><path d="M.131-1A1.133,1.133,0,0,1,1.263.131,1.133,1.133,0,0,1,.131,1.263,1.133,1.133,0,0,1-1,.131,1.133,1.133,0,0,1,.131-1Z" transform="translate(318.371 269.71)" fill="#f7931e"/><path d="M.131-1A1.133,1.133,0,0,1,1.263.131,1.133,1.133,0,0,1,.131,1.263,1.133,1.133,0,0,1-1,.131,1.133,1.133,0,0,1,.131-1Z" transform="translate(294.408 312.486)" fill="#f7931e"/><path d="M.131-1A1.133,1.133,0,0,1,1.263.131,1.133,1.133,0,0,1,.131,1.263,1.133,1.133,0,0,1-1,.131,1.133,1.133,0,0,1,.131-1Z" transform="translate(246.772 311.802)" fill="#f7931e"/><path d="M.131-1A1.133,1.133,0,0,1,1.263.131,1.133,1.133,0,0,1,.131,1.263,1.133,1.133,0,0,1-1,.131,1.133,1.133,0,0,1,.131-1Z" transform="translate(221.733 269.579)" fill="#f7931e"/><path d="M.131-1A1.133,1.133,0,0,1,1.263.131,1.133,1.133,0,0,1,.131,1.263,1.133,1.133,0,0,1-1,.131,1.133,1.133,0,0,1,.131-1Z" transform="translate(265.874 295.249)" fill="#f7931e"/><path d="M.131-1A1.133,1.133,0,0,1,1.263.131,1.133,1.133,0,0,1,.131,1.263,1.133,1.133,0,0,1-1,.131,1.133,1.133,0,0,1,.131-1Z" transform="translate(231.98 354.446)" fill="#f7931e"/><path d="M.131-1A1.133,1.133,0,0,1,1.263.131,1.133,1.133,0,0,1,.131,1.263,1.133,1.133,0,0,1-1,.131,1.133,1.133,0,0,1,.131-1Z" transform="translate(221.627 354.315)" fill="#f7931e"/><path d="M.131-1A1.133,1.133,0,0,1,1.263.131,1.133,1.133,0,0,1,.131,1.263,1.133,1.133,0,0,1-1,.131,1.133,1.133,0,0,1,.131-1Z" transform="translate(173.571 354.446)" fill="#f7931e"/><path d="M.131-1A1.133,1.133,0,0,1,1.263.131,1.133,1.133,0,0,1,.131,1.263,1.133,1.133,0,0,1-1,.131,1.133,1.133,0,0,1,.131-1Z" transform="translate(163.481 354.446)" fill="#f7931e"/><path d="M.131-1A1.133,1.133,0,0,1,1.263.131,1.133,1.133,0,0,1,.131,1.263,1.133,1.133,0,0,1-1,.131,1.133,1.133,0,0,1,.131-1Z" transform="translate(148.61 311.067)" fill="#f7931e"/><path d="M.131-1A1.133,1.133,0,0,1,1.263.131,1.133,1.133,0,0,1,.131,1.263,1.133,1.133,0,0,1-1,.131,1.133,1.133,0,0,1,.131-1Z" transform="translate(245.117 397.484)" fill="#f7931e"/><path d="M.131-1A1.133,1.133,0,0,1,1.263.131,1.133,1.133,0,0,1,.131,1.263,1.133,1.133,0,0,1-1,.131,1.133,1.133,0,0,1,.131-1Z" transform="translate(264.981 413.17)" fill="#f7931e"/><path d="M.131-1A1.133,1.133,0,0,1,1.263.131,1.133,1.133,0,0,1,.131,1.263,1.133,1.133,0,0,1-1,.131,1.133,1.133,0,0,1,.131-1Z" transform="translate(319.107 354.84)" fill="#f7931e"/><path d="M.131-1A1.133,1.133,0,0,1,1.263.131,1.133,1.133,0,0,1,.131,1.263,1.133,1.133,0,0,1-1,.131,1.133,1.133,0,0,1,.131-1Z" transform="translate(294.671 397.116)" fill="#f7931e"/><path d="M.131-1A1.133,1.133,0,0,1,1.263.131,1.133,1.133,0,0,1,.131,1.263,1.133,1.133,0,0,1-1,.131,1.133,1.133,0,0,1,.131-1Z" transform="translate(332.586 413.065)" fill="#f7931e"/><path d="M.131-1A1.133,1.133,0,0,1,1.263.131,1.133,1.133,0,0,1,.131,1.263,1.133,1.133,0,0,1-1,.131,1.133,1.133,0,0,1,.131-1Z" transform="translate(392.124 397.222)" fill="#f7931e"/><path d="M.131-1A1.133,1.133,0,0,1,1.263.131,1.133,1.133,0,0,1,.131,1.263,1.133,1.133,0,0,1-1,.131,1.133,1.133,0,0,1,.131-1Z" transform="translate(435.057 353.08)" fill="#f7931e"/><path d="M.131-1A1.133,1.133,0,0,1,1.263.131,1.133,1.133,0,0,1,.131,1.263,1.133,1.133,0,0,1-1,.131,1.133,1.133,0,0,1,.131-1Z" transform="translate(441.205 311.802)" fill="#f7931e"/><path d="M.131-1A1.133,1.133,0,0,1,1.263.131,1.133,1.133,0,0,1,.131,1.263,1.133,1.133,0,0,1-1,.131,1.133,1.133,0,0,1,.131-1Z" transform="translate(441.337 397.222)" fill="#f7931e"/><path d="M.131-1A1.133,1.133,0,0,1,1.263.131,1.133,1.133,0,0,1,.131,1.263,1.133,1.133,0,0,1-1,.131,1.133,1.133,0,0,1,.131-1Z" transform="translate(465.983 354.446)" fill="#f7931e"/><path d="M.131-1A1.133,1.133,0,0,1,1.263.131,1.133,1.133,0,0,1,.131,1.263,1.133,1.133,0,0,1-1,.131,1.133,1.133,0,0,1,.131-1Z" transform="translate(391.73 311.802)" fill="#f7931e"/><path d="M.131-1A1.133,1.133,0,0,1,1.263.131,1.133,1.133,0,0,1,.131,1.263,1.133,1.133,0,0,1-1,.131,1.133,1.133,0,0,1,.131-1Z" transform="translate(367.768 354)" fill="#f7931e"/><path d="M.131-1A1.133,1.133,0,0,1,1.263.131,1.133,1.133,0,0,1,.131,1.263,1.133,1.133,0,0,1-1,.131,1.133,1.133,0,0,1,.131-1Z" transform="translate(231.691 118.105)" fill="#f7931e"/><path d="M.131-1A1.133,1.133,0,0,1,1.263.131,1.133,1.133,0,0,1,.131,1.263,1.133,1.133,0,0,1-1,.131,1.133,1.133,0,0,1,.131-1Z" transform="translate(265.874 56.307)" fill="#f7931e"/><path d="M.131-1A1.133,1.133,0,0,1,1.263.131,1.133,1.133,0,0,1,.131,1.263,1.133,1.133,0,0,1-1,.131,1.133,1.133,0,0,1,.131-1Z" transform="translate(164.217 118.236)" fill="#f7931e"/><path d="M.158-1A1.159,1.159,0,0,1,1.315.158,1.159,1.159,0,0,1,.158,1.315,1.159,1.159,0,0,1-1,.158,1.159,1.159,0,0,1,.158-1Z" transform="translate(165.951 0.42)" fill="#f7931e"/><path d="M.131-1A1.133,1.133,0,0,1,1.263.131,1.133,1.133,0,0,1,.131,1.263,1.133,1.133,0,0,1-1,.131,1.133,1.133,0,0,1,.131-1Z" transform="translate(130.06 58.934)" fill="#f7931e"/><path d="M.158-1A1.159,1.159,0,0,1,1.315.158,1.159,1.159,0,0,1,.158,1.315,1.159,1.159,0,0,1-1,.158,1.159,1.159,0,0,1,.158-1Z" transform="translate(23.227 1.209)" fill="#f7931e"/><path d="M.131-1A1.133,1.133,0,0,1,1.263.131,1.133,1.133,0,0,1,.131,1.263,1.133,1.133,0,0,1-1,.131,1.133,1.133,0,0,1,.131-1Z" transform="translate(231.559 236.079)" fill="#f7931e"/><path d="M.131-1A1.133,1.133,0,0,1,1.263.131,1.133,1.133,0,0,1,.131,1.263,1.133,1.133,0,0,1-1,.131,1.133,1.133,0,0,1,.131-1Z" transform="translate(164.086 236.473)" fill="#f7931e"/><path d="M.131-1A1.133,1.133,0,0,1,1.263.131,1.133,1.133,0,0,1,.131,1.263,1.133,1.133,0,0,1-1,.131,1.133,1.133,0,0,1,.131-1Z" transform="translate(172.756 268.738)" fill="#f7931e"/><path d="M.131-1A1.133,1.133,0,0,1,1.263.131,1.133,1.133,0,0,1,.131,1.263,1.133,1.133,0,0,1-1,.131,1.133,1.133,0,0,1,.131-1Z" transform="translate(129.981 294.829)" fill="#f7931e"/><path d="M.131-1A1.133,1.133,0,0,1,1.263.131,1.133,1.133,0,0,1,.131,1.263,1.133,1.133,0,0,1-1,.131,1.133,1.133,0,0,1,.131-1Z" transform="translate(98.819 311.198)" fill="#f7931e"/><path d="M.131-1A1.133,1.133,0,0,1,1.263.131,1.133,1.133,0,0,1,.131,1.263,1.133,1.133,0,0,1-1,.131,1.133,1.133,0,0,1,.131-1Z" transform="translate(74.147 268.738)" fill="#f7931e"/><path d="M.131-1A1.133,1.133,0,0,1,1.263.131,1.133,1.133,0,0,1,.131,1.263,1.133,1.133,0,0,1-1,.131,1.133,1.133,0,0,1,.131-1Z" transform="translate(62.008 294.829)" fill="#f7931e"/><path d="M.131-1A1.133,1.133,0,0,1,1.263.131,1.133,1.133,0,0,1,.131,1.263,1.133,1.133,0,0,1-1,.131,1.133,1.133,0,0,1,.131-1Z" transform="translate(98.084 226.409)" fill="#f7931e"/><path d="M.131-1A1.133,1.133,0,0,1,1.263.131,1.133,1.133,0,0,1,.131,1.263,1.133,1.133,0,0,1-1,.131,1.133,1.133,0,0,1,.131-1Z" transform="translate(73.333 184.055)" fill="#f7931e"/><path d="M.131-1A1.133,1.133,0,0,1,1.263.131,1.133,1.133,0,0,1,.131,1.263,1.133,1.133,0,0,1-1,.131,1.133,1.133,0,0,1,.131-1Z" transform="translate(64.032 116.345)" fill="#f7931e"/><path d="M.131-1A1.133,1.133,0,0,1,1.263.131,1.133,1.133,0,0,1,.131,1.263,1.133,1.133,0,0,1-1,.131,1.133,1.133,0,0,1,.131-1Z" transform="translate(61.877 59.066)" fill="#f7931e"/><path d="M.131-1A1.133,1.133,0,0,1,1.263.131,1.133,1.133,0,0,1,.131,1.263,1.133,1.133,0,0,1-1,.131,1.133,1.133,0,0,1,.131-1Z" transform="translate(129.955 176.461)" fill="#f7931e"/><path d="M.131-1A1.133,1.133,0,0,1,1.263.131,1.133,1.133,0,0,1,.131,1.263,1.133,1.133,0,0,1-1,.131,1.133,1.133,0,0,1,.131-1Z" transform="translate(62.14 177.302)" fill="#f7931e"/><path d="M.131-1A1.133,1.133,0,0,1,1.263.131,1.133,1.133,0,0,1,.131,1.263,1.133,1.133,0,0,1-1,.131,1.133,1.133,0,0,1,.131-1Z" transform="translate(62.14 412.566)" fill="#f7931e"/><path d="M.131-1A1.133,1.133,0,0,1,1.263.131,1.133,1.133,0,0,1,.131,1.263,1.133,1.133,0,0,1-1,.131,1.133,1.133,0,0,1,.131-1Z" transform="translate(129.85 412.435)" fill="#f7931e"/><path d="M.131-1A1.133,1.133,0,0,1,1.263.131,1.133,1.133,0,0,1,.131,1.263,1.133,1.133,0,0,1-1,.131,1.133,1.133,0,0,1,.131-1Z" transform="translate(173.571 397.905)" fill="#f7931e"/><path d="M.875,62.7l-1.75-.968L33.545-.484l1.75.968Z" transform="translate(231.586 56.438)" fill="#f7931e"/><path d="M.852,59.431l-1.7-1.046L35.3-.523l1.7,1.046Z" transform="translate(129.955 0.578)" fill="#f7931e"/><path d="M38.581,59.568-.832.555.832-.555,40.244,58.458Z" transform="translate(22.491 0)" fill="#f7931e"/><path d="M50.868,1H0V-1H50.868Z" transform="translate(468.873 177.433)" fill="#f7931e"/><path d="M50.8,1.631-.012,1,.012-1l50.815.631Z" transform="translate(468.925 294.96)" fill="#f7931e"/><path d="M53.619,1.394-.007,1,.007-1l53.627.394Z" transform="translate(466.114 354.578)" fill="#f7931e"/><path d="M.861,68.167-.861,67.148,39.156-.509,40.877.509Z" transform="translate(24.619 116.239)" fill="#f7931e"/><path d="M32.413,54.284-.85.526.85-.526,34.114,53.232Z" transform="translate(441.495 397.222)" fill="#f7931e"/><path d="M.894,54.784l-1.788-.9L26.353-.448l1.788.9Z" transform="translate(365.009 397.222)" fill="#f7931e"/><path d="M.006,1.42l-.012-2L73.038-1l.012,2Z" transform="translate(172.888 397.616)" fill="#f7931e"/></g><g transform="translate(-182.147 171.937)"><g transform="translate(774.937 28.063)"><text transform="translate(0.21 261)" fill="#f7931e" font-size="262" font-family="LIBRARY3AMsoft, 'LIBRARY \33  AM soft'" letter-spacing="-0.02em"><tspan x="0" y="0">P</tspan></text></g><text transform="translate(528.147 377.063)" fill="#f7931e" font-size="88" font-family="LIBRARY3AM, 'LIBRARY \33  AM'"><tspan x="0" y="0">perfect </tspan><tspan y="0" fill="#fff">blog</tspan></text></g></g></svg>