<?xml version="1.0" encoding="UTF-8"?><svg id="Layer_2" xmlns="http://www.w3.org/2000/svg" xmlns:xlink="http://www.w3.org/1999/xlink" viewBox="0 0 197.96 179.88"><defs><style>.cls-1{stroke:url(#Orange_Yellow-68);}.cls-1,.cls-2,.cls-3,.cls-4,.cls-5,.cls-6,.cls-7,.cls-8,.cls-9,.cls-10,.cls-11,.cls-12,.cls-13,.cls-14,.cls-15,.cls-16,.cls-17,.cls-18,.cls-19,.cls-20,.cls-21,.cls-22,.cls-23,.cls-24,.cls-25,.cls-26,.cls-27,.cls-28,.cls-29,.cls-30,.cls-31,.cls-32,.cls-33,.cls-34,.cls-35,.cls-36,.cls-37,.cls-38,.cls-39,.cls-40,.cls-41,.cls-42,.cls-43,.cls-44,.cls-45,.cls-46,.cls-47,.cls-48,.cls-49,.cls-50,.cls-51,.cls-52,.cls-53,.cls-54,.cls-55,.cls-56,.cls-57,.cls-58,.cls-59,.cls-60,.cls-61,.cls-62,.cls-63,.cls-64,.cls-65,.cls-66,.cls-67,.cls-68,.cls-69,.cls-70,.cls-71,.cls-72,.cls-73,.cls-74,.cls-75,.cls-76,.cls-77,.cls-78,.cls-79,.cls-80{fill:none;stroke-miterlimit:10;stroke-width:.25px;}.cls-2{stroke:url(#Orange_Yellow-28);}.cls-3{stroke:url(#Orange_Yellow-50);}.cls-4{stroke:url(#Orange_Yellow-2);}.cls-4,.cls-6,.cls-9,.cls-10,.cls-17,.cls-52,.cls-69,.cls-73,.cls-75,.cls-77{opacity:.47;}.cls-5{stroke:url(#Orange_Yellow-55);}.cls-6{stroke:url(#Orange_Yellow-8);}.cls-7{stroke:url(#Orange_Yellow-71);}.cls-8{stroke:url(#Orange_Yellow-52);}.cls-9{stroke:url(#Orange_Yellow);}.cls-10{stroke:url(#Orange_Yellow-7);}.cls-11{stroke:url(#Orange_Yellow-77);}.cls-12{stroke:url(#Orange_Yellow-21);}.cls-13{stroke:url(#Orange_Yellow-49);}.cls-14{stroke:url(#Orange_Yellow-27);}.cls-15{stroke:url(#Orange_Yellow-47);}.cls-16{stroke:url(#Orange_Yellow-31);}.cls-17{stroke:url(#Orange_Yellow-4);}.cls-18{stroke:url(#Orange_Yellow-36);}.cls-19{stroke:url(#Orange_Yellow-45);}.cls-20{stroke:url(#Orange_Yellow-70);}.cls-21{stroke:url(#Orange_Yellow-43);}.cls-22{stroke:url(#Orange_Yellow-24);}.cls-23{stroke:url(#Orange_Yellow-29);}.cls-24{stroke:url(#Orange_Yellow-75);}.cls-25{stroke:url(#Orange_Yellow-30);}.cls-26{stroke:url(#Orange_Yellow-34);}.cls-27{stroke:url(#Orange_Yellow-62);}.cls-28{stroke:url(#Orange_Yellow-59);}.cls-29{stroke:url(#Orange_Yellow-57);}.cls-30{stroke:url(#Orange_Yellow-78);}.cls-31{stroke:url(#Orange_Yellow-39);}.cls-32{stroke:url(#Orange_Yellow-73);}.cls-33{stroke:url(#Orange_Yellow-74);}.cls-34{stroke:url(#Orange_Yellow-16);}.cls-34,.cls-41,.cls-78{opacity:.29;}.cls-35{stroke:url(#Orange_Yellow-22);}.cls-36{stroke:url(#Orange_Yellow-11);}.cls-36,.cls-39,.cls-46{opacity:.32;}.cls-37{stroke:url(#Orange_Yellow-44);}.cls-38{stroke:url(#Orange_Yellow-54);}.cls-39{stroke:url(#Orange_Yellow-12);}.cls-40{stroke:url(#Orange_Yellow-76);}.cls-41{stroke:url(#Orange_Yellow-13);}.cls-42{stroke:url(#Orange_Yellow-65);}.cls-43{stroke:url(#Orange_Yellow-40);}.cls-44{stroke:url(#Orange_Yellow-46);}.cls-45{stroke:url(#Orange_Yellow-38);}.cls-46{stroke:url(#Orange_Yellow-14);}.cls-47{stroke:url(#Orange_Yellow-32);}.cls-48{stroke:url(#Orange_Yellow-80);}.cls-49{stroke:url(#Orange_Yellow-56);}.cls-50{stroke:url(#Orange_Yellow-26);}.cls-51{stroke:url(#Orange_Yellow-41);}.cls-52{stroke:url(#Orange_Yellow-5);}.cls-53{stroke:url(#Orange_Yellow-67);}.cls-54{stroke:url(#Orange_Yellow-20);}.cls-55{stroke:url(#Orange_Yellow-18);}.cls-56{stroke:url(#Orange_Yellow-69);}.cls-57{stroke:url(#Orange_Yellow-63);}.cls-58{stroke:url(#Orange_Yellow-61);}.cls-59{stroke:url(#Orange_Yellow-25);}.cls-60{stroke:url(#Orange_Yellow-17);}.cls-61{stroke:url(#Orange_Yellow-51);}.cls-62{stroke:url(#Orange_Yellow-48);}.cls-63{stroke:url(#Orange_Yellow-60);}.cls-64{stroke:url(#Orange_Yellow-35);}.cls-65{stroke:url(#Orange_Yellow-66);}.cls-66{stroke:url(#Orange_Yellow-42);}.cls-67{stroke:url(#Orange_Yellow-72);}.cls-68{stroke:url(#Orange_Yellow-79);}.cls-69{stroke:url(#Orange_Yellow-9);}.cls-70{stroke:url(#Orange_Yellow-33);}.cls-71{stroke:url(#Orange_Yellow-64);}.cls-72{stroke:url(#Orange_Yellow-23);}.cls-73{stroke:url(#Orange_Yellow-3);}.cls-74{stroke:url(#Orange_Yellow-58);}.cls-75{stroke:url(#Orange_Yellow-6);}.cls-76{stroke:url(#Orange_Yellow-37);}.cls-77{stroke:url(#Orange_Yellow-10);}.cls-78{stroke:url(#Orange_Yellow-15);}.cls-79{stroke:url(#Orange_Yellow-19);}.cls-80{stroke:url(#Orange_Yellow-53);}</style><linearGradient id="Orange_Yellow" x1="19.21" y1="112.28" x2="71.16" y2="112.28" gradientUnits="userSpaceOnUse"><stop offset="0" stop-color="#fff33b"/><stop offset=".04" stop-color="#fee62d"/><stop offset=".12" stop-color="#fdd51b"/><stop offset=".2" stop-color="#fdca0f"/><stop offset=".28" stop-color="#fdc70c"/><stop offset=".67" stop-color="#f3903f"/><stop offset=".89" stop-color="#ed683c"/><stop offset="1" stop-color="#e93e3a"/></linearGradient><linearGradient id="Orange_Yellow-2" x1="19.2" y1="67.55" x2="71.14" y2="67.55" xlink:href="#Orange_Yellow"/><linearGradient id="Orange_Yellow-3" x1="20.26" y1="44.86" x2="58.03" y2="44.86" xlink:href="#Orange_Yellow"/><linearGradient id="Orange_Yellow-4" x1="48.03" y1="61.09" x2="85.8" y2="61.09" xlink:href="#Orange_Yellow"/><linearGradient id="Orange_Yellow-5" x1="103.7" y1="61.09" x2="141.47" y2="61.09" xlink:href="#Orange_Yellow"/><linearGradient id="Orange_Yellow-6" x1="132.04" y1="77.48" x2="169.81" y2="77.48" xlink:href="#Orange_Yellow"/><linearGradient id="Orange_Yellow-7" x1="160.19" y1="93.59" x2="197.96" y2="93.59" xlink:href="#Orange_Yellow"/><linearGradient id="Orange_Yellow-8" x1="75.95" y1="44.71" x2="113.73" y2="44.71" xlink:href="#Orange_Yellow"/><linearGradient id="Orange_Yellow-9" x1="57.93" y1="89.91" x2="109.87" y2="89.91" xlink:href="#Orange_Yellow"/><linearGradient id="Orange_Yellow-10" x1="96.61" y1="112.28" x2="148.55" y2="112.28" xlink:href="#Orange_Yellow"/><linearGradient id="Orange_Yellow-11" x1="135.29" y1="134.81" x2="187.24" y2="134.81" xlink:href="#Orange_Yellow"/><linearGradient id="Orange_Yellow-12" x1="135.29" y1="90.08" x2="187.24" y2="90.08" xlink:href="#Orange_Yellow"/><linearGradient id="Orange_Yellow-13" x1="135.29" y1="45.03" x2="187.24" y2="45.03" xlink:href="#Orange_Yellow"/><linearGradient id="Orange_Yellow-14" x1="96.61" y1="67.39" x2="148.55" y2="67.39" xlink:href="#Orange_Yellow"/><linearGradient id="Orange_Yellow-15" x1="57.93" y1="45.03" x2="109.87" y2="45.03" xlink:href="#Orange_Yellow"/><linearGradient id="Orange_Yellow-16" x1="96.61" y1="22.49" x2="148.55" y2="22.49" xlink:href="#Orange_Yellow"/><linearGradient id="Orange_Yellow-17" x1="96.4" y1="112.2" x2="96.75" y2="112.2" xlink:href="#Orange_Yellow"/><linearGradient id="Orange_Yellow-18" x1="70.78" y1="112.28" x2="71.12" y2="112.28" xlink:href="#Orange_Yellow"/><linearGradient id="Orange_Yellow-19" x1="57.94" y1="134.46" x2="58.28" y2="134.46" xlink:href="#Orange_Yellow"/><linearGradient id="Orange_Yellow-20" x1="32.4" y1="134.81" x2="32.75" y2="134.81" xlink:href="#Orange_Yellow"/><linearGradient id="Orange_Yellow-21" x1="19.18" y1="112.28" x2="19.53" y2="112.28" xlink:href="#Orange_Yellow"/><linearGradient id="Orange_Yellow-22" x1="32.13" y1="90.08" x2="32.48" y2="90.08" xlink:href="#Orange_Yellow"/><linearGradient id="Orange_Yellow-23" x1="19.17" y1="67.55" x2="19.52" y2="67.55" xlink:href="#Orange_Yellow"/><linearGradient id="Orange_Yellow-24" x1="57.94" y1="89.91" x2="58.28" y2="89.91" xlink:href="#Orange_Yellow"/><linearGradient id="Orange_Yellow-25" x1="57.67" y1="77.32" x2="58.01" y2="77.32" xlink:href="#Orange_Yellow"/><linearGradient id="Orange_Yellow-26" x1="70.78" y1="67.39" x2="71.13" y2="67.39" xlink:href="#Orange_Yellow"/><linearGradient id="Orange_Yellow-27" x1="76.42" y1="77.11" x2="76.77" y2="77.11" xlink:href="#Orange_Yellow"/><linearGradient id="Orange_Yellow-28" x1="85.53" y1="60.83" x2="85.88" y2="60.83" xlink:href="#Orange_Yellow"/><linearGradient id="Orange_Yellow-29" x1="103.67" y1="61.09" x2="104.01" y2="61.09" xlink:href="#Orange_Yellow"/><linearGradient id="Orange_Yellow-30" x1="113.19" y1="77.16" x2="113.54" y2="77.16" xlink:href="#Orange_Yellow"/><linearGradient id="Orange_Yellow-31" x1="96.4" y1="67.39" x2="96.75" y2="67.39" xlink:href="#Orange_Yellow"/><linearGradient id="Orange_Yellow-32" x1="109.29" y1="44.86" x2="109.64" y2="44.86" xlink:href="#Orange_Yellow"/><linearGradient id="Orange_Yellow-33" x1="113.24" y1="44.91" x2="113.59" y2="44.91" xlink:href="#Orange_Yellow"/><linearGradient id="Orange_Yellow-34" x1="131.53" y1="44.86" x2="131.87" y2="44.86" xlink:href="#Orange_Yellow"/><linearGradient id="Orange_Yellow-35" x1="135.36" y1="44.86" x2="135.71" y2="44.86" xlink:href="#Orange_Yellow"/><linearGradient id="Orange_Yellow-36" x1="141.03" y1="61.37" x2="141.38" y2="61.37" xlink:href="#Orange_Yellow"/><linearGradient id="Orange_Yellow-37" x1="104.29" y1="28.48" x2="104.64" y2="28.48" xlink:href="#Orange_Yellow"/><linearGradient id="Orange_Yellow-38" x1="96.73" y1="22.51" x2="97.08" y2="22.51" xlink:href="#Orange_Yellow"/><linearGradient id="Orange_Yellow-39" x1="76.14" y1="44.71" x2="76.49" y2="44.71" xlink:href="#Orange_Yellow"/><linearGradient id="Orange_Yellow-40" x1="85.44" y1="28.62" x2="85.78" y2="28.62" xlink:href="#Orange_Yellow"/><linearGradient id="Orange_Yellow-41" x1="71.01" y1="22.55" x2="71.35" y2="22.55" xlink:href="#Orange_Yellow"/><linearGradient id="Orange_Yellow-42" x1="48.34" y1="28.58" x2="48.69" y2="28.58" xlink:href="#Orange_Yellow"/><linearGradient id="Orange_Yellow-43" x1="32" y1="45.38" x2="32.35" y2="45.38" xlink:href="#Orange_Yellow"/><linearGradient id="Orange_Yellow-44" x1="29.67" y1="61.09" x2="30.02" y2="61.09" xlink:href="#Orange_Yellow"/><linearGradient id="Orange_Yellow-45" x1="29.62" y1="28.58" x2="29.97" y2="28.58" xlink:href="#Orange_Yellow"/><linearGradient id="Orange_Yellow-46" x1="20.23" y1="44.86" x2="20.58" y2="44.86" xlink:href="#Orange_Yellow"/><linearGradient id="Orange_Yellow-47" x1="48.49" y1="61.09" x2="48.84" y2="61.09" xlink:href="#Orange_Yellow"/><linearGradient id="Orange_Yellow-48" x1="57.62" y1="45.03" x2="57.96" y2="45.03" xlink:href="#Orange_Yellow"/><linearGradient id="Orange_Yellow-49" x1="109.41" y1="134.81" x2="109.75" y2="134.81" xlink:href="#Orange_Yellow"/><linearGradient id="Orange_Yellow-50" x1="96.4" y1="158.33" x2="96.75" y2="158.33" xlink:href="#Orange_Yellow"/><linearGradient id="Orange_Yellow-51" x1="135.08" y1="134.76" x2="135.43" y2="134.76" xlink:href="#Orange_Yellow"/><linearGradient id="Orange_Yellow-52" x1="134.41" y1="179.59" x2="134.77" y2="179.59" xlink:href="#Orange_Yellow"/><linearGradient id="Orange_Yellow-53" x1="148.08" y1="157.33" x2="148.43" y2="157.33" xlink:href="#Orange_Yellow"/><linearGradient id="Orange_Yellow-54" x1="188.73" y1="179.29" x2="189.09" y2="179.29" xlink:href="#Orange_Yellow"/><linearGradient id="Orange_Yellow-55" x1="109.46" y1="89.91" x2="109.8" y2="89.91" xlink:href="#Orange_Yellow"/><linearGradient id="Orange_Yellow-56" x1="135.13" y1="89.76" x2="135.48" y2="89.76" xlink:href="#Orange_Yellow"/><linearGradient id="Orange_Yellow-57" x1="131.83" y1="77.48" x2="132.18" y2="77.48" xlink:href="#Orange_Yellow"/><linearGradient id="Orange_Yellow-58" x1="148.12" y1="67.55" x2="148.46" y2="67.55" xlink:href="#Orange_Yellow"/><linearGradient id="Orange_Yellow-59" x1="159.98" y1="61.32" x2="160.32" y2="61.32" xlink:href="#Orange_Yellow"/><linearGradient id="Orange_Yellow-60" x1="169.37" y1="77.48" x2="169.72" y2="77.48" xlink:href="#Orange_Yellow"/><linearGradient id="Orange_Yellow-61" x1="173.98" y1="67.55" x2="174.33" y2="67.55" xlink:href="#Orange_Yellow"/><linearGradient id="Orange_Yellow-62" x1="160.25" y1="93.59" x2="160.6" y2="93.59" xlink:href="#Orange_Yellow"/><linearGradient id="Orange_Yellow-63" x1="169.68" y1="109.71" x2="170.02" y2="109.71" xlink:href="#Orange_Yellow"/><linearGradient id="Orange_Yellow-64" x1="173.21" y1="135.48" x2="173.56" y2="135.48" xlink:href="#Orange_Yellow"/><linearGradient id="Orange_Yellow-65" x1="174.03" y1="157.28" x2="174.38" y2="157.28" xlink:href="#Orange_Yellow"/><linearGradient id="Orange_Yellow-66" x1="148.13" y1="112.6" x2="148.48" y2="112.6" xlink:href="#Orange_Yellow"/><linearGradient id="Orange_Yellow-67" x1="173.93" y1="112.28" x2="174.28" y2="112.28" xlink:href="#Orange_Yellow"/><linearGradient id="Orange_Yellow-68" x1="173.93" y1="22.74" x2="174.28" y2="22.74" xlink:href="#Orange_Yellow"/><linearGradient id="Orange_Yellow-69" x1="148.17" y1="22.79" x2="148.51" y2="22.79" xlink:href="#Orange_Yellow"/><linearGradient id="Orange_Yellow-70" x1="131.53" y1="28.32" x2="131.87" y2="28.32" xlink:href="#Orange_Yellow"/><linearGradient id="Orange_Yellow-71" x1="96.46" y1="146.49" x2="109.78" y2="146.49" xlink:href="#Orange_Yellow"/><linearGradient id="Orange_Yellow-72" x1="134.48" y1="168.38" x2="148.46" y2="168.38" xlink:href="#Orange_Yellow"/><linearGradient id="Orange_Yellow-73" x1="174.15" y1="168.58" x2="189.36" y2="168.58" xlink:href="#Orange_Yellow"/><linearGradient id="Orange_Yellow-74" x1="0" y1="112.28" x2="19.36" y2="112.28" xlink:href="#Orange_Yellow"/><linearGradient id="Orange_Yellow-75" x1="0" y1="67.43" x2="19.35" y2="67.43" xlink:href="#Orange_Yellow"/><linearGradient id="Orange_Yellow-76" x1="0" y1="44.78" x2="20.41" y2="44.78" xlink:href="#Orange_Yellow"/><linearGradient id="Orange_Yellow-77" x1="173.1" y1="122.69" x2="188.55" y2="122.69" xlink:href="#Orange_Yellow"/><linearGradient id="Orange_Yellow-78" x1="17.01" y1="18.4" x2="29.88" y2="18.4" xlink:href="#Orange_Yellow"/><linearGradient id="Orange_Yellow-79" x1="48.41" y1="18.29" x2="59" y2="18.29" xlink:href="#Orange_Yellow"/><linearGradient id="Orange_Yellow-80" x1="104.21" y1="28.4" x2="132.01" y2="28.4" xlink:href="#Orange_Yellow"/></defs><g id="Layer_1-2"><g><polygon class="cls-9" points="58.1 134.65 32.27 134.65 19.36 112.28 32.27 89.91 58.1 89.91 71.01 112.28 58.1 134.65"/><polygon class="cls-4" points="58.08 89.92 32.26 89.92 19.34 67.55 32.26 45.19 58.08 45.19 71 67.55 58.08 89.92"/><polygon class="cls-73" points="48.52 61.09 29.78 61.09 20.41 44.86 29.78 28.63 48.52 28.63 57.89 44.86 48.52 61.09"/><polygon class="cls-17" points="76.29 77.32 57.55 77.32 48.18 61.09 57.55 44.86 76.29 44.86 85.66 61.09 76.29 77.32"/><polygon class="cls-52" points="131.95 77.32 113.21 77.32 103.84 61.09 113.21 44.86 131.95 44.86 141.32 61.09 131.95 77.32"/><polygon class="cls-75" points="160.3 93.71 141.56 93.71 132.19 77.48 141.56 61.25 160.3 61.25 169.67 77.48 160.3 93.71"/><polygon class="cls-10" points="188.44 109.82 169.7 109.82 160.33 93.59 169.7 77.36 188.44 77.36 197.81 93.59 188.44 109.82"/><polygon class="cls-6" points="104.21 60.94 85.47 60.94 76.1 44.71 85.47 28.48 104.21 28.48 113.58 44.71 104.21 60.94"/><polygon class="cls-69" points="96.81 112.28 70.98 112.28 58.07 89.91 70.98 67.54 96.81 67.54 109.72 89.91 96.81 112.28"/><polygon class="cls-77" points="135.5 134.65 109.67 134.65 96.75 112.28 109.67 89.91 135.5 89.91 148.41 112.28 135.5 134.65"/><polygon class="cls-36" points="174.18 157.17 148.35 157.17 135.44 134.81 148.35 112.44 174.18 112.44 187.09 134.81 174.18 157.17"/><polygon class="cls-39" points="174.18 112.44 148.35 112.44 135.44 90.08 148.35 67.71 174.18 67.71 187.09 90.08 174.18 112.44"/><polygon class="cls-41" points="174.18 67.4 148.35 67.4 135.44 45.03 148.35 22.66 174.18 22.66 187.09 45.03 174.18 67.4"/><polygon class="cls-46" points="135.5 89.75 109.67 89.75 96.75 67.39 109.67 45.02 135.5 45.02 148.41 67.39 135.5 89.75"/><polygon class="cls-78" points="96.81 67.4 70.98 67.4 58.07 45.03 70.98 22.66 96.81 22.66 109.72 45.03 96.81 67.4"/><polygon class="cls-34" points="135.5 44.86 109.67 44.86 96.75 22.49 109.67 .13 135.5 .13 148.41 22.49 135.5 44.86"/><circle class="cls-60" cx="96.57" cy="112.2" r=".05"/><circle class="cls-55" cx="70.95" cy="112.28" r=".05"/><circle class="cls-79" cx="58.11" cy="134.46" r=".05"/><circle class="cls-54" cx="32.57" cy="134.81" r=".05"/><circle class="cls-12" cx="19.36" cy="112.28" r=".05"/><circle class="cls-35" cx="32.31" cy="90.08" r=".05"/><circle class="cls-72" cx="19.34" cy="67.55" r=".05"/><circle class="cls-22" cx="58.11" cy="89.91" r=".05"/><circle class="cls-59" cx="57.84" cy="77.32" r=".05"/><circle class="cls-50" cx="70.96" cy="67.39" r=".05"/><circle class="cls-14" cx="76.59" cy="77.11" r=".05"/><circle class="cls-2" cx="85.71" cy="60.83" r=".05"/><circle class="cls-23" cx="103.84" cy="61.09" r=".05"/><circle class="cls-25" cx="113.37" cy="77.16" r=".05"/><circle class="cls-16" cx="96.57" cy="67.39" r=".05"/><circle class="cls-47" cx="109.47" cy="44.86" r=".05"/><circle class="cls-70" cx="113.41" cy="44.91" r=".05"/><circle class="cls-26" cx="131.7" cy="44.86" r=".05"/><circle class="cls-64" cx="135.54" cy="44.86" r=".05"/><circle class="cls-18" cx="141.2" cy="61.37" r=".05"/><circle class="cls-76" cx="104.47" cy="28.48" r=".05"/><circle class="cls-45" cx="96.91" cy="22.51" r=".05"/><circle class="cls-31" cx="76.31" cy="44.71" r=".05"/><circle class="cls-43" cx="85.61" cy="28.62" r=".05"/><circle class="cls-51" cx="71.18" cy="22.55" r=".05"/><circle class="cls-66" cx="48.52" cy="28.58" r=".05"/><circle class="cls-21" cx="32.18" cy="45.38" r=".05"/><circle class="cls-37" cx="29.84" cy="61.09" r=".05"/><circle class="cls-19" cx="29.79" cy="28.58" r=".05"/><circle class="cls-44" cx="20.41" cy="44.86" r=".05"/><circle class="cls-15" cx="48.67" cy="61.09" r=".05"/><circle class="cls-62" cx="57.79" cy="45.03" r=".05"/><circle class="cls-13" cx="109.58" cy="134.81" r=".05"/><circle class="cls-3" cx="96.57" cy="158.33" r=".05"/><circle class="cls-61" cx="135.26" cy="134.76" r=".05"/><circle class="cls-8" cx="134.59" cy="179.59" r=".06"/><circle class="cls-80" cx="148.26" cy="157.33" r=".05"/><circle class="cls-38" cx="188.91" cy="179.29" r=".06"/><circle class="cls-5" cx="109.63" cy="89.91" r=".05"/><circle class="cls-49" cx="135.31" cy="89.76" r=".05"/><circle class="cls-29" cx="132.01" cy="77.48" r=".05"/><circle class="cls-74" cx="148.29" cy="67.55" r=".05"/><circle class="cls-28" cx="160.15" cy="61.32" r=".05"/><circle class="cls-63" cx="169.54" cy="77.48" r=".05"/><circle class="cls-58" cx="174.16" cy="67.55" r=".05"/><circle class="cls-27" cx="160.43" cy="93.59" r=".05"/><circle class="cls-57" cx="169.85" cy="109.71" r=".05"/><circle class="cls-71" cx="173.39" cy="135.48" r=".05"/><circle class="cls-42" cx="174.21" cy="157.28" r=".05"/><circle class="cls-65" cx="148.3" cy="112.6" r=".05"/><circle class="cls-53" cx="174.11" cy="112.28" r=".05"/><circle class="cls-1" cx="174.11" cy="22.74" r=".05"/><circle class="cls-56" cx="148.34" cy="22.79" r=".05"/><circle class="cls-20" cx="131.7" cy="28.32" r=".05"/><line class="cls-7" x1="109.67" y1="134.65" x2="96.57" y2="158.33"/><line class="cls-67" x1="148.35" y1="157.17" x2="134.59" y2="179.59"/><line class="cls-32" x1="189.25" y1="179.81" x2="174.25" y2="157.35"/><line class="cls-33" x1="19.36" y1="112.28" x2="0" y2="112.28"/><line class="cls-24" x1="19.34" y1="67.55" x2="0" y2="67.31"/><line class="cls-40" x1="20.41" y1="44.86" x2="0" y2="44.71"/><line class="cls-11" x1="188.44" y1="109.82" x2="173.21" y2="135.57"/><line class="cls-30" x1="29.78" y1="28.63" x2="17.12" y2="8.17"/><line class="cls-68" x1="48.52" y1="28.63" x2="58.89" y2="7.95"/><line class="cls-48" x1="104.21" y1="28.48" x2="132.01" y2="28.32"/></g></g></svg>